<?xml version="1.0" encoding="UTF-8" standalone="no"?>
<!-- Created with Inkscape (http://www.inkscape.org/) -->

<svg
   width="210mm"
   height="297mm"
   viewBox="0 0 210 297"
   version="1.1"
   id="svg5"
   inkscape:version="1.1.2 (b8e25be833, 2022-02-05)"
   sodipodi:docname="OptimaleParameter.svg"
   xmlns:inkscape="http://www.inkscape.org/namespaces/inkscape"
   xmlns:sodipodi="http://sodipodi.sourceforge.net/DTD/sodipodi-0.dtd"
   xmlns="http://www.w3.org/2000/svg"
   xmlns:svg="http://www.w3.org/2000/svg">
  <sodipodi:namedview
     id="namedview7"
     pagecolor="#ffffff"
     bordercolor="#666666"
     borderopacity="1.0"
     inkscape:pageshadow="2"
     inkscape:pageopacity="0.0"
     inkscape:pagecheckerboard="0"
     inkscape:document-units="mm"
     showgrid="false"
     inkscape:snap-grids="true"
     inkscape:zoom="1.4835225"
     inkscape:cx="405.79095"
     inkscape:cy="189.41405"
     inkscape:window-width="1920"
     inkscape:window-height="1017"
     inkscape:window-x="-1928"
     inkscape:window-y="-8"
     inkscape:window-maximized="1"
     inkscape:current-layer="layer1">
    <inkscape:grid
       type="xygrid"
       id="grid4182" />
  </sodipodi:namedview>
  <defs
     id="defs2">
    <marker
       style="overflow:visible;"
       id="Arrow1Lend"
       refX="0.0"
       refY="0.0"
       orient="auto"
       inkscape:stockid="Arrow1Lend"
       inkscape:isstock="true">
      <path
         transform="scale(0.8) rotate(180) translate(12.5,0)"
         style="fill-rule:evenodd;fill:context-stroke;stroke:context-stroke;stroke-width:1.0pt;"
         d="M 0.0,0.0 L 5.0,-5.0 L -12.5,0.0 L 5.0,5.0 L 0.0,0.0 z "
         id="path1125" />
    </marker>
    <inkscape:path-effect
       effect="bspline"
       id="path-effect1005"
       is_visible="true"
       lpeversion="1"
       weight="33.333333"
       steps="2"
       helper_size="0"
       apply_no_weight="true"
       apply_with_weight="true"
       only_selected="false" />
    <marker
       style="overflow:visible"
       id="Arrow1Lstart"
       refX="0.0"
       refY="0.0"
       orient="auto"
       inkscape:stockid="Arrow1Lstart"
       inkscape:isstock="true">
      <path
         transform="scale(0.8) translate(12.5,0)"
         style="fill-rule:evenodd;fill:context-stroke;stroke:context-stroke;stroke-width:1.0pt"
         d="M 0.0,0.0 L 5.0,-5.0 L -12.5,0.0 L 5.0,5.0 L 0.0,0.0 z "
         id="path40779" />
    </marker>
    <marker
       style="overflow:visible"
       id="Arrow1Lstart-0"
       refX="0"
       refY="0"
       orient="auto"
       inkscape:stockid="Arrow1Lstart"
       inkscape:isstock="true">
      <path
         transform="matrix(0.8,0,0,0.8,10,0)"
         style="fill:context-stroke;fill-rule:evenodd;stroke:context-stroke;stroke-width:1pt"
         d="M 0,0 5,-5 -12.5,0 5,5 Z"
         id="path40779-4" />
    </marker>
    <marker
       style="overflow:visible"
       id="Arrow1Lstart-5"
       refX="0"
       refY="0"
       orient="auto"
       inkscape:stockid="Arrow1Lstart"
       inkscape:isstock="true">
      <path
         transform="matrix(0.8,0,0,0.8,10,0)"
         style="fill:context-stroke;fill-rule:evenodd;stroke:context-stroke;stroke-width:1pt"
         d="M 0,0 5,-5 -12.5,0 5,5 Z"
         id="path40779-7" />
    </marker>
    <marker
       style="overflow:visible"
       id="Arrow1Lstart-2"
       refX="0"
       refY="0"
       orient="auto"
       inkscape:stockid="Arrow1Lstart"
       inkscape:isstock="true">
      <path
         transform="matrix(0.8,0,0,0.8,10,0)"
         style="fill:context-stroke;fill-rule:evenodd;stroke:context-stroke;stroke-width:1pt"
         d="M 0,0 5,-5 -12.5,0 5,5 Z"
         id="path40779-2" />
    </marker>
    <marker
       style="overflow:visible"
       id="Arrow1Lstart-0-6"
       refX="0"
       refY="0"
       orient="auto"
       inkscape:stockid="Arrow1Lstart"
       inkscape:isstock="true">
      <path
         transform="matrix(0.8,0,0,0.8,10,0)"
         style="fill:context-stroke;fill-rule:evenodd;stroke:context-stroke;stroke-width:1pt"
         d="M 0,0 5,-5 -12.5,0 5,5 Z"
         id="path40779-4-4" />
    </marker>
    <marker
       style="overflow:visible"
       id="Arrow1Lstart-0-5"
       refX="0"
       refY="0"
       orient="auto"
       inkscape:stockid="Arrow1Lstart"
       inkscape:isstock="true">
      <path
         transform="matrix(0.8,0,0,0.8,10,0)"
         style="fill:context-stroke;fill-rule:evenodd;stroke:context-stroke;stroke-width:1pt"
         d="M 0,0 5,-5 -12.5,0 5,5 Z"
         id="path40779-4-41" />
    </marker>
    <marker
       style="overflow:visible"
       id="Arrow1Lstart-0-9"
       refX="0"
       refY="0"
       orient="auto"
       inkscape:stockid="Arrow1Lstart"
       inkscape:isstock="true">
      <path
         transform="matrix(0.8,0,0,0.8,10,0)"
         style="fill:context-stroke;fill-rule:evenodd;stroke:context-stroke;stroke-width:1pt"
         d="M 0,0 5,-5 -12.5,0 5,5 Z"
         id="path40779-4-9" />
    </marker>
    <marker
       style="overflow:visible"
       id="Arrow1Lstart-0-92"
       refX="0"
       refY="0"
       orient="auto"
       inkscape:stockid="Arrow1Lstart"
       inkscape:isstock="true">
      <path
         transform="matrix(0.8,0,0,0.8,10,0)"
         style="fill:context-stroke;fill-rule:evenodd;stroke:context-stroke;stroke-width:1pt"
         d="M 0,0 5,-5 -12.5,0 5,5 Z"
         id="path40779-4-8" />
    </marker>
    <marker
       style="overflow:visible"
       id="Arrow1Lstart-0-0"
       refX="0"
       refY="0"
       orient="auto"
       inkscape:stockid="Arrow1Lstart"
       inkscape:isstock="true">
      <path
         transform="matrix(0.8,0,0,0.8,10,0)"
         style="fill:context-stroke;fill-rule:evenodd;stroke:context-stroke;stroke-width:1pt"
         d="M 0,0 5,-5 -12.5,0 5,5 Z"
         id="path40779-4-6" />
    </marker>
    <marker
       style="overflow:visible"
       id="Arrow1Lstart-0-3"
       refX="0"
       refY="0"
       orient="auto"
       inkscape:stockid="Arrow1Lstart"
       inkscape:isstock="true">
      <path
         transform="matrix(0.8,0,0,0.8,10,0)"
         style="fill:context-stroke;fill-rule:evenodd;stroke:context-stroke;stroke-width:1pt"
         d="M 0,0 5,-5 -12.5,0 5,5 Z"
         id="path40779-4-3" />
    </marker>
    <marker
       style="overflow:visible"
       id="Arrow1Lstart-0-2"
       refX="0"
       refY="0"
       orient="auto"
       inkscape:stockid="Arrow1Lstart"
       inkscape:isstock="true">
      <path
         transform="matrix(0.8,0,0,0.8,10,0)"
         style="fill:context-stroke;fill-rule:evenodd;stroke:context-stroke;stroke-width:1pt"
         d="M 0,0 5,-5 -12.5,0 5,5 Z"
         id="path40779-4-69" />
    </marker>
    <marker
       style="overflow:visible"
       id="Arrow1Lstart-0-8"
       refX="0"
       refY="0"
       orient="auto"
       inkscape:stockid="Arrow1Lstart"
       inkscape:isstock="true">
      <path
         transform="matrix(0.8,0,0,0.8,10,0)"
         style="fill:context-stroke;fill-rule:evenodd;stroke:context-stroke;stroke-width:1pt"
         d="M 0,0 5,-5 -12.5,0 5,5 Z"
         id="path40779-4-5" />
    </marker>
  </defs>
  <g
     inkscape:label="Ebene 1"
     inkscape:groupmode="layer"
     id="layer1">
    <path
       id="rect1824"
       style="fill:#ffffff;fill-rule:evenodd;stroke:#000000;stroke-width:0.265;stop-color:#000000"
       d="m 55,69.045044 h 100 v 10 H 55 Z" />
    <path
       id="rect4550"
       style="vector-effect:none;fill:#ffffff;fill-rule:evenodd;stroke:#000000;stroke-width:0.264583;stop-color:#000000"
       d="m 55,69.045044 h 10 v 10 H 55 Z" />
    <path
       id="rect4550-5"
       style="vector-effect:none;fill:#ffffff;fill-rule:evenodd;stroke:#000000;stroke-width:0.264583;stop-color:#000000"
       d="m 65,69.045044 h 10 v 10 H 65 Z" />
    <path
       id="rect4550-4"
       style="vector-effect:none;fill:#ffffff;fill-rule:evenodd;stroke:#000000;stroke-width:0.264583;stop-color:#000000"
       d="m 75,69.045044 h 10 v 10 H 75 Z" />
    <path
       id="rect4550-2"
       style="vector-effect:none;fill:#ffffff;fill-rule:evenodd;stroke:#000000;stroke-width:0.264583;stop-color:#000000"
       d="m 125,69.045044 h 10 v 10 h -10 z" />
    <path
       id="rect4550-7"
       style="vector-effect:none;fill:#ffffff;fill-rule:evenodd;stroke:#000000;stroke-width:0.264583;stop-color:#000000"
       d="m 135,69.045044 h 10 v 10 h -10 z" />
    <path
       id="rect4550-8"
       style="vector-effect:none;fill:#ffffff;fill-rule:evenodd;stroke:#000000;stroke-width:0.264583;stop-color:#000000"
       d="m 145,69.045044 h 10 v 10 h -10 z" />
    <g
       aria-label="E1"
       id="text6654"
       style="font-size:7.76111px;line-height:1.25;stroke-width:0.264583">
      <path
         d="m 86.278326,24.299152 h -3.717602 v -5.642721 h 3.717602 v 0.666971 h -2.96726 v 1.546158 h 2.96726 v 0.666971 h -2.96726 v 2.095651 h 2.96726 z"
         id="path990" />
      <path
         d="m 89.380496,25.851374 h -1.985374 v -0.374413 h 0.763606 v -2.458316 h -0.763606 v -0.335001 q 0.155185,0 0.332538,-0.02463 0.177354,-0.0271 0.268494,-0.07636 0.113309,-0.06158 0.177353,-0.155184 0.06651,-0.09607 0.07636,-0.256177 h 0.381802 v 3.305671 h 0.748826 z"
         style="font-size:65%;baseline-shift:sub"
         id="path992" />
    </g>
    <g
       aria-label="En"
       id="text15800"
       style="font-size:7.76111px;line-height:1.25;stroke-width:0.264583">
      <path
         d="m 125.86059,24.299152 h -3.71761 v -5.642721 h 3.71761 v 0.666971 h -2.96726 v 1.546158 h 2.96726 v 0.666971 h -2.96726 v 2.095651 h 2.96726 z"
         id="path995" />
      <path
         d="m 129.04897,25.851374 h -0.46309 v -1.566622 q 0,-0.18967 -0.0222,-0.354707 -0.0222,-0.1675 -0.0813,-0.261104 -0.0616,-0.103456 -0.17735,-0.152721 -0.11577,-0.05173 -0.30052,-0.05173 -0.18966,0 -0.39658,0.0936 -0.20691,0.0936 -0.39658,0.238935 v 2.054344 h -0.46309 v -2.751442 h 0.46309 v 0.305442 q 0.21677,-0.179816 0.44831,-0.280809 0.23155,-0.100993 0.47541,-0.100993 0.44584,0 0.67985,0.268493 0.23401,0.268494 0.23401,0.773458 z"
         style="font-size:65%;baseline-shift:sub"
         id="path997" />
    </g>
    <g
       aria-label="h1"
       id="text21526"
       style="font-size:7.76111px;line-height:1.25;stroke-width:0.264583">
      <path
         d="m 86.217534,51.738564 h -0.712445 v -2.410189 q 0,-0.291799 -0.03411,-0.545703 -0.03411,-0.257693 -0.125057,-0.401698 -0.09474,-0.159163 -0.272851,-0.234955 -0.178112,-0.07958 -0.462332,-0.07958 -0.2918,0 -0.610126,0.144005 -0.318327,0.144005 -0.610127,0.367591 v 3.160531 h -0.712445 v -5.896625 h 0.712445 v 2.133547 q 0.333485,-0.276641 0.689708,-0.432015 0.356223,-0.155373 0.731394,-0.155373 0.685918,0 1.045931,0.413067 0.360012,0.413066 0.360012,1.189935 z"
         id="path1000" />
      <path
         d="m 89.558449,53.290786 h -1.985373 v -0.374413 h 0.763605 v -2.458317 h -0.763605 v -0.335001 q 0.155184,0 0.332537,-0.02463 0.177354,-0.0271 0.268494,-0.07636 0.113309,-0.06158 0.177353,-0.155184 0.06651,-0.09607 0.07636,-0.256177 h 0.381803 v 3.305672 h 0.748825 z"
         style="font-size:65%;baseline-shift:sub"
         id="path1002" />
    </g>
    <g
       aria-label="hk"
       id="text24476"
       style="font-size:7.76111px;line-height:1.25;stroke-width:0.264583">
      <path
         d="m 123.65928,51.738564 h -0.71245 v -2.410189 q 0,-0.291799 -0.0341,-0.545703 -0.0341,-0.257693 -0.12505,-0.401698 -0.0947,-0.159163 -0.27285,-0.234955 -0.17812,-0.07958 -0.46234,-0.07958 -0.2918,0 -0.61012,0.144005 -0.31833,0.144005 -0.61013,0.367591 v 3.160531 h -0.71244 v -5.896625 h 0.71244 v 2.133547 q 0.33349,-0.276641 0.68971,-0.432015 0.35622,-0.155373 0.73139,-0.155373 0.68592,0 1.04593,0.413067 0.36002,0.413066 0.36002,1.189935 z"
         id="path1005" />
      <path
         d="m 127.28346,53.290786 h -0.61088 l -1.10353,-1.204526 -0.30052,0.285736 v 0.91879 h -0.46309 V 49.45798 h 0.46309 v 2.458316 l 1.33754,-1.376953 h 0.58379 l -1.27842,1.271034 z"
         style="font-size:65%;baseline-shift:sub"
         id="path1007" />
    </g>
    <path
       style="fill:#000000;fill-opacity:1;stroke:#fa0000;stroke-width:0.310584;stroke-linecap:butt;stroke-linejoin:miter;stroke-miterlimit:4;stroke-dasharray:none;stroke-opacity:1;marker-start:url(#Arrow1Lstart)"
       d="M 85.785407,45.190927 83.537362,28.17899"
       id="path40183"
       sodipodi:nodetypes="cc" />
    <path
       style="fill:#000000;fill-opacity:1;stroke:#fa0000;stroke-width:0.291261;stroke-linecap:butt;stroke-linejoin:miter;stroke-miterlimit:4;stroke-dasharray:none;stroke-opacity:1;marker-start:url(#Arrow1Lstart-0-6)"
       d="M 122.70345,45.441969 83.537362,28.17899"
       id="path40183-4-1"
       sodipodi:nodetypes="cc" />
    <path
       style="fill:#000000;fill-opacity:1;stroke:#0900ff;stroke-width:0.291261;stroke-linecap:butt;stroke-linejoin:miter;stroke-miterlimit:4;stroke-dasharray:none;stroke-opacity:1;marker-start:url(#Arrow1Lstart-0-5)"
       d="m 122.70345,45.441969 1.96183,-17.578108"
       id="path40183-4-8"
       sodipodi:nodetypes="cc" />
    <path
       style="fill:#000000;fill-opacity:1;stroke:#ff0000;stroke-width:0.291261;stroke-linecap:butt;stroke-linejoin:miter;stroke-miterlimit:4;stroke-dasharray:none;stroke-opacity:1;marker-start:url(#Arrow1Lstart-0-92)"
       d="M 80.197115,67.439912 86.439297,55.033898"
       id="path40183-4-26"
       sodipodi:nodetypes="cc" />
    <path
       style="fill:#000000;fill-opacity:1;stroke:#0900ff;stroke-width:0.291261;stroke-linecap:butt;stroke-linejoin:miter;stroke-miterlimit:4;stroke-dasharray:none;stroke-opacity:1;marker-start:url(#Arrow1Lstart-0-0)"
       d="M 109.0895,67.796608 86.439297,55.033898"
       id="path40183-4-9"
       sodipodi:nodetypes="cc" />
    <path
       style="fill:#000000;fill-opacity:1;stroke:#ff0000;stroke-width:0.291261;stroke-linecap:butt;stroke-linejoin:miter;stroke-miterlimit:4;stroke-dasharray:none;stroke-opacity:1;marker-start:url(#Arrow1Lstart-0-3)"
       d="M 138.38861,67.796608 125.3692,55.212246"
       id="path40183-4-5"
       sodipodi:nodetypes="cc" />
    <path
       style="fill:#000000;fill-opacity:1;stroke:#0900f3;stroke-width:0.291261;stroke-linecap:butt;stroke-linejoin:miter;stroke-miterlimit:4;stroke-dasharray:none;stroke-opacity:1;marker-start:url(#Arrow1Lstart-0-2)"
       d="M 80.197115,67.439912 125.3692,55.212246"
       id="path40183-4-3"
       sodipodi:nodetypes="cc" />
    <path
       style="fill:#000000;fill-opacity:1;stroke:#0900ff;stroke-width:0.310584;stroke-linecap:butt;stroke-linejoin:miter;stroke-miterlimit:4;stroke-dasharray:none;stroke-opacity:1;marker-start:url(#Arrow1Lstart-5)"
       d="M 85.785407,45.190927 124.66528,27.863861"
       id="path40183-7"
       sodipodi:nodetypes="cc" />
    <g
       aria-label="0"
       id="text46638"
       style="font-size:10.5833px;line-height:1.25;stroke-width:0.265">
      <path
         d="m 62.923645,74.009272 q 0,2.072218 -0.651121,3.043732 -0.645953,0.966346 -2.010207,0.966346 -1.384924,0 -2.02571,-0.981849 -0.635618,-0.981849 -0.635618,-3.017894 0,-2.051548 0.645954,-3.028229 0.645953,-0.981849 2.015374,-0.981849 1.384924,0 2.020542,0.997352 0.640786,0.992184 0.640786,3.002391 z m -1.359086,2.346102 q 0.180867,-0.418577 0.242879,-0.981849 0.06718,-0.568439 0.06718,-1.364253 0,-0.785479 -0.06718,-1.364254 -0.06201,-0.578774 -0.248047,-0.981849 -0.180867,-0.397907 -0.496092,-0.599444 -0.310057,-0.201538 -0.800982,-0.201538 -0.485757,0 -0.80615,0.201538 -0.315225,0.201537 -0.501259,0.609779 -0.1757,0.382405 -0.242879,0.997352 -0.06201,0.614948 -0.06201,1.348751 0,0.80615 0.05684,1.348751 0.05684,0.5426 0.242879,0.971513 0.170532,0.403075 0.480589,0.614948 0.315225,0.211873 0.831988,0.211873 0.485757,0 0.80615,-0.201538 0.320393,-0.201537 0.496092,-0.60978 z"
         id="path1010" />
    </g>
    <g
       aria-label="0"
       id="text46638-4"
       style="font-size:10.5833px;line-height:1.25;stroke-width:0.265">
      <path
         d="m 73.108806,74.009272 q 0,2.072218 -0.65112,3.043732 -0.645954,0.966346 -2.010207,0.966346 -1.384924,0 -2.02571,-0.981849 -0.635618,-0.981849 -0.635618,-3.017894 0,-2.051548 0.645953,-3.028229 0.645954,-0.981849 2.015375,-0.981849 1.384924,0 2.020542,0.997352 0.640785,0.992184 0.640785,3.002391 z m -1.359085,2.346102 q 0.180867,-0.418577 0.242878,-0.981849 0.06718,-0.568439 0.06718,-1.364253 0,-0.785479 -0.06718,-1.364254 -0.06201,-0.578774 -0.248046,-0.981849 -0.180867,-0.397907 -0.496092,-0.599444 -0.310058,-0.201538 -0.800982,-0.201538 -0.485757,0 -0.80615,0.201538 -0.315225,0.201537 -0.50126,0.609779 -0.175699,0.382405 -0.242878,0.997352 -0.06201,0.614948 -0.06201,1.348751 0,0.80615 0.05684,1.348751 0.05684,0.5426 0.242878,0.971513 0.170532,0.403075 0.48059,0.614948 0.315225,0.211873 0.831988,0.211873 0.485757,0 0.806149,-0.201538 0.320393,-0.201537 0.496093,-0.60978 z"
         id="path1013" />
    </g>
    <g
       aria-label="0"
       id="text46638-1"
       style="font-size:10.5833px;line-height:1.25;stroke-width:0.265">
      <path
         d="m 133.03376,74.009272 q 0,2.072218 -0.65112,3.043732 -0.64595,0.966346 -2.0102,0.966346 -1.38493,0 -2.02571,-0.981849 -0.63562,-0.981849 -0.63562,-3.017894 0,-2.051548 0.64595,-3.028229 0.64595,-0.981849 2.01538,-0.981849 1.38492,0 2.02054,0.997352 0.64078,0.992184 0.64078,3.002391 z m -1.35908,2.346102 q 0.18086,-0.418577 0.24288,-0.981849 0.0672,-0.568439 0.0672,-1.364253 0,-0.785479 -0.0672,-1.364254 -0.062,-0.578774 -0.24805,-0.981849 -0.18087,-0.397907 -0.49609,-0.599444 -0.31006,-0.201538 -0.80098,-0.201538 -0.48576,0 -0.80615,0.201538 -0.31523,0.201537 -0.50126,0.609779 -0.1757,0.382405 -0.24288,0.997352 -0.062,0.614948 -0.062,1.348751 0,0.80615 0.0568,1.348751 0.0568,0.5426 0.24288,0.971513 0.17053,0.403075 0.48059,0.614948 0.31522,0.211873 0.83199,0.211873 0.48575,0 0.80615,-0.201538 0.32039,-0.201537 0.49609,-0.60978 z"
         id="path1016" />
    </g>
    <g
       aria-label="1
"
       id="text59580"
       style="font-size:10.5833px;line-height:1.25;stroke-width:0.264583">
      <path
         d="m 82.469719,77.874657 h -4.165107 v -0.78548 h 1.601964 v -5.157291 h -1.601964 v -0.702797 q 0.32556,0 0.697629,-0.05168 0.372069,-0.05684 0.563272,-0.160196 0.23771,-0.129191 0.372069,-0.325561 0.139526,-0.201537 0.160196,-0.537433 h 0.800982 v 6.934955 h 1.570959 z"
         id="path1019" />
    </g>
    <g
       aria-label="1"
       id="text59580-2"
       style="font-size:10.5833px;line-height:1.25;stroke-width:0.264583">
      <path
         d="m 142.26412,77.874657 h -4.16511 v -0.78548 h 1.60197 v -5.157291 h -1.60197 v -0.702797 q 0.32557,0 0.69763,-0.05168 0.37207,-0.05684 0.56328,-0.160196 0.23771,-0.129191 0.37206,-0.325561 0.13953,-0.201537 0.1602,-0.537433 h 0.80098 v 6.934955 h 1.57096 z"
         id="path1022" />
    </g>
    <g
       aria-label="0"
       id="text59580-5"
       style="font-size:10.5833px;line-height:1.25;stroke-width:0.264583">
      <path
         d="m 152.50218,74.024775 q 0,2.072218 -0.65112,3.043732 -0.64596,0.966346 -2.01021,0.966346 -1.38492,0 -2.02571,-0.981849 -0.63562,-0.981849 -0.63562,-3.017894 0,-2.051548 0.64596,-3.028229 0.64595,-0.981849 2.01537,-0.981849 1.38492,0 2.02054,0.997352 0.64079,0.992184 0.64079,3.002391 z m -1.35909,2.346102 q 0.18087,-0.418577 0.24288,-0.981849 0.0672,-0.568439 0.0672,-1.364253 0,-0.78548 -0.0672,-1.364254 -0.062,-0.578774 -0.24805,-0.981849 -0.18086,-0.397907 -0.49609,-0.599445 -0.31006,-0.201537 -0.80098,-0.201537 -0.48576,0 -0.80615,0.201537 -0.31522,0.201538 -0.50126,0.60978 -0.1757,0.382405 -0.24288,0.997352 -0.062,0.614948 -0.062,1.348751 0,0.80615 0.0568,1.348751 0.0568,0.5426 0.24288,0.971513 0.17053,0.403075 0.48059,0.614948 0.31523,0.211873 0.83199,0.211873 0.48576,0 0.80615,-0.201538 0.32039,-0.201537 0.49609,-0.60978 z"
         id="path1025" />
    </g>
    <g
       aria-label="Elemente"
       id="text2268"
       style="font-size:7.76111px;line-height:1.25;stroke-width:0.264583">
      <path
         d="M 7.864136,25.752844 H 4.1465341 V 20.110123 H 7.864136 v 0.66697 H 4.8968758 v 1.546159 H 7.864136 v 0.66697 H 4.8968758 v 2.095651 H 7.864136 Z"
         id="path1028" />
      <path
         d="M 9.7172528,25.752844 H 9.0048072 v -5.896625 h 0.7124456 z"
         id="path1030" />
      <path
         d="m 14.670266,23.710247 h -3.118845 q 0,0.390329 0.117478,0.682129 0.117478,0.28801 0.322116,0.4737 0.19706,0.181901 0.466122,0.272852 0.272851,0.09095 0.598757,0.09095 0.432015,0 0.867819,-0.170532 0.439595,-0.174322 0.625285,-0.341064 h 0.0379 v 0.776869 q -0.360012,0.151584 -0.735183,0.253903 -0.375171,0.10232 -0.788238,0.10232 -1.05351,0 -1.644688,-0.568441 -0.591178,-0.57223 -0.591178,-1.621951 0,-1.038351 0.564651,-1.648478 0.56844,-0.610126 1.493104,-0.610126 0.85645,0 1.318782,0.500228 0.466122,0.500228 0.466122,1.421101 z m -0.693498,-0.545703 q -0.0038,-0.560861 -0.28422,-0.867819 -0.276642,-0.306958 -0.845082,-0.306958 -0.57223,0 -0.913295,0.337274 -0.337275,0.337275 -0.38275,0.837503 z"
         id="path1032" />
      <path
         d="m 21.927358,25.752844 h -0.712445 v -2.410189 q 0,-0.272851 -0.02653,-0.526755 -0.02274,-0.253903 -0.102319,-0.405487 -0.08716,-0.162953 -0.250114,-0.246325 -0.162953,-0.08337 -0.469911,-0.08337 -0.299378,0 -0.598757,0.151584 -0.299379,0.147795 -0.598758,0.378961 0.01137,0.08716 0.01895,0.204638 0.0076,0.113689 0.0076,0.227377 v 2.709567 h -0.712446 v -2.410189 q 0,-0.28043 -0.02653,-0.530544 -0.02274,-0.253904 -0.10232,-0.405488 -0.08716,-0.162953 -0.250114,-0.242535 -0.162953,-0.08337 -0.469911,-0.08337 -0.291799,0 -0.587388,0.144005 -0.2918,0.144005 -0.583599,0.367592 v 3.16053 h -0.712446 v -4.232988 h 0.712446 v 0.469911 q 0.333485,-0.276641 0.66318,-0.432015 0.333486,-0.155374 0.708657,-0.155374 0.432014,0 0.731393,0.181901 0.303169,0.181901 0.450963,0.504017 0.432015,-0.363802 0.788238,-0.522965 0.356223,-0.162953 0.76171,-0.162953 0.697288,0 1.026983,0.424436 0.333485,0.420646 0.333485,1.178567 z"
         id="path1034" />
      <path
         d="m 26.842475,23.710247 h -3.118844 q 0,0.390329 0.117478,0.682129 0.117477,0.28801 0.322116,0.4737 0.197059,0.181901 0.466121,0.272852 0.272852,0.09095 0.598758,0.09095 0.432015,0 0.867819,-0.170532 0.439594,-0.174322 0.625285,-0.341064 h 0.0379 v 0.776869 q -0.360012,0.151584 -0.735183,0.253903 -0.375171,0.10232 -0.788238,0.10232 -1.05351,0 -1.644688,-0.568441 -0.591179,-0.57223 -0.591179,-1.621951 0,-1.038351 0.564651,-1.648478 0.568441,-0.610126 1.493105,-0.610126 0.85645,0 1.318782,0.500228 0.466121,0.500228 0.466121,1.421101 z m -0.693497,-0.545703 q -0.0038,-0.560861 -0.284221,-0.867819 -0.276641,-0.306958 -0.845081,-0.306958 -0.572231,0 -0.913295,0.337274 -0.337275,0.337275 -0.38275,0.837503 z"
         id="path1036" />
      <path
         d="m 31.462003,25.752844 h -0.712445 v -2.410189 q 0,-0.291799 -0.03411,-0.545703 -0.03411,-0.257693 -0.125057,-0.401698 -0.09474,-0.159163 -0.272851,-0.234955 -0.178112,-0.07958 -0.462332,-0.07958 -0.291799,0 -0.610126,0.144005 -0.318327,0.144005 -0.610127,0.367592 v 3.16053 h -0.712445 v -4.232988 h 0.712445 v 0.469911 q 0.333486,-0.276641 0.689708,-0.432015 0.356223,-0.155374 0.731394,-0.155374 0.685919,0 1.045931,0.413067 0.360012,0.413067 0.360012,1.189936 z"
         id="path1038" />
      <path
         d="m 35.031811,25.714948 q -0.200849,0.05305 -0.439594,0.08716 -0.234956,0.03411 -0.420646,0.03411 -0.648023,0 -0.985298,-0.348643 -0.337274,-0.348644 -0.337274,-1.117934 v -2.251025 h -0.48128 v -0.598757 h 0.48128 v -1.216463 h 0.712445 v 1.216463 h 1.470367 v 0.598757 h -1.470367 v 1.928909 q 0,0.333485 0.01516,0.522965 0.01516,0.185691 0.106109,0.348644 0.08337,0.151584 0.227376,0.223587 0.147794,0.06821 0.447173,0.06821 0.174322,0 0.363802,-0.04926 0.18948,-0.05306 0.272852,-0.08716 h 0.0379 z"
         id="path1040" />
      <path
         d="m 39.435331,23.710247 h -3.118845 q 0,0.390329 0.117478,0.682129 0.117478,0.28801 0.322116,0.4737 0.19706,0.181901 0.466122,0.272852 0.272851,0.09095 0.598757,0.09095 0.432015,0 0.86782,-0.170532 0.439594,-0.174322 0.625284,-0.341064 h 0.0379 v 0.776869 q -0.360012,0.151584 -0.735183,0.253903 -0.375171,0.10232 -0.788238,0.10232 -1.05351,0 -1.644688,-0.568441 -0.591178,-0.57223 -0.591178,-1.621951 0,-1.038351 0.564651,-1.648478 0.568441,-0.610126 1.493104,-0.610126 0.856451,0 1.318782,0.500228 0.466122,0.500228 0.466122,1.421101 z m -0.693498,-0.545703 q -0.0038,-0.560861 -0.28422,-0.867819 -0.276641,-0.306958 -0.845082,-0.306958 -0.57223,0 -0.913295,0.337274 -0.337274,0.337275 -0.38275,0.837503 z"
         id="path1042" />
    </g>
    <g
       aria-label="..."
       id="text28976"
       style="font-size:10.5833px;line-height:1.25;stroke-width:0.264583">
      <path
         d="M 101.16894,25.851374 H 99.933874 V 24.3786 h 1.235066 z"
         id="path1045" />
      <path
         d="m 105.01882,25.851374 h -1.23506 V 24.3786 h 1.23506 z"
         id="path1047" />
      <path
         d="m 108.8687,25.851374 h -1.23506 V 24.3786 h 1.23506 z"
         id="path1049" />
    </g>
    <g
       aria-label="..."
       id="text31356"
       style="font-size:10.5833px;line-height:1.25;stroke-width:0.264583">
      <path
         d="m 101.16894,54.349121 h -1.235058 v -1.472774 h 1.235058 z"
         id="path1052" />
      <path
         d="m 105.01883,54.349121 h -1.23507 v -1.472774 h 1.23507 z"
         id="path1054" />
      <path
         d="m 108.86871,54.349121 h -1.23506 v -1.472774 h 1.23506 z"
         id="path1056" />
    </g>
    <g
       aria-label="..."
       id="text31356-9"
       style="font-size:10.5833px;line-height:1.25;stroke-width:0.264583">
      <path
         d="m 101.10126,77.530029 h -1.235066 v -1.472773 h 1.235066 z"
         id="path1059" />
      <path
         d="m 104.95114,77.530029 h -1.23506 v -1.472773 h 1.23506 z"
         id="path1061" />
      <path
         d="m 108.80102,77.530029 h -1.23506 v -1.472773 h 1.23506 z"
         id="path1063" />
    </g>
    <g
       aria-label="Hashes"
       id="text41536"
       style="font-size:7.76111px;line-height:1.25;stroke-width:0.264583">
      <path
         d="M 8.4628935,54.231644 H 7.7125519 V 51.469022 H 4.8968758 v 2.762622 H 4.1465341 v -5.642721 h 0.7503417 v 2.213129 h 2.8156761 v -2.213129 h 0.7503416 z"
         id="path1066" />
      <path
         d="m 13.211268,54.231644 h -0.708656 v -0.450963 q -0.09474,0.06442 -0.257693,0.181901 -0.159164,0.113688 -0.310748,0.181901 -0.178111,0.08716 -0.409277,0.144005 -0.231166,0.06063 -0.541914,0.06063 -0.57223,0 -0.970138,-0.37896 -0.3979089,-0.37896 -0.3979089,-0.966349 0,-0.48128 0.2046386,-0.776869 0.2084283,-0.299379 0.5911783,-0.469911 0.38654,-0.170532 0.928453,-0.231166 0.541914,-0.06063 1.163409,-0.09095 v -0.109899 q 0,-0.242535 -0.08716,-0.401698 -0.08337,-0.159163 -0.242535,-0.250114 -0.151584,-0.08716 -0.363802,-0.117478 -0.212218,-0.03032 -0.443384,-0.03032 -0.28043,0 -0.625284,0.07579 -0.344854,0.072 -0.712446,0.212218 h -0.037896 v -0.723815 q 0.2084281,-0.05684 0.6025471,-0.125057 0.394119,-0.06821 0.776869,-0.06821 0.447173,0 0.776869,0.07579 0.333485,0.072 0.57602,0.250114 0.238745,0.174322 0.363802,0.450963 0.125057,0.276641 0.125057,0.685919 z m -0.708656,-1.042142 v -1.178567 q -0.325906,0.01895 -0.76929,0.05684 -0.439594,0.0379 -0.697287,0.109898 -0.306958,0.08716 -0.496438,0.272852 -0.189481,0.181901 -0.189481,0.504017 0,0.363802 0.219797,0.549493 0.219797,0.181901 0.67076,0.181901 0.375171,0 0.685919,-0.144005 0.310747,-0.147795 0.57602,-0.352434 z"
         id="path1068" />
      <path
         d="m 17.607208,53.011391 q 0,0.57981 -0.481279,0.951191 -0.477491,0.371381 -1.307414,0.371381 -0.469911,0 -0.86403,-0.109899 -0.390329,-0.113688 -0.655601,-0.246324 v -0.799606 h 0.0379 q 0.337274,0.253903 0.750341,0.405487 0.413067,0.147795 0.792028,0.147795 0.469911,0 0.735183,-0.151584 0.265272,-0.151584 0.265272,-0.47749 0,-0.250114 -0.144005,-0.378961 -0.144005,-0.128846 -0.553282,-0.219797 -0.151584,-0.03411 -0.397908,-0.07958 -0.242535,-0.04548 -0.443384,-0.09853 -0.557072,-0.147795 -0.792027,-0.432015 -0.231166,-0.28801 -0.231166,-0.704867 0,-0.261482 0.106109,-0.492648 0.109898,-0.231166 0.329695,-0.413067 0.212218,-0.178112 0.538124,-0.280431 0.329696,-0.106109 0.735183,-0.106109 0.378961,0 0.7655,0.09474 0.39033,0.09095 0.648023,0.223587 v 0.76171 h -0.0379 q -0.272852,-0.200849 -0.663181,-0.337274 -0.390329,-0.140216 -0.7655,-0.140216 -0.390329,0 -0.659391,0.151585 -0.269062,0.147794 -0.269062,0.443383 0,0.261483 0.162953,0.394119 0.159163,0.132636 0.515386,0.216008 0.197059,0.04548 0.439594,0.09095 0.246324,0.04548 0.409277,0.08337 0.496438,0.113688 0.7655,0.39033 0.269062,0.28043 0.269062,0.742762 z"
         id="path1070" />
      <path
         d="m 22.166103,54.231644 h -0.712446 v -2.410189 q 0,-0.291799 -0.03411,-0.545703 -0.03411,-0.257693 -0.125057,-0.401698 -0.09474,-0.159163 -0.272852,-0.234955 -0.178111,-0.07958 -0.462331,-0.07958 -0.2918,0 -0.610127,0.144005 -0.318326,0.144005 -0.610126,0.367592 v 3.16053 h -0.712446 v -5.896625 h 0.712446 v 2.133547 q 0.333485,-0.276641 0.689708,-0.432014 0.356223,-0.155374 0.731394,-0.155374 0.685918,0 1.045931,0.413067 0.360012,0.413067 0.360012,1.189935 z"
         id="path1072" />
      <path
         d="m 27.08122,52.189047 h -3.118844 q 0,0.390329 0.117477,0.682129 0.117478,0.28801 0.322117,0.4737 0.197059,0.181901 0.466121,0.272852 0.272852,0.09095 0.598758,0.09095 0.432014,0 0.867819,-0.170532 0.439594,-0.174322 0.625285,-0.341064 h 0.0379 v 0.776869 q -0.360013,0.151584 -0.735184,0.253903 -0.37517,0.102319 -0.788237,0.102319 -1.05351,0 -1.644689,-0.56844 -0.591178,-0.572231 -0.591178,-1.621951 0,-1.038352 0.564651,-1.648478 0.568441,-0.610126 1.493104,-0.610126 0.856451,0 1.318783,0.500228 0.466121,0.500227 0.466121,1.421101 z m -0.693498,-0.545703 q -0.0038,-0.560862 -0.28422,-0.86782 -0.276641,-0.306958 -0.845082,-0.306958 -0.57223,0 -0.913294,0.337275 -0.337275,0.337275 -0.38275,0.837503 z"
         id="path1074" />
      <path
         d="m 31.185362,53.011391 q 0,0.57981 -0.48128,0.951191 -0.47749,0.371381 -1.307413,0.371381 -0.469911,0 -0.86403,-0.109899 -0.390329,-0.113688 -0.655602,-0.246324 v -0.799606 h 0.0379 q 0.337275,0.253903 0.750342,0.405487 0.413067,0.147795 0.792027,0.147795 0.469911,0 0.735184,-0.151584 0.265272,-0.151584 0.265272,-0.47749 0,-0.250114 -0.144005,-0.378961 -0.144005,-0.128846 -0.553282,-0.219797 -0.151585,-0.03411 -0.397909,-0.07958 -0.242535,-0.04548 -0.443384,-0.09853 -0.557071,-0.147795 -0.792027,-0.432015 -0.231166,-0.28801 -0.231166,-0.704867 0,-0.261482 0.106109,-0.492648 0.109899,-0.231166 0.329696,-0.413067 0.212218,-0.178112 0.538124,-0.280431 0.329695,-0.106109 0.735183,-0.106109 0.37896,0 0.7655,0.09474 0.390329,0.09095 0.648022,0.223587 v 0.76171 h -0.0379 q -0.272851,-0.200849 -0.663181,-0.337274 -0.390329,-0.140216 -0.7655,-0.140216 -0.390329,0 -0.659391,0.151585 -0.269062,0.147794 -0.269062,0.443383 0,0.261483 0.162953,0.394119 0.159164,0.132636 0.515387,0.216008 0.197059,0.04548 0.439594,0.09095 0.246324,0.04548 0.409277,0.08337 0.496438,0.113688 0.7655,0.39033 0.269062,0.28043 0.269062,0.742762 z"
         id="path1076" />
    </g>
    <g
       aria-label="Bloom-Filter"
       id="text50912"
       style="font-size:7.76111px;line-height:1.25;stroke-width:0.264583">
      <path
         d="m 8.4022599,75.138247 q 0,0.420646 -0.1591634,0.742763 -0.1591634,0.322116 -0.4282253,0.530544 -0.3183268,0.250114 -0.7010768,0.356223 -0.3789605,0.106109 -0.9663492,0.106109 H 4.1465341 v -5.642721 h 1.6712155 q 0.6177056,0 0.9246635,0.04547 0.306958,0.04548 0.5873887,0.189481 0.3107476,0.162953 0.4509629,0.420646 0.1402154,0.253903 0.1402154,0.610126 0,0.401698 -0.2046386,0.685918 -0.2046387,0.280431 -0.5457031,0.450963 v 0.03032 q 0.5722303,0.117478 0.9019259,0.504018 0.3296956,0.38275 0.3296956,0.970138 z M 7.1403216,72.595423 q 0,-0.204639 -0.068213,-0.344854 Q 7.0038958,72.110353 6.8523117,72.023192 6.6742002,71.920873 6.4202968,71.898136 6.1663933,71.871608 5.7912224,71.871608 H 4.8968758 v 1.62953 h 0.9701387 q 0.3524332,0 0.5608615,-0.03411 0.2084282,-0.0379 0.3865396,-0.151584 0.1781114,-0.113689 0.2501139,-0.2918 0.075792,-0.181901 0.075792,-0.428225 z m 0.4812797,2.573141 q 0,-0.341064 -0.1023193,-0.541913 Q 7.4169627,74.425802 7.1479008,74.285586 6.9659998,74.190846 6.7045171,74.164319 6.446824,74.134002 6.0754427,74.134002 H 4.8968758 v 2.099441 h 0.9928763 q 0.4926486,0 0.8071858,-0.04926 0.3145371,-0.05305 0.5153862,-0.18948 0.2122178,-0.147795 0.3107475,-0.337275 0.09853,-0.18948 0.09853,-0.488859 z"
         id="path1079" />
      <path
         d="M 10.13032,76.873886 H 9.417874 v -5.896624 h 0.712446 z"
         id="path1081" />
      <path
         d="m 15.147756,74.759287 q 0,1.034562 -0.530545,1.633319 -0.530545,0.598758 -1.421102,0.598758 -0.898136,0 -1.42868,-0.598758 -0.526756,-0.598757 -0.526756,-1.633319 0,-1.034562 0.526756,-1.63332 0.530544,-0.602547 1.42868,-0.602547 0.890557,0 1.421102,0.602547 0.530545,0.598758 0.530545,1.63332 z m -0.735184,0 q 0,-0.822344 -0.322116,-1.220253 -0.322116,-0.401698 -0.894347,-0.401698 -0.579809,0 -0.901925,0.401698 -0.318327,0.397909 -0.318327,1.220253 0,0.795817 0.322116,1.208884 0.322117,0.409277 0.898136,0.409277 0.568441,0 0.890557,-0.405488 0.325906,-0.409277 0.325906,-1.212673 z"
         id="path1083" />
      <path
         d="m 19.858234,74.759287 q 0,1.034562 -0.530544,1.633319 -0.530545,0.598758 -1.421102,0.598758 -0.898136,0 -1.428681,-0.598758 -0.526755,-0.598757 -0.526755,-1.633319 0,-1.034562 0.526755,-1.63332 0.530545,-0.602547 1.428681,-0.602547 0.890557,0 1.421102,0.602547 0.530544,0.598758 0.530544,1.63332 z m -0.735183,0 q 0,-0.822344 -0.322116,-1.220253 -0.322117,-0.401698 -0.894347,-0.401698 -0.579809,0 -0.901926,0.401698 -0.318326,0.397909 -0.318326,1.220253 0,0.795817 0.322116,1.208884 0.322116,0.409277 0.898136,0.409277 0.568441,0 0.890557,-0.405488 0.325906,-0.409277 0.325906,-1.212673 z"
         id="path1085" />
      <path
         d="m 27.138064,76.873886 h -0.712446 v -2.410188 q 0,-0.272852 -0.02653,-0.526755 -0.02274,-0.253904 -0.102319,-0.405488 -0.08716,-0.162953 -0.250114,-0.246324 -0.162953,-0.08337 -0.469911,-0.08337 -0.299379,0 -0.598757,0.151585 -0.299379,0.147794 -0.598758,0.37896 0.01137,0.08716 0.01895,0.204639 0.0076,0.113688 0.0076,0.227376 v 2.709567 h -0.712445 v -2.410188 q 0,-0.280431 -0.02653,-0.530545 -0.02274,-0.253903 -0.102319,-0.405488 -0.08716,-0.162953 -0.250114,-0.242534 -0.162953,-0.08337 -0.469911,-0.08337 -0.291799,0 -0.587388,0.144005 -0.2918,0.144005 -0.5836,0.367592 v 3.16053 h -0.712445 v -4.232988 h 0.712445 v 0.469911 q 0.333486,-0.276641 0.663181,-0.432015 0.333485,-0.155374 0.708656,-0.155374 0.432015,0 0.731394,0.181901 0.303168,0.181901 0.450963,0.504018 0.432015,-0.363802 0.788238,-0.522966 0.356222,-0.162953 0.76171,-0.162953 0.697287,0 1.026983,0.424436 0.333485,0.420646 0.333485,1.178567 z"
         id="path1087" />
      <path
         d="M 30.753348,74.747918 H 28.388634 V 74.062 h 2.364714 z"
         id="path1089" />
      <path
         d="M 35.694992,71.898136 H 32.84142 v 1.591633 h 2.451874 V 74.15674 H 32.84142 v 2.717146 h -0.750342 v -5.642721 h 3.603914 z"
         id="path1091" />
      <path
         d="m 37.260097,71.932242 h -0.803396 v -0.738973 h 0.803396 z m -0.04548,4.941644 h -0.712446 v -4.232988 h 0.712446 z"
         id="path1093" />
      <path
         d="m 39.344379,76.873886 h -0.712446 v -5.896624 h 0.712446 z"
         id="path1095" />
      <path
         d="m 42.952082,76.83599 q -0.200849,0.05306 -0.439594,0.08716 -0.234956,0.03411 -0.420647,0.03411 -0.648022,0 -0.985297,-0.348643 Q 40.76927,76.25997 40.76927,75.49068 v -2.251025 h -0.48128 v -0.598757 h 0.48128 v -1.216463 h 0.712445 v 1.216463 h 1.470367 v 0.598757 h -1.470367 v 1.928909 q 0,0.333485 0.01516,0.522966 0.01516,0.18569 0.106109,0.348643 0.08337,0.151584 0.227376,0.223587 0.147794,0.06821 0.447173,0.06821 0.174322,0 0.363802,-0.04927 0.18948,-0.05306 0.272852,-0.08716 h 0.0379 z"
         id="path1097" />
      <path
         d="m 47.355604,74.831289 h -3.118845 q 0,0.39033 0.117478,0.682129 0.117478,0.28801 0.322116,0.473701 0.19706,0.181901 0.466122,0.272851 0.272851,0.09095 0.598757,0.09095 0.432015,0 0.867819,-0.170532 0.439595,-0.174322 0.625285,-0.341065 h 0.0379 v 0.776869 q -0.360012,0.151584 -0.735183,0.253904 -0.375171,0.102319 -0.788238,0.102319 -1.05351,0 -1.644688,-0.568441 -0.591178,-0.57223 -0.591178,-1.621951 0,-1.038351 0.564651,-1.648477 0.56844,-0.610127 1.493104,-0.610127 0.85645,0 1.318782,0.500228 0.466122,0.500228 0.466122,1.421102 z m -0.693498,-0.545703 q -0.0038,-0.560861 -0.28422,-0.867819 -0.276642,-0.306958 -0.845082,-0.306958 -0.57223,0 -0.913295,0.337275 -0.337275,0.337275 -0.38275,0.837502 z"
         id="path1099" />
      <path
         d="m 51.076995,73.417767 h -0.0379 q -0.159163,-0.0379 -0.310747,-0.05306 -0.147795,-0.01895 -0.352433,-0.01895 -0.329696,0 -0.636654,0.147795 -0.306958,0.144005 -0.591178,0.375171 v 3.005156 h -0.712446 v -4.232988 h 0.712446 v 0.625285 q 0.424435,-0.341065 0.746552,-0.48128 0.325906,-0.144005 0.663181,-0.144005 0.18569,0 0.269062,0.01137 0.08337,0.0076 0.250113,0.03411 z"
         id="path1101" />
    </g>
    <path
       style="fill:none;stroke:#000000;stroke-width:0.264583px;stroke-linecap:butt;stroke-linejoin:miter;stroke-opacity:1"
       d="m 55,80.103376 c -0.02294,1.295858 -0.04587,2.591457 16.351144,3.14995 C 87.74816,83.811819 120.56354,83.633475 137.24152,82.98572 153.9195,82.337965 154.45972,81.220736 155,80.103376"
       id="path1003" />
    <path
       style="fill:none;stroke:#000000;stroke-width:0.264583px;stroke-linecap:butt;stroke-linejoin:miter;stroke-opacity:1;marker-end:"
       d="m 104.15525,83.645231 v 2.853568"
       id="path1120" />
    <g
       aria-label="m"
       id="text2682"
       style="font-size:7.76111px;line-height:1.25;stroke-width:0.264583">
      <path
         d="m 107.28807,91.849243 h -0.71244 v -2.410188 q 0,-0.272852 -0.0265,-0.526755 -0.0227,-0.253904 -0.10232,-0.405488 -0.0872,-0.162953 -0.25011,-0.246324 -0.16295,-0.08337 -0.46991,-0.08337 -0.29938,0 -0.59876,0.151585 -0.29938,0.147794 -0.59876,0.37896 0.0114,0.08716 0.019,0.204639 0.008,0.113688 0.008,0.227376 v 2.709567 h -0.71245 v -2.410188 q 0,-0.280431 -0.0265,-0.530545 -0.0227,-0.253903 -0.10232,-0.405488 -0.0872,-0.162953 -0.25012,-0.242534 -0.16295,-0.08337 -0.46991,-0.08337 -0.2918,0 -0.58739,0.144005 -0.2918,0.144005 -0.58359,0.367592 v 3.16053 h -0.71245 v -4.232988 h 0.71245 v 0.469911 q 0.33348,-0.276641 0.66318,-0.432015 0.33348,-0.155374 0.70865,-0.155374 0.43202,0 0.7314,0.181901 0.30316,0.181901 0.45096,0.504018 0.43201,-0.363802 0.78824,-0.522966 0.35622,-0.162953 0.76171,-0.162953 0.69728,0 1.02698,0.424436 0.33348,0.420646 0.33348,1.178567 z"
         id="path1104" />
    </g>
  </g>
</svg>
