<?xml version="1.0" encoding="UTF-8" standalone="no"?>
<!-- Created with Inkscape (http://www.inkscape.org/) -->

<svg
   width="210mm"
   height="297mm"
   viewBox="0 0 210 297"
   version="1.1"
   id="svg5"
   inkscape:version="1.1.2 (b8e25be833, 2022-02-05)"
   sodipodi:docname="IntrusionDetection.svg"
   xmlns:inkscape="http://www.inkscape.org/namespaces/inkscape"
   xmlns:sodipodi="http://sodipodi.sourceforge.net/DTD/sodipodi-0.dtd"
   xmlns="http://www.w3.org/2000/svg"
   xmlns:svg="http://www.w3.org/2000/svg">
  <sodipodi:namedview
     id="namedview7"
     pagecolor="#ffffff"
     bordercolor="#666666"
     borderopacity="1.0"
     inkscape:pageshadow="2"
     inkscape:pageopacity="0.0"
     inkscape:pagecheckerboard="0"
     inkscape:document-units="mm"
     showgrid="false"
     inkscape:zoom="1.1253621"
     inkscape:cx="415.86615"
     inkscape:cy="274.57829"
     inkscape:window-width="1920"
     inkscape:window-height="1017"
     inkscape:window-x="-1928"
     inkscape:window-y="-8"
     inkscape:window-maximized="1"
     inkscape:current-layer="layer1" />
  <defs
     id="defs2">
    <inkscape:path-effect
       effect="spiro"
       id="path-effect28222"
       is_visible="true"
       lpeversion="1" />
    <inkscape:perspective
       sodipodi:type="inkscape:persp3d"
       inkscape:vp_x="0 : 148.5 : 1"
       inkscape:vp_y="0 : 1000 : 0"
       inkscape:vp_z="210 : 148.5 : 1"
       inkscape:persp3d-origin="105 : 99 : 1"
       id="perspective7776" />
    <marker
       style="overflow:visible;"
       id="Arrow2Lend"
       refX="0.0"
       refY="0.0"
       orient="auto"
       inkscape:stockid="Arrow2Lend"
       inkscape:isstock="true">
      <path
         transform="scale(1.1) rotate(180) translate(1,0)"
         d="M 8.7185878,4.0337352 L -2.2072895,0.016013256 L 8.7185884,-4.0017078 C 6.9730900,-1.6296469 6.9831476,1.6157441 8.7185878,4.0337352 z "
         style="stroke:context-stroke;fill-rule:evenodd;fill:context-stroke;stroke-width:0.62500000;stroke-linejoin:round;"
         id="path7129" />
    </marker>
    <marker
       style="overflow:visible"
       id="Arrow1Lstart"
       refX="0.0"
       refY="0.0"
       orient="auto"
       inkscape:stockid="Arrow1Lstart"
       inkscape:isstock="true">
      <path
         transform="scale(0.8) translate(12.5,0)"
         style="fill-rule:evenodd;fill:context-stroke;stroke:context-stroke;stroke-width:1.0pt"
         d="M 0.0,0.0 L 5.0,-5.0 L -12.5,0.0 L 5.0,5.0 L 0.0,0.0 z "
         id="path7108" />
    </marker>
    <inkscape:path-effect
       effect="spiro"
       id="path-effect7026"
       is_visible="true"
       lpeversion="1" />
    <inkscape:path-effect
       effect="spiro"
       id="path-effect1366"
       is_visible="true"
       lpeversion="1" />
    <inkscape:path-effect
       effect="bspline"
       id="path-effect1182"
       is_visible="true"
       lpeversion="1"
       weight="33.333333"
       steps="2"
       helper_size="0"
       apply_no_weight="true"
       apply_with_weight="true"
       only_selected="false" />
    <inkscape:path-effect
       effect="spiro"
       id="path-effect1145"
       is_visible="true"
       lpeversion="1" />
    <inkscape:path-effect
       effect="spiro"
       id="path-effect1108"
       is_visible="true"
       lpeversion="1" />
    <inkscape:path-effect
       effect="spiro"
       id="path-effect1071"
       is_visible="true"
       lpeversion="1" />
    <inkscape:path-effect
       effect="bspline"
       id="path-effect966"
       is_visible="true"
       lpeversion="1"
       weight="33.333333"
       steps="2"
       helper_size="0"
       apply_no_weight="true"
       apply_with_weight="true"
       only_selected="false" />
    <inkscape:path-effect
       effect="spiro"
       id="path-effect929"
       is_visible="true"
       lpeversion="1" />
    <inkscape:path-effect
       effect="bspline"
       id="path-effect892"
       is_visible="true"
       lpeversion="1"
       weight="33.333333"
       steps="2"
       helper_size="0"
       apply_no_weight="true"
       apply_with_weight="true"
       only_selected="false" />
    <marker
       style="overflow:visible"
       id="Arrow1Lstart-2"
       refX="0"
       refY="0"
       orient="auto"
       inkscape:stockid="Arrow1Lstart"
       inkscape:isstock="true">
      <path
         transform="matrix(0.8,0,0,0.8,10,0)"
         style="fill:context-stroke;fill-rule:evenodd;stroke:context-stroke;stroke-width:1pt"
         d="M 0,0 5,-5 -12.5,0 5,5 Z"
         id="path40779-2" />
    </marker>
    <marker
       style="overflow:visible"
       id="Arrow1Lstart-2-4"
       refX="0"
       refY="0"
       orient="auto"
       inkscape:stockid="Arrow1Lstart"
       inkscape:isstock="true">
      <path
         transform="matrix(0.8,0,0,0.8,10,0)"
         style="fill:context-stroke;fill-rule:evenodd;stroke:context-stroke;stroke-width:1pt"
         d="M 0,0 5,-5 -12.5,0 5,5 Z"
         id="path40779-2-0" />
    </marker>
    <inkscape:path-effect
       effect="spiro"
       id="path-effect28222-8"
       is_visible="true"
       lpeversion="1" />
    <inkscape:path-effect
       effect="spiro"
       id="path-effect28222-8-0"
       is_visible="true"
       lpeversion="1" />
    <inkscape:path-effect
       effect="spiro"
       id="path-effect28222-8-6"
       is_visible="true"
       lpeversion="1" />
  </defs>
  <g
     inkscape:label="Ebene 1"
     inkscape:groupmode="layer"
     id="layer1">
    <path
       style="fill:none;stroke:#000000;stroke-width:0.171965px;stroke-linecap:butt;stroke-linejoin:miter;stroke-opacity:1"
       d="m 16.311996,25.966967 c 1.30855,2.070868 2.066654,4.439762 3.238364,6.591016 0.585855,1.075627 1.28082,2.102481 2.160577,2.95467 0.879757,0.85219 1.953903,1.525801 3.142571,1.821213 0.975276,0.242379 1.999934,0.225567 2.994967,0.08478 0.995032,-0.140791 1.968191,-0.402788 2.942681,-0.648308 0.97449,-0.245519 1.957951,-0.475895 2.960057,-0.551356 1.002106,-0.07546 2.030175,0.0093 2.965508,0.376777 1.006365,0.395419 1.857045,1.09484 2.7432,1.7144 0.886156,0.61956 1.871294,1.182818 2.951144,1.238042 0.75829,0.03878 1.513754,-0.179917 2.188859,-0.527394 0.675104,-0.347478 1.277542,-0.820156 1.852691,-1.315848 1.150299,-0.991384 2.263832,-2.119289 3.709082,-2.585421 1.015287,-0.327457 2.108763,-0.296666 3.156729,-0.496175 0.523982,-0.09975 1.042624,-0.260049 1.497426,-0.538732 0.454802,-0.278683 0.843797,-0.6835 1.040187,-1.179423 0.243681,-0.615344 0.171416,-1.323729 -0.08353,-1.934491 -0.254949,-0.610761 -0.678671,-1.136198 -1.136751,-1.613891 -0.45808,-0.477694 -0.955966,-0.916945 -1.397299,-1.410152 -0.441333,-0.493208 -0.829977,-1.050629 -1.020471,-1.684459 -0.258296,-0.85943 -0.133758,-1.780031 -0.04512,-2.673048 0.04432,-0.446509 0.0791,-0.895812 0.05083,-1.343624 -0.02827,-0.447812 -0.121535,-0.89632 -0.322058,-1.297723 -0.205048,-0.410461 -0.518942,-0.762679 -0.889046,-1.033873 -0.370104,-0.271194 -0.795394,-0.46282 -1.237698,-0.584844 -0.884609,-0.244046 -1.822395,-0.210916 -2.733304,-0.09985 -0.910909,0.111069 -1.813206,0.298074 -2.728979,0.35681 -0.915774,0.05874 -1.862579,-0.01799 -2.692425,-0.409713 -0.80064,-0.377936 -1.445825,-1.02765 -1.965066,-1.744761 -0.519242,-0.717111 -0.926384,-1.507593 -1.369499,-2.274085 -0.443114,-0.766491 -0.930968,-1.520123 -1.579598,-2.122733 -0.64863,-0.602611 -1.477695,-1.047552 -2.361942,-1.091901 -0.876404,-0.04396 -1.723923,0.301648 -2.506359,0.698902 -0.782436,0.397253 -1.546424,0.857243 -2.397103,1.072562 -1.305639,0.330476 -2.681156,0.05434 -4.026335,0.120686 -0.67259,0.03317 -1.352129,0.156805 -1.948387,0.469781 -0.596257,0.312976 -1.103833,0.832464 -1.301381,1.476243 -0.183804,0.59899 -0.09036,1.24218 -0.03661,1.866427 0.02687,0.312124 0.04332,0.626857 0.009,0.938251 -0.03431,0.311394 -0.121377,0.621054 -0.288752,0.885873 -0.154716,0.24479 -0.374884,0.44531 -0.624491,0.592127 -0.249607,0.146818 -0.528143,0.241069 -0.81288,0.293829 -0.569475,0.10552 -1.155652,0.04695 -1.729721,-0.02974 -0.574069,-0.07669 -1.150935,-0.17145 -1.729093,-0.137244 -0.578157,0.03421 -1.168803,0.21108 -1.589039,0.609625 -0.346998,0.329087 -0.553953,0.790419 -0.618439,1.264283 -0.06449,0.473865 0.0069,0.959586 0.157109,1.413613 0.300439,0.908053 0.899466,1.680308 1.410388,2.488877 z"
       id="path1364" />
    <g
       aria-label="Internet"
       id="text2778"
       style="font-size:7.05556px;line-height:1.25;stroke-width:0.264583">
      <path
         d="m 22.717115,28.918468 h -2.025717 v -0.523654 h 0.671794 v -4.082441 h -0.671794 v -0.523655 h 2.025717 v 0.523655 h -0.671794 v 4.082441 h 0.671794 z"
         id="path948" />
      <path
         d="M 27.044158,28.918468 H 26.39648 v -2.191082 q 0,-0.265272 -0.03101,-0.496094 -0.03101,-0.234266 -0.113689,-0.36518 -0.08613,-0.144694 -0.248047,-0.213596 -0.161919,-0.07235 -0.420302,-0.07235 -0.265272,0 -0.55466,0.130914 -0.289388,0.130913 -0.554661,0.334174 v 2.873211 h -0.647678 v -3.848174 h 0.647678 v 0.427192 q 0.303169,-0.251492 0.627008,-0.392741 0.323839,-0.141249 0.664904,-0.141249 0.623562,0 0.950847,0.375516 0.327284,0.375516 0.327284,1.081761 z"
         id="path950" />
      <path
         d="m 30.28944,28.884017 q -0.18259,0.04823 -0.399631,0.07924 -0.213596,0.03101 -0.382406,0.03101 -0.589112,0 -0.895726,-0.316949 -0.306613,-0.316949 -0.306613,-1.016304 V 25.61462 h -0.437528 v -0.544326 h 0.437528 v -1.105876 h 0.647678 v 1.105876 h 1.336698 v 0.544326 h -1.336698 v 1.753555 q 0,0.303168 0.01378,0.475423 0.01378,0.16881 0.09646,0.316949 0.07579,0.137804 0.206706,0.203261 0.134359,0.06201 0.406522,0.06201 0.158474,0 0.330729,-0.04479 0.172255,-0.04823 0.248047,-0.07924 h 0.03445 z"
         id="path952" />
      <path
         d="m 34.292643,27.061561 h -2.835315 q 0,0.354845 0.106798,0.620117 0.106798,0.261828 0.292833,0.430638 0.179145,0.165364 0.423747,0.248047 0.248047,0.08268 0.544325,0.08268 0.392741,0 0.788928,-0.155029 0.399631,-0.158475 0.568441,-0.310059 h 0.03445 v 0.706245 q -0.327284,0.137804 -0.668349,0.230821 -0.341065,0.09302 -0.71658,0.09302 -0.957738,0 -1.495173,-0.516765 -0.537435,-0.520209 -0.537435,-1.474501 0,-0.943957 0.513319,-1.498618 0.516765,-0.554661 1.357369,-0.554661 0.778592,0 1.198894,0.454753 0.423747,0.454753 0.423747,1.291912 z M 33.66219,26.565467 q -0.0034,-0.509875 -0.258382,-0.788928 -0.251492,-0.279053 -0.768257,-0.279053 -0.52021,0 -0.830269,0.306614 -0.306613,0.306614 -0.347954,0.761367 z"
         id="path954" />
      <path
         d="m 37.67573,25.776539 h -0.03445 q -0.144694,-0.03445 -0.282498,-0.04823 -0.134359,-0.01722 -0.320394,-0.01722 -0.299724,0 -0.578777,0.134358 -0.279053,0.130914 -0.537435,0.341065 v 2.731962 h -0.647678 v -3.848174 h 0.647678 v 0.568441 q 0.385851,-0.310058 0.678684,-0.437527 0.296279,-0.130914 0.602892,-0.130914 0.16881,0 0.244602,0.01034 0.07579,0.0069 0.227377,0.03101 z"
         id="path956" />
      <path
         d="m 41.503233,28.918468 h -0.647678 v -2.191082 q 0,-0.265272 -0.03101,-0.496094 -0.03101,-0.234266 -0.113689,-0.36518 -0.08613,-0.144694 -0.248047,-0.213596 -0.161919,-0.07235 -0.420302,-0.07235 -0.265272,0 -0.55466,0.130914 -0.289388,0.130913 -0.554661,0.334174 v 2.873211 h -0.647678 v -3.848174 h 0.647678 v 0.427192 q 0.303169,-0.251492 0.627008,-0.392741 0.323839,-0.141249 0.664904,-0.141249 0.623562,0 0.950847,0.375516 0.327284,0.375516 0.327284,1.081761 z"
         id="path958" />
      <path
         d="M 45.971526,27.061561 H 43.13621 q 0,0.354845 0.106798,0.620117 0.106798,0.261828 0.292833,0.430638 0.179146,0.165364 0.423748,0.248047 0.248047,0.08268 0.544325,0.08268 0.392741,0 0.788927,-0.155029 0.399632,-0.158475 0.568441,-0.310059 h 0.03445 v 0.706245 q -0.327284,0.137804 -0.668349,0.230821 -0.341064,0.09302 -0.71658,0.09302 -0.957737,0 -1.495172,-0.516765 -0.537436,-0.520209 -0.537436,-1.474501 0,-0.943957 0.51332,-1.498618 0.516765,-0.554661 1.357369,-0.554661 0.778592,0 1.198894,0.454753 0.423747,0.454753 0.423747,1.291912 z m -0.630453,-0.496094 q -0.0034,-0.509875 -0.258383,-0.788928 -0.251492,-0.279053 -0.768256,-0.279053 -0.52021,0 -0.830269,0.306614 -0.306614,0.306614 -0.347955,0.761367 z"
         id="path960" />
      <path
         d="m 48.951534,28.884017 q -0.18259,0.04823 -0.399631,0.07924 -0.213596,0.03101 -0.382406,0.03101 -0.589112,0 -0.895726,-0.316949 -0.306613,-0.316949 -0.306613,-1.016304 V 25.61462 H 46.52963 v -0.544326 h 0.437528 v -1.105876 h 0.647678 v 1.105876 h 1.336698 v 0.544326 h -1.336698 v 1.753555 q 0,0.303168 0.01378,0.475423 0.01378,0.16881 0.09646,0.316949 0.07579,0.137804 0.206706,0.203261 0.134359,0.06201 0.406522,0.06201 0.158474,0 0.330729,-0.04479 0.172255,-0.04823 0.248047,-0.07924 h 0.03445 z"
         id="path962" />
    </g>
    <path
       style="fill:#000000;fill-opacity:1;stroke:#090000;stroke-width:0.310584;stroke-linecap:butt;stroke-linejoin:miter;stroke-miterlimit:4;stroke-dasharray:none;stroke-opacity:1;marker-start:url(#Arrow1Lstart-2)"
       d="M 70.79901,27.130154 57.688381,26.901257"
       id="path40183-3"
       sodipodi:nodetypes="cc" />
    <path
       style="fill:#000000;fill-opacity:1;stroke:#090000;stroke-width:0.310584;stroke-linecap:butt;stroke-linejoin:miter;stroke-miterlimit:4;stroke-dasharray:none;stroke-opacity:1;marker-start:url(#Arrow1Lstart-2-4)"
       d="m 129.92284,46.63752 0.0555,-10.808825"
       id="path40183-3-1"
       sodipodi:nodetypes="cc" />
    <path
       id="rect7842"
       style="opacity:1;vector-effect:none;fill-opacity:0.126812;fill-rule:evenodd;stroke:#090000;stroke-width:0.248311;stop-color:#000000;stop-opacity:1"
       d="M 73.581139,20.916609 H 96.333185 V 34.804342 H 73.581139 Z" />
    <g
       aria-label="Inhalt"
       id="text12370"
       style="font-size:7.05556px;line-height:1.25;stroke-width:0.264583">
      <path
         d="m 76.85125,30.094017 h -2.025718 v -0.523655 h 0.671794 v -4.082441 h -0.671794 v -0.523654 h 2.025718 v 0.523654 h -0.671794 v 4.082441 h 0.671794 z"
         id="path966" />
      <path
         d="m 81.178292,30.094017 h -0.647678 v -2.191082 q 0,-0.265273 -0.03101,-0.496094 -0.03101,-0.234267 -0.113688,-0.365181 -0.08613,-0.144694 -0.248047,-0.213596 -0.16192,-0.07235 -0.420302,-0.07235 -0.265273,0 -0.554661,0.130914 -0.289388,0.130914 -0.554661,0.334175 v 2.873211 h -0.647678 v -3.848174 h 0.647678 v 0.427192 q 0.303169,-0.251492 0.627008,-0.392741 0.323839,-0.141249 0.664904,-0.141249 0.623563,0 0.950847,0.375516 0.327284,0.375515 0.327284,1.08176 z"
         id="path968" />
      <path
         d="M 85.643139,30.094017 H 84.99546 v -2.191082 q 0,-0.265273 -0.031,-0.496094 -0.03101,-0.234267 -0.113689,-0.365181 -0.08613,-0.144694 -0.248047,-0.213596 -0.161919,-0.07235 -0.420302,-0.07235 -0.265272,0 -0.55466,0.130914 -0.289389,0.130914 -0.554661,0.334175 v 2.873211 h -0.647678 v -5.360572 h 0.647678 v 1.93959 q 0.303169,-0.251492 0.627008,-0.392741 0.323839,-0.141249 0.664904,-0.141249 0.623562,0 0.950847,0.375516 0.327284,0.375515 0.327284,1.08176 z"
         id="path970" />
      <path
         d="M 89.880609,30.094017 H 89.236376 V 29.68405 q -0.08613,0.05857 -0.234267,0.165365 -0.144694,0.103353 -0.282498,0.165365 -0.16192,0.07924 -0.37207,0.130913 -0.210151,0.05512 -0.492649,0.05512 -0.52021,0 -0.881945,-0.34451 -0.361736,-0.344509 -0.361736,-0.8785 0,-0.437527 0.186036,-0.706245 0.18948,-0.272162 0.537435,-0.427192 0.3514,-0.155029 0.844049,-0.210151 0.492649,-0.05512 1.057645,-0.08268 v -0.09991 q 0,-0.220486 -0.07924,-0.36518 -0.07579,-0.144694 -0.220486,-0.227377 -0.137804,-0.07924 -0.330729,-0.106798 -0.192926,-0.02756 -0.403077,-0.02756 -0.254937,0 -0.568441,0.0689 -0.313504,0.06546 -0.647678,0.192926 h -0.03445 v -0.658014 q 0.18948,-0.05168 0.54777,-0.113688 0.358291,-0.06201 0.706246,-0.06201 0.406521,0 0.706245,0.0689 0.303168,0.06546 0.523654,0.227377 0.217042,0.158474 0.33073,0.409966 0.113688,0.251492 0.113688,0.623563 z M 89.236376,29.146615 V 28.07519 q -0.296279,0.01722 -0.699355,0.05168 -0.399631,0.03445 -0.633898,0.09991 -0.279053,0.07924 -0.451308,0.248047 -0.172255,0.165365 -0.172255,0.458198 0,0.330729 0.199816,0.499539 0.199816,0.165365 0.609782,0.165365 0.341065,0 0.623563,-0.130914 0.282498,-0.134359 0.523655,-0.320394 z"
         id="path972" />
      <path
         d="m 91.782302,30.094017 h -0.647678 v -5.360572 h 0.647678 z"
         id="path974" />
      <path
         d="m 95.062036,30.059566 q -0.18259,0.04823 -0.399631,0.07924 -0.213596,0.03101 -0.382406,0.03101 -0.589112,0 -0.895725,-0.316949 -0.306614,-0.316949 -0.306614,-1.016304 v -2.046388 h -0.437527 v -0.544325 h 0.437527 v -1.105876 h 0.647678 v 1.105876 h 1.336698 v 0.544325 h -1.336698 v 1.753555 q 0,0.303169 0.01378,0.475424 0.01378,0.168809 0.09646,0.316949 0.07579,0.137803 0.206705,0.20326 0.134359,0.06201 0.406522,0.06201 0.158474,0 0.330729,-0.04479 0.172255,-0.04823 0.248047,-0.07924 h 0.03445 z"
         id="path976" />
    </g>
    <path
       id="rect7842-2"
       style="vector-effect:none;fill-opacity:0.126812;fill-rule:evenodd;stroke:#090000;stroke-width:0.248311;stop-color:#000000"
       d="M 96.333183,20.916611 H 119.08523 V 34.804344 H 96.333183 Z" />
    <g
       aria-label="Inhalt"
       id="text12370-4"
       style="font-size:7.05556px;line-height:1.25;stroke-width:0.264583">
      <path
         d="m 99.603294,30.094017 h -2.025717 v -0.523655 h 0.671794 v -4.082441 h -0.671794 v -0.523654 h 2.025717 v 0.523654 H 98.9315 v 4.082441 h 0.671794 z"
         id="path980" />
      <path
         d="m 103.93034,30.094017 h -0.64768 v -2.191082 q 0,-0.265273 -0.031,-0.496094 -0.031,-0.234267 -0.11369,-0.365181 -0.0861,-0.144694 -0.24804,-0.213596 -0.16192,-0.07235 -0.4203,-0.07235 -0.26528,0 -0.55467,0.130914 -0.28938,0.130914 -0.55466,0.334175 v 2.873211 h -0.64767 v -3.848174 h 0.64767 v 0.427192 q 0.30317,-0.251492 0.62701,-0.392741 0.32384,-0.141249 0.66491,-0.141249 0.62356,0 0.95084,0.375516 0.32729,0.375515 0.32729,1.08176 z"
         id="path982" />
      <path
         d="m 108.39518,30.094017 h -0.64767 v -2.191082 q 0,-0.265273 -0.031,-0.496094 -0.031,-0.234267 -0.11369,-0.365181 -0.0861,-0.144694 -0.24805,-0.213596 -0.16192,-0.07235 -0.4203,-0.07235 -0.26527,0 -0.55466,0.130914 -0.28939,0.130914 -0.55466,0.334175 v 2.873211 h -0.64768 v -5.360572 h 0.64768 v 1.93959 q 0.30317,-0.251492 0.62701,-0.392741 0.32384,-0.141249 0.6649,-0.141249 0.62356,0 0.95085,0.375516 0.32728,0.375515 0.32728,1.08176 z"
         id="path984" />
      <path
         d="m 112.63265,30.094017 h -0.64423 V 29.68405 q -0.0861,0.05857 -0.23427,0.165365 -0.14469,0.103353 -0.28249,0.165365 -0.16192,0.07924 -0.37207,0.130913 -0.21016,0.05512 -0.49265,0.05512 -0.52021,0 -0.88195,-0.34451 -0.36173,-0.344509 -0.36173,-0.8785 0,-0.437527 0.18603,-0.706245 0.18948,-0.272162 0.53744,-0.427192 0.3514,-0.155029 0.84405,-0.210151 0.49264,-0.05512 1.05764,-0.08268 v -0.09991 q 0,-0.220486 -0.0792,-0.36518 -0.0758,-0.144694 -0.22048,-0.227377 -0.13781,-0.07924 -0.33073,-0.106798 -0.19293,-0.02756 -0.40308,-0.02756 -0.25494,0 -0.56844,0.0689 -0.3135,0.06546 -0.64768,0.192926 h -0.0345 v -0.658014 q 0.18948,-0.05168 0.54777,-0.113688 0.35829,-0.06201 0.70625,-0.06201 0.40652,0 0.70624,0.0689 0.30317,0.06546 0.52366,0.227377 0.21704,0.158474 0.33073,0.409966 0.11368,0.251492 0.11368,0.623563 z m -0.64423,-0.947402 V 28.07519 q -0.29628,0.01722 -0.69935,0.05168 -0.39964,0.03445 -0.6339,0.09991 -0.27906,0.07924 -0.45131,0.248047 -0.17226,0.165365 -0.17226,0.458198 0,0.330729 0.19982,0.499539 0.19982,0.165365 0.60978,0.165365 0.34107,0 0.62357,-0.130914 0.28249,-0.134359 0.52365,-0.320394 z"
         id="path986" />
      <path
         d="m 114.53435,30.094017 h -0.64768 v -5.360572 h 0.64768 z"
         id="path988" />
      <path
         d="m 117.81408,30.059566 q -0.18259,0.04823 -0.39963,0.07924 -0.2136,0.03101 -0.38241,0.03101 -0.58911,0 -0.89572,-0.316949 -0.30662,-0.316949 -0.30662,-1.016304 v -2.046388 h -0.43752 v -0.544325 h 0.43752 v -1.105876 h 0.64768 v 1.105876 h 1.3367 v 0.544325 h -1.3367 v 1.753555 q 0,0.303169 0.0138,0.475424 0.0138,0.168809 0.0965,0.316949 0.0758,0.137803 0.2067,0.20326 0.13436,0.06201 0.40652,0.06201 0.15848,0 0.33073,-0.04479 0.17226,-0.04823 0.24805,-0.07924 h 0.0345 z"
         id="path990" />
    </g>
    <path
       id="rect7842-8"
       style="vector-effect:none;fill-opacity:0.126812;fill-rule:evenodd;stroke:#090000;stroke-width:0.248311;stop-color:#000000"
       d="m 119.08523,20.916611 h 22.75204 v 13.887733 h -22.75204 z" />
    <g
       aria-label="Virus"
       id="text12370-45"
       style="font-size:7.05556px;line-height:1.25;stroke-width:0.264583">
      <path
         d="m 126.17869,24.964268 -1.86724,5.129751 h -0.90951 l -1.86724,-5.129751 h 0.73036 l 1.60886,4.513078 1.60886,-4.513078 z"
         style="fill:#ff0000"
         id="path994" />
      <path
         d="m 127.60152,25.601612 h -0.73036 v -0.671795 h 0.73036 z m -0.0413,4.492407 h -0.64768 v -3.848174 h 0.64768 z"
         style="fill:#ff0000"
         id="path996" />
      <path
         d="m 131.24299,26.95209 h -0.0344 q -0.1447,-0.03445 -0.2825,-0.04823 -0.13436,-0.01722 -0.3204,-0.01722 -0.29972,0 -0.57877,0.134359 -0.27906,0.130913 -0.53744,0.341064 v 2.731963 h -0.64768 v -3.848174 h 0.64768 v 0.568441 q 0.38585,-0.310059 0.67869,-0.437527 0.29628,-0.130914 0.60289,-0.130914 0.16881,0 0.2446,0.01034 0.0758,0.0069 0.22738,0.03101 z"
         style="fill:#ff0000"
         id="path998" />
      <path
         d="m 135.04293,30.094019 h -0.64768 v -0.427192 q -0.32728,0.258382 -0.62701,0.396186 -0.29972,0.137804 -0.66145,0.137804 -0.60634,0 -0.94396,-0.368625 -0.33762,-0.372071 -0.33762,-1.088651 v -2.497696 h 0.64768 v 2.191082 q 0,0.292833 0.0276,0.502984 0.0276,0.206706 0.11713,0.354845 0.093,0.151585 0.24116,0.220487 0.14814,0.0689 0.43064,0.0689 0.25149,0 0.54777,-0.130913 0.29972,-0.130914 0.5581,-0.334175 v -2.873211 h 0.64768 z"
         style="fill:#ff0000"
         id="path1000" />
      <path
         d="m 139.0668,28.984697 q 0,0.5271 -0.43752,0.86472 -0.43409,0.33762 -1.18856,0.33762 -0.42719,0 -0.78548,-0.09991 -0.35485,-0.103353 -0.59601,-0.223932 v -0.726915 h 0.0344 q 0.30662,0.230821 0.68213,0.368625 0.37552,0.134359 0.72003,0.134359 0.42719,0 0.66835,-0.137804 0.24116,-0.137804 0.24116,-0.434082 0,-0.227377 -0.13092,-0.34451 -0.13091,-0.117133 -0.50298,-0.199816 -0.13781,-0.031 -0.36174,-0.07235 -0.22048,-0.04134 -0.40307,-0.08957 -0.50643,-0.134359 -0.72003,-0.392741 -0.21015,-0.261828 -0.21015,-0.640789 0,-0.237711 0.0965,-0.447862 0.0999,-0.210151 0.29973,-0.375516 0.19292,-0.161919 0.4892,-0.254937 0.29972,-0.09646 0.66835,-0.09646 0.34451,0 0.69591,0.08613 0.35484,0.08268 0.58911,0.20326 v 0.692465 h -0.0344 q -0.24805,-0.18259 -0.60289,-0.306614 -0.35485,-0.127468 -0.69591,-0.127468 -0.35485,0 -0.59945,0.137804 -0.2446,0.134358 -0.2446,0.403076 0,0.237712 0.14814,0.35829 0.14469,0.120579 0.46853,0.196371 0.17915,0.04134 0.39963,0.08268 0.22393,0.04134 0.37207,0.07579 0.45131,0.103353 0.69591,0.354845 0.2446,0.254938 0.2446,0.675239 z"
         style="fill:#ff0000"
         id="path1002" />
    </g>
    <path
       id="rect7842-6"
       style="vector-effect:none;fill-opacity:0.126812;fill-rule:evenodd;stroke:#090000;stroke-width:0.248311;stop-color:#000000"
       d="m 141.83728,20.916611 h 22.75205 v 13.887733 h -22.75205 z" />
    <path
       id="rect7842-6-9"
       style="fill-opacity:0.13;fill-rule:evenodd;stroke:#090000;stroke-width:0.248;stop-color:#000000"
       d="m 164.58932,20.916613 h 22.75205 v 13.887733 h -22.75205 z" />
    <g
       aria-label="Inhalt"
       id="text12370-9"
       style="font-size:7.05556px;line-height:1.25;stroke-width:0.264583">
      <path
         d="m 145.10741,30.094021 h -2.02572 v -0.523655 h 0.67179 v -4.082441 h -0.67179 V 24.96427 h 2.02572 v 0.523655 h -0.6718 v 4.082441 h 0.6718 z"
         style="fill:#006e00"
         id="path1007" />
      <path
         d="m 149.43445,30.094021 h -0.64768 v -2.191082 q 0,-0.265273 -0.031,-0.496094 -0.031,-0.234267 -0.11368,-0.365181 -0.0861,-0.144694 -0.24805,-0.213596 -0.16192,-0.07235 -0.4203,-0.07235 -0.26527,0 -0.55466,0.130914 -0.28939,0.130914 -0.55466,0.334174 v 2.873212 h -0.64768 v -3.848174 h 0.64768 v 0.427192 q 0.30316,-0.251492 0.627,-0.392741 0.32384,-0.141249 0.66491,-0.141249 0.62356,0 0.95084,0.375515 0.32729,0.375516 0.32729,1.081761 z"
         style="fill:#006e00"
         id="path1009" />
      <path
         d="m 153.8993,30.094021 h -0.64768 v -2.191082 q 0,-0.265273 -0.031,-0.496094 -0.031,-0.234267 -0.11369,-0.365181 -0.0861,-0.144694 -0.24804,-0.213596 -0.16192,-0.07235 -0.42031,-0.07235 -0.26527,0 -0.55466,0.130914 -0.28938,0.130914 -0.55466,0.334174 v 2.873212 h -0.64768 v -5.360572 h 0.64768 v 1.93959 q 0.30317,-0.251492 0.62701,-0.392741 0.32384,-0.141249 0.6649,-0.141249 0.62357,0 0.95085,0.375515 0.32729,0.375516 0.32729,1.081761 z"
         style="fill:#006e00"
         id="path1011" />
      <path
         d="m 158.13677,30.094021 h -0.64424 v -0.409967 q -0.0861,0.05857 -0.23426,0.165365 -0.1447,0.103353 -0.2825,0.165365 -0.16192,0.07924 -0.37207,0.130913 -0.21015,0.05512 -0.49265,0.05512 -0.52021,0 -0.88195,-0.34451 -0.36173,-0.34451 -0.36173,-0.8785 0,-0.437527 0.18603,-0.706245 0.18948,-0.272163 0.53744,-0.427192 0.3514,-0.155029 0.84405,-0.210151 0.49265,-0.05512 1.05764,-0.08268 v -0.09991 q 0,-0.220486 -0.0792,-0.36518 -0.0758,-0.144695 -0.22049,-0.227377 -0.1378,-0.07924 -0.33073,-0.106798 -0.19293,-0.02756 -0.40308,-0.02756 -0.25493,0 -0.56844,0.0689 -0.3135,0.06546 -0.64768,0.192926 h -0.0345 v -0.658014 q 0.18948,-0.05168 0.54777,-0.113688 0.35829,-0.06201 0.70625,-0.06201 0.40652,0 0.70624,0.0689 0.30317,0.06546 0.52366,0.227376 0.21704,0.158475 0.33073,0.409967 0.11369,0.251492 0.11369,0.623563 z m -0.64424,-0.947402 v -1.071425 q -0.29628,0.01722 -0.69935,0.05168 -0.39963,0.03445 -0.6339,0.09991 -0.27905,0.07924 -0.45131,0.248047 -0.17225,0.165365 -0.17225,0.458198 0,0.330729 0.19981,0.499539 0.19982,0.165365 0.60979,0.165365 0.34106,0 0.62356,-0.130914 0.2825,-0.134359 0.52365,-0.320394 z"
         style="fill:#006e00"
         id="path1013" />
      <path
         d="m 160.03846,30.094021 h -0.64768 v -5.360572 h 0.64768 z"
         style="fill:#006e00"
         id="path1015" />
      <path
         d="m 163.31819,30.05957 q -0.18259,0.04823 -0.39963,0.07924 -0.21359,0.03101 -0.3824,0.03101 -0.58912,0 -0.89573,-0.316949 -0.30661,-0.316949 -0.30661,-1.016304 v -2.046388 h -0.43753 v -0.544325 h 0.43753 V 25.13997 h 0.64768 v 1.105877 h 1.33669 v 0.544325 h -1.33669 v 1.753555 q 0,0.303168 0.0138,0.475423 0.0138,0.16881 0.0965,0.316949 0.0758,0.137804 0.2067,0.203261 0.13436,0.06201 0.40653,0.06201 0.15847,0 0.33073,-0.04479 0.17225,-0.04823 0.24804,-0.07924 h 0.0344 z"
         style="fill:#006e00"
         id="path1017" />
    </g>
    <g
       aria-label="Inhalt"
       id="text12370-9-0"
       style="font-size:7.05556px;line-height:1.25;stroke-width:0.264583">
      <path
         d="m 168.01297,30.07575 h -2.02572 v -0.523655 h 0.6718 v -4.08244 h -0.6718 V 24.946 h 2.02572 v 0.523655 h -0.67179 v 4.08244 h 0.67179 z"
         style="fill:#006e00"
         id="path1020" />
      <path
         d="m 172.34001,30.07575 h -0.64768 v -2.191082 q 0,-0.265272 -0.031,-0.496094 -0.031,-0.234267 -0.11369,-0.36518 -0.0861,-0.144694 -0.24805,-0.213596 -0.16192,-0.07235 -0.4203,-0.07235 -0.26527,0 -0.55466,0.130913 -0.28939,0.130914 -0.55466,0.334175 v 2.873211 h -0.64768 v -3.848174 h 0.64768 v 0.427192 q 0.30317,-0.251492 0.62701,-0.392741 0.32384,-0.141249 0.6649,-0.141249 0.62356,0 0.95085,0.375516 0.32728,0.375515 0.32728,1.081761 z"
         style="fill:#006e00"
         id="path1022" />
      <path
         d="m 176.80486,30.07575 h -0.64768 v -2.191082 q 0,-0.265272 -0.031,-0.496094 -0.031,-0.234267 -0.11368,-0.36518 -0.0861,-0.144694 -0.24805,-0.213596 -0.16192,-0.07235 -0.4203,-0.07235 -0.26527,0 -0.55466,0.130913 -0.28939,0.130914 -0.55466,0.334175 v 2.873211 h -0.64768 v -5.360572 h 0.64768 v 1.93959 q 0.30316,-0.251492 0.627,-0.392741 0.32384,-0.141249 0.66491,-0.141249 0.62356,0 0.95084,0.375516 0.32729,0.375515 0.32729,1.081761 z"
         style="fill:#006e00"
         id="path1024" />
      <path
         d="m 181.04233,30.07575 h -0.64423 v -0.409966 q -0.0861,0.05857 -0.23427,0.165364 -0.14469,0.103353 -0.2825,0.165365 -0.16192,0.07924 -0.37207,0.130914 -0.21015,0.05512 -0.49265,0.05512 -0.52021,0 -0.88194,-0.344509 -0.36174,-0.34451 -0.36174,-0.8785 0,-0.437528 0.18604,-0.706245 0.18948,-0.272163 0.53743,-0.427192 0.3514,-0.15503 0.84405,-0.210151 0.49265,-0.05512 1.05765,-0.08268 v -0.09991 q 0,-0.220486 -0.0792,-0.36518 -0.0758,-0.144694 -0.22049,-0.227376 -0.1378,-0.07924 -0.33073,-0.106798 -0.19292,-0.02756 -0.40307,-0.02756 -0.25494,0 -0.56844,0.0689 -0.31351,0.06546 -0.64768,0.192925 h -0.0344 v -0.658013 q 0.18948,-0.05168 0.54777,-0.113689 0.35829,-0.06201 0.70624,-0.06201 0.40652,0 0.70625,0.0689 0.30317,0.06546 0.52365,0.227376 0.21704,0.158474 0.33073,0.409967 0.11369,0.251492 0.11369,0.623562 z m -0.64423,-0.947402 v -1.071425 q -0.29628,0.01723 -0.69936,0.05168 -0.39963,0.03445 -0.6339,0.09991 -0.27905,0.07924 -0.4513,0.248047 -0.17226,0.165365 -0.17226,0.458198 0,0.33073 0.19982,0.49954 0.19981,0.165364 0.60978,0.165364 0.34106,0 0.62356,-0.130913 0.2825,-0.134359 0.52366,-0.320395 z"
         style="fill:#006e00"
         id="path1026" />
      <path
         d="m 182.94402,30.07575 h -0.64768 v -5.360572 h 0.64768 z"
         style="fill:#006e00"
         id="path1028" />
      <path
         d="m 186.22376,30.041299 q -0.18259,0.04823 -0.39963,0.07924 -0.2136,0.03101 -0.38241,0.03101 -0.58911,0 -0.89573,-0.316949 -0.30661,-0.316949 -0.30661,-1.016304 v -2.046388 h -0.43753 v -0.544326 h 0.43753 V 25.1217 h 0.64768 v 1.105876 h 1.3367 v 0.544326 h -1.3367 v 1.753554 q 0,0.303169 0.0138,0.475424 0.0138,0.16881 0.0965,0.316949 0.0758,0.137804 0.20671,0.203261 0.13436,0.06201 0.40652,0.06201 0.15847,0 0.33073,-0.04479 0.17225,-0.04823 0.24805,-0.07924 h 0.0344 z"
         style="fill:#006e00"
         id="path1030" />
    </g>
    <path
       style="fill:none;stroke:#000000;stroke-width:0.26458299;stroke-linecap:butt;stroke-linejoin:miter;stroke-opacity:1;stroke-miterlimit:4;stroke-dasharray:1.58749792,1.58749792;stroke-dashoffset:0"
       d="m 187.34137,20.916612 10.62083,0.0081"
       id="path28220" />
    <path
       style="fill:none;stroke:#000000;stroke-width:0.264583;stroke-linecap:butt;stroke-linejoin:miter;stroke-miterlimit:4;stroke-dasharray:1.5875, 1.5875;stroke-dashoffset:0;stroke-opacity:1"
       d="m 187.34137,34.804344 10.62083,0.0081"
       id="path28220-1" />
    <g
       id="g39934"
       transform="translate(0,-1.5875)">
      <path
         id="rect27926"
         style="opacity:1;vector-effect:none;fill:#ffffff;fill-rule:evenodd;stroke:#090000;stroke-width:0.198894;stop-color:#000000;stop-opacity:1"
         d="M 73.554359,50.912167 H 187.31458 V 64.799902 H 73.554359 Z" />
      <g
         id="g39924"
         transform="translate(0,-15.345837)">
        <path
           id="rect28634"
           style="opacity:1;vector-effect:none;fill:#ffffff;fill-rule:evenodd;stroke:#000000;stroke-width:0.0875951;stop-color:#000000;stop-opacity:1"
           d="M 73.516228,66.143196 H 87.480633 V 80.107601 H 73.516228 Z" />
        <path
           id="rect28634-2"
           style="vector-effect:none;fill:#ffffff;fill-rule:evenodd;stroke:#000000;stroke-width:0.0875951;stop-color:#000000"
           d="M 87.480637,66.143196 H 101.44504 V 80.107601 H 87.480637 Z" />
        <path
           id="rect28634-2-9"
           style="vector-effect:none;fill:#ffffff;fill-rule:evenodd;stroke:#000000;stroke-width:0.0875951;stop-color:#000000"
           d="m 159.38577,66.181328 h 13.96441 v 13.964405 h -13.96441 z" />
        <path
           id="rect28634-2-3"
           style="vector-effect:none;fill:#ffffff;fill-rule:evenodd;stroke:#000000;stroke-width:0.0875951;stop-color:#000000"
           d="m 173.35017,66.181328 h 13.96441 v 13.964405 h -13.96441 z" />
        <g
           aria-label="Bloom-Filter"
           id="text31844"
           style="font-size:8.46667px;line-height:1.25;stroke-width:0.264583">
          <path
             d="m 109.38784,74.046951 q 0,0.458887 -0.17363,0.810287 -0.17364,0.3514 -0.46716,0.578776 -0.34726,0.272852 -0.76481,0.388607 -0.41341,0.115755 -1.0542,0.115755 h -2.18281 v -6.155699 h 1.82314 q 0.67386,0 1.00873,0.04961 0.33486,0.04961 0.64078,0.206705 0.339,0.177767 0.49196,0.458887 0.15297,0.276986 0.15297,0.665593 0,0.438216 -0.22325,0.748275 -0.22324,0.305925 -0.59531,0.49196 v 0.03307 q 0.62425,0.128157 0.98392,0.549837 0.35967,0.417546 0.35967,1.058334 z m -1.37666,-2.773992 q 0,-0.223242 -0.0744,-0.376205 -0.0744,-0.152962 -0.23977,-0.248046 -0.19431,-0.111622 -0.47129,-0.136426 -0.27699,-0.02894 -0.68627,-0.02894 h -0.97565 v 1.77767 h 1.05834 q 0.38447,0 0.61184,-0.03721 0.22738,-0.04134 0.42168,-0.165365 0.19431,-0.124023 0.27286,-0.318327 0.0827,-0.198437 0.0827,-0.467155 z m 0.52503,2.807065 q 0,-0.37207 -0.11162,-0.591179 -0.11162,-0.219108 -0.40514,-0.37207 -0.19844,-0.103353 -0.48369,-0.132292 -0.28112,-0.03307 -0.68627,-0.03307 h -1.28571 v 2.290301 h 1.08314 q 0.53744,0 0.88057,-0.05374 0.34313,-0.05788 0.56224,-0.206706 0.23151,-0.16123 0.33899,-0.367936 0.10749,-0.206706 0.10749,-0.533301 z"
             id="path1038" />
          <path
             d="m 111.273,75.940376 h -0.77722 v -6.432685 h 0.77722 z"
             id="path1040" />
          <path
             d="m 116.74657,73.633539 q 0,1.128614 -0.57878,1.781805 -0.57878,0.65319 -1.55029,0.65319 -0.97979,0 -1.55857,-0.65319 -0.57464,-0.653191 -0.57464,-1.781805 0,-1.128613 0.57464,-1.781804 0.57878,-0.657324 1.55857,-0.657324 0.97151,0 1.55029,0.657324 0.57878,0.653191 0.57878,1.781804 z m -0.80202,0 q 0,-0.897103 -0.3514,-1.331185 -0.3514,-0.438216 -0.97565,-0.438216 -0.63252,0 -0.98392,0.438216 -0.34727,0.434082 -0.34727,1.331185 0,0.868165 0.3514,1.318784 0.3514,0.446484 0.97979,0.446484 0.62011,0 0.97151,-0.44235 0.35554,-0.446485 0.35554,-1.322918 z"
             id="path1042" />
          <path
             d="m 121.88527,73.633539 q 0,1.128614 -0.57877,1.781805 -0.57878,0.65319 -1.5503,0.65319 -0.97978,0 -1.55856,-0.65319 -0.57464,-0.653191 -0.57464,-1.781805 0,-1.128613 0.57464,-1.781804 0.57878,-0.657324 1.55856,-0.657324 0.97152,0 1.5503,0.657324 0.57877,0.653191 0.57877,1.781804 z m -0.80202,0 q 0,-0.897103 -0.3514,-1.331185 -0.3514,-0.438216 -0.97565,-0.438216 -0.63252,0 -0.98392,0.438216 -0.34726,0.434082 -0.34726,1.331185 0,0.868165 0.3514,1.318784 0.3514,0.446484 0.97978,0.446484 0.62012,0 0.97152,-0.44235 0.35553,-0.446485 0.35553,-1.322918 z"
             id="path1044" />
          <path
             d="m 129.82691,75.940376 h -0.77721 v -2.629298 q 0,-0.297656 -0.0289,-0.574642 -0.0248,-0.276986 -0.11162,-0.44235 -0.0951,-0.177767 -0.27285,-0.268718 -0.17777,-0.09095 -0.51263,-0.09095 -0.3266,0 -0.6532,0.165364 -0.32659,0.161231 -0.65319,0.413412 0.0124,0.09508 0.0207,0.223242 0.008,0.124024 0.008,0.248047 v 2.955893 H 126.069 v -2.629298 q 0,-0.305924 -0.0289,-0.578776 -0.0248,-0.276986 -0.11162,-0.44235 -0.0951,-0.177767 -0.27285,-0.264584 -0.17777,-0.09095 -0.51263,-0.09095 -0.31833,0 -0.64079,0.157096 -0.31833,0.157096 -0.63665,0.401009 v 3.447853 h -0.77722 v -4.617808 h 0.77722 v 0.512631 q 0.3638,-0.301791 0.72347,-0.471289 0.3638,-0.169499 0.77308,-0.169499 0.47128,0 0.79788,0.198437 0.33073,0.198438 0.49196,0.549838 0.47129,-0.396875 0.8599,-0.570508 0.3886,-0.177767 0.83095,-0.177767 0.76068,0 1.12035,0.463021 0.3638,0.458887 0.3638,1.28571 z"
             id="path1046" />
          <path
             d="m 133.77086,73.621137 h -2.57969 v -0.748275 h 2.57969 z"
             id="path1048" />
          <path
             d="m 139.16175,70.512282 h -3.11299 v 1.736328 h 2.67477 v 0.727605 h -2.67477 v 2.964161 h -0.81856 v -6.155699 h 3.93155 z"
             id="path1050" />
          <path
             d="m 140.86914,70.549489 h -0.87644 v -0.806153 h 0.87644 z m -0.0496,5.390887 h -0.77722 v -4.617808 h 0.77722 z"
             id="path1052" />
          <path
             d="m 143.1429,75.940376 h -0.77721 v -6.432685 h 0.77721 z"
             id="path1054" />
          <path
             d="m 147.07858,75.899035 q -0.21911,0.05788 -0.47956,0.09508 -0.25632,0.03721 -0.45889,0.03721 -0.70693,0 -1.07487,-0.380339 -0.36793,-0.380339 -0.36793,-1.219564 v -2.455665 h -0.52504 v -0.653191 h 0.52504 v -1.327051 h 0.77721 v 1.327051 h 1.60404 v 0.653191 h -1.60404 v 2.104265 q 0,0.363802 0.0165,0.570508 0.0165,0.202572 0.11575,0.380339 0.0909,0.165364 0.24805,0.243913 0.16123,0.07441 0.48782,0.07441 0.19017,0 0.39688,-0.05374 0.2067,-0.05788 0.29766,-0.09509 h 0.0413 z"
             id="path1056" />
          <path
             d="m 151.88242,73.712088 h -3.40237 q 0,0.425814 0.12815,0.744141 0.12816,0.314192 0.3514,0.516764 0.21498,0.198438 0.5085,0.297656 0.29766,0.09922 0.65319,0.09922 0.47129,0 0.94671,-0.186035 0.47956,-0.190169 0.68213,-0.37207 h 0.0413 v 0.847493 q -0.39274,0.165365 -0.80202,0.276986 -0.40927,0.111621 -0.85989,0.111621 -1.14929,0 -1.79421,-0.620117 -0.64492,-0.624252 -0.64492,-1.769402 0,-1.132748 0.61598,-1.79834 0.62012,-0.665593 1.62884,-0.665593 0.93431,0 1.43868,0.545703 0.50849,0.545704 0.50849,1.550294 z m -0.75654,-0.595313 q -0.004,-0.611849 -0.31006,-0.946713 -0.30179,-0.334863 -0.92191,-0.334863 -0.62425,0 -0.99632,0.367936 -0.36794,0.367937 -0.41754,0.91364 z"
             id="path1058" />
          <path
             d="m 155.94212,72.170062 h -0.0413 q -0.17363,-0.04134 -0.33899,-0.05788 -0.16124,-0.02067 -0.38448,-0.02067 -0.35967,0 -0.69453,0.161231 -0.33486,0.157096 -0.64492,0.409277 v 3.278354 h -0.77721 v -4.617808 h 0.77721 v 0.68213 q 0.46302,-0.372071 0.81442,-0.525033 0.35553,-0.157097 0.72347,-0.157097 0.20257,0 0.29352,0.0124 0.0909,0.0083 0.27285,0.03721 z"
             id="path1060" />
        </g>
      </g>
    </g>
    <g
       aria-label="?"
       id="text41388"
       style="font-size:10.5833px;line-height:1.25;stroke-width:0.264583">
      <path
         d="m 137.56012,39.960425 q 0,0.506427 -0.18087,0.904334 -0.18087,0.39274 -0.47542,0.69763 -0.28939,0.294555 -0.66662,0.552936 -0.37724,0.258381 -0.80099,0.50126 v 1.162716 h -0.925 v -1.576126 q 0.33589,-0.191202 0.72347,-0.418578 0.39274,-0.227376 0.64078,-0.459919 0.29972,-0.268716 0.46509,-0.552936 0.16536,-0.289387 0.16536,-0.733803 0,-0.583942 -0.3979,-0.868161 -0.39274,-0.289387 -1.01803,-0.289387 -0.5581,0 -1.05936,0.175699 -0.49609,0.175699 -0.78548,0.356566 h -0.0517 V 38.35846 q 0.36174,-0.139525 0.91467,-0.248046 0.55811,-0.113687 1.0542,-0.113687 1.11104,0 1.75183,0.5426 0.64595,0.537434 0.64595,1.421098 z m -2.04121,5.885927 h -1.0542 v -1.09037 h 1.0542 z"
         id="path1063" />
    </g>
  </g>
</svg>
