<?xml version="1.0" encoding="UTF-8" standalone="no"?>
<!-- Created with Inkscape (http://www.inkscape.org/) -->

<svg
   width="210mm"
   height="297mm"
   viewBox="0 0 210 297"
   version="1.1"
   id="svg5"
   inkscape:version="1.1.2 (b8e25be833, 2022-02-05)"
   sodipodi:docname="BFVariableIncrementPathed.svg"
   xmlns:inkscape="http://www.inkscape.org/namespaces/inkscape"
   xmlns:sodipodi="http://sodipodi.sourceforge.net/DTD/sodipodi-0.dtd"
   xmlns="http://www.w3.org/2000/svg"
   xmlns:svg="http://www.w3.org/2000/svg">
  <sodipodi:namedview
     id="namedview7"
     pagecolor="#ffffff"
     bordercolor="#666666"
     borderopacity="1.0"
     inkscape:pageshadow="2"
     inkscape:pageopacity="0.0"
     inkscape:pagecheckerboard="0"
     inkscape:document-units="mm"
     showgrid="false"
     inkscape:snap-grids="true"
     inkscape:zoom="1.4835225"
     inkscape:cx="393.65766"
     inkscape:cy="189.41405"
     inkscape:window-width="1920"
     inkscape:window-height="1017"
     inkscape:window-x="-8"
     inkscape:window-y="-8"
     inkscape:window-maximized="1"
     inkscape:current-layer="layer1">
    <inkscape:grid
       type="xygrid"
       id="grid4182" />
  </sodipodi:namedview>
  <defs
     id="defs2">
    <marker
       style="overflow:visible;"
       id="Arrow1Lend"
       refX="0.0"
       refY="0.0"
       orient="auto"
       inkscape:stockid="Arrow1Lend"
       inkscape:isstock="true">
      <path
         transform="scale(0.8) rotate(180) translate(12.5,0)"
         style="fill-rule:evenodd;fill:context-stroke;stroke:context-stroke;stroke-width:1.0pt;"
         d="M 0.0,0.0 L 5.0,-5.0 L -12.5,0.0 L 5.0,5.0 L 0.0,0.0 z "
         id="path85578" />
    </marker>
    <inkscape:path-effect
       effect="bspline"
       id="path-effect85493"
       is_visible="true"
       lpeversion="1"
       weight="33.333333"
       steps="2"
       helper_size="0"
       apply_no_weight="true"
       apply_with_weight="true"
       only_selected="false" />
    <marker
       style="overflow:visible"
       id="Arrow1Lstart"
       refX="0.0"
       refY="0.0"
       orient="auto"
       inkscape:stockid="Arrow1Lstart"
       inkscape:isstock="true">
      <path
         transform="scale(0.8) translate(12.5,0)"
         style="fill-rule:evenodd;fill:context-stroke;stroke:context-stroke;stroke-width:1.0pt"
         d="M 0.0,0.0 L 5.0,-5.0 L -12.5,0.0 L 5.0,5.0 L 0.0,0.0 z "
         id="path40779" />
    </marker>
    <marker
       style="overflow:visible"
       id="Arrow1Lstart-0"
       refX="0"
       refY="0"
       orient="auto"
       inkscape:stockid="Arrow1Lstart"
       inkscape:isstock="true">
      <path
         transform="matrix(0.8,0,0,0.8,10,0)"
         style="fill:context-stroke;fill-rule:evenodd;stroke:context-stroke;stroke-width:1pt"
         d="M 0,0 5,-5 -12.5,0 5,5 Z"
         id="path40779-4" />
    </marker>
    <marker
       style="overflow:visible"
       id="Arrow1Lstart-5"
       refX="0"
       refY="0"
       orient="auto"
       inkscape:stockid="Arrow1Lstart"
       inkscape:isstock="true">
      <path
         transform="matrix(0.8,0,0,0.8,10,0)"
         style="fill:context-stroke;fill-rule:evenodd;stroke:context-stroke;stroke-width:1pt"
         d="M 0,0 5,-5 -12.5,0 5,5 Z"
         id="path40779-7" />
    </marker>
    <marker
       style="overflow:visible"
       id="Arrow1Lstart-2"
       refX="0"
       refY="0"
       orient="auto"
       inkscape:stockid="Arrow1Lstart"
       inkscape:isstock="true">
      <path
         transform="matrix(0.8,0,0,0.8,10,0)"
         style="fill:context-stroke;fill-rule:evenodd;stroke:context-stroke;stroke-width:1pt"
         d="M 0,0 5,-5 -12.5,0 5,5 Z"
         id="path40779-2" />
    </marker>
    <marker
       style="overflow:visible"
       id="Arrow1Lstart-0-6"
       refX="0"
       refY="0"
       orient="auto"
       inkscape:stockid="Arrow1Lstart"
       inkscape:isstock="true">
      <path
         transform="matrix(0.8,0,0,0.8,10,0)"
         style="fill:context-stroke;fill-rule:evenodd;stroke:context-stroke;stroke-width:1pt"
         d="M 0,0 5,-5 -12.5,0 5,5 Z"
         id="path40779-4-4" />
    </marker>
    <marker
       style="overflow:visible"
       id="Arrow1Lstart-0-5"
       refX="0"
       refY="0"
       orient="auto"
       inkscape:stockid="Arrow1Lstart"
       inkscape:isstock="true">
      <path
         transform="matrix(0.8,0,0,0.8,10,0)"
         style="fill:context-stroke;fill-rule:evenodd;stroke:context-stroke;stroke-width:1pt"
         d="M 0,0 5,-5 -12.5,0 5,5 Z"
         id="path40779-4-41" />
    </marker>
    <marker
       style="overflow:visible"
       id="Arrow1Lstart-0-9"
       refX="0"
       refY="0"
       orient="auto"
       inkscape:stockid="Arrow1Lstart"
       inkscape:isstock="true">
      <path
         transform="matrix(0.8,0,0,0.8,10,0)"
         style="fill:context-stroke;fill-rule:evenodd;stroke:context-stroke;stroke-width:1pt"
         d="M 0,0 5,-5 -12.5,0 5,5 Z"
         id="path40779-4-9" />
    </marker>
    <marker
       style="overflow:visible"
       id="Arrow1Lstart-0-92"
       refX="0"
       refY="0"
       orient="auto"
       inkscape:stockid="Arrow1Lstart"
       inkscape:isstock="true">
      <path
         transform="matrix(0.8,0,0,0.8,10,0)"
         style="fill:context-stroke;fill-rule:evenodd;stroke:context-stroke;stroke-width:1pt"
         d="M 0,0 5,-5 -12.5,0 5,5 Z"
         id="path40779-4-8" />
    </marker>
    <marker
       style="overflow:visible"
       id="Arrow1Lstart-0-0"
       refX="0"
       refY="0"
       orient="auto"
       inkscape:stockid="Arrow1Lstart"
       inkscape:isstock="true">
      <path
         transform="matrix(0.8,0,0,0.8,10,0)"
         style="fill:context-stroke;fill-rule:evenodd;stroke:context-stroke;stroke-width:1pt"
         d="M 0,0 5,-5 -12.5,0 5,5 Z"
         id="path40779-4-6" />
    </marker>
    <marker
       style="overflow:visible"
       id="Arrow1Lstart-0-3"
       refX="0"
       refY="0"
       orient="auto"
       inkscape:stockid="Arrow1Lstart"
       inkscape:isstock="true">
      <path
         transform="matrix(0.8,0,0,0.8,10,0)"
         style="fill:context-stroke;fill-rule:evenodd;stroke:context-stroke;stroke-width:1pt"
         d="M 0,0 5,-5 -12.5,0 5,5 Z"
         id="path40779-4-3" />
    </marker>
    <marker
       style="overflow:visible"
       id="Arrow1Lstart-0-2"
       refX="0"
       refY="0"
       orient="auto"
       inkscape:stockid="Arrow1Lstart"
       inkscape:isstock="true">
      <path
         transform="matrix(0.8,0,0,0.8,10,0)"
         style="fill:context-stroke;fill-rule:evenodd;stroke:context-stroke;stroke-width:1pt"
         d="M 0,0 5,-5 -12.5,0 5,5 Z"
         id="path40779-4-69" />
    </marker>
    <marker
       style="overflow:visible"
       id="Arrow1Lstart-0-8"
       refX="0"
       refY="0"
       orient="auto"
       inkscape:stockid="Arrow1Lstart"
       inkscape:isstock="true">
      <path
         transform="matrix(0.8,0,0,0.8,10,0)"
         style="fill:context-stroke;fill-rule:evenodd;stroke:context-stroke;stroke-width:1pt"
         d="M 0,0 5,-5 -12.5,0 5,5 Z"
         id="path40779-4-5" />
    </marker>
  </defs>
  <g
     inkscape:label="Ebene 1"
     inkscape:groupmode="layer"
     id="layer1">
    <g
       id="g40115"
       transform="translate(30.699226)">
      <path
         id="rect1824"
         style="opacity:1;fill:#ffffff;fill-rule:evenodd;stroke:#000000;stroke-width:0.265;stop-color:#000000;stop-opacity:1"
         d="m 24.300774,69.045044 h 99.999996 v 10 H 24.300774 Z" />
      <path
         id="rect4550"
         style="opacity:1;vector-effect:none;fill:#ffffff;fill-rule:evenodd;stroke:#000000;stroke-width:0.264583;stop-color:#000000;stop-opacity:1"
         d="m 24.300774,69.045044 h 10 v 10 h -10 z" />
      <path
         id="rect4550-5"
         style="vector-effect:none;fill:#ffffff;fill-rule:evenodd;stroke:#000000;stroke-width:0.264583;stop-color:#000000"
         d="m 34.300774,69.045044 h 10 v 10 h -10 z" />
      <path
         id="rect4550-4"
         style="vector-effect:none;fill:#ffffff;fill-rule:evenodd;stroke:#000000;stroke-width:0.264583;stop-color:#000000"
         d="m 44.300774,69.045044 h 10 v 10 h -10 z" />
      <path
         id="rect4550-1"
         style="vector-effect:none;fill:#ffffff;fill-rule:evenodd;stroke:#000000;stroke-width:0.264583;stop-color:#000000"
         d="m 54.300774,69.045044 h 10 v 10 h -10 z" />
      <path
         id="rect4550-0"
         style="vector-effect:none;fill:#ffffff;fill-rule:evenodd;stroke:#000000;stroke-width:0.264583;stop-color:#000000"
         d="m 64.300774,69.045044 h 10 v 10 h -10 z" />
      <path
         id="rect4550-42"
         style="vector-effect:none;fill:#ffffff;fill-rule:evenodd;stroke:#000000;stroke-width:0.264583;stop-color:#000000"
         d="m 74.300774,69.045044 h 10 v 10 h -10 z" />
      <path
         id="rect4550-6"
         style="vector-effect:none;fill:#ffffff;fill-rule:evenodd;stroke:#000000;stroke-width:0.264583;stop-color:#000000"
         d="m 84.300774,69.045044 h 10 v 10 h -10 z" />
      <path
         id="rect4550-2"
         style="vector-effect:none;fill:#ffffff;fill-rule:evenodd;stroke:#000000;stroke-width:0.264583;stop-color:#000000"
         d="m 94.300774,69.045044 h 9.999996 v 10 h -9.999996 z" />
      <path
         id="rect4550-7"
         style="vector-effect:none;fill:#ffffff;fill-rule:evenodd;stroke:#000000;stroke-width:0.264583;stop-color:#000000"
         d="m 104.30077,69.045044 h 10 v 10 h -10 z" />
      <path
         id="rect4550-8"
         style="vector-effect:none;fill:#ffffff;fill-rule:evenodd;stroke:#000000;stroke-width:0.264583;stop-color:#000000"
         d="m 114.30077,69.045044 h 10 v 10 h -10 z" />
    </g>
    <g
       aria-label="x"
       id="text6654"
       style="font-size:7.76111px;line-height:1.25;stroke-width:0.264583">
      <path
         d="m 61.095715,25.860468 h -0.898136 l -1.201304,-1.62574 -1.208884,1.62574 h -0.829924 l 1.652268,-2.11081 -1.637109,-2.122178 h 0.898136 l 1.193725,1.599213 1.197515,-1.599213 h 0.833713 l -1.663636,2.084282 z"
         id="path49773" />
    </g>
    <g
       aria-label="y"
       id="text15800"
       style="font-size:7.76111px;line-height:1.25;stroke-width:0.264583">
      <path
         d="m 107.06533,20.066162 -2.47082,5.794305 h -0.76171 l 0.78824,-1.765955 -1.68638,-4.02835 h 0.77308 l 1.29984,3.137793 1.3112,-3.137793 z"
         id="path49776" />
    </g>
    <g
       aria-label="h1"
       id="text21526"
       style="font-size:7.76111px;line-height:1.25;stroke-width:0.264583">
      <path
         d="m 86.217534,51.738564 h -0.712445 v -2.410189 q 0,-0.291799 -0.03411,-0.545703 -0.03411,-0.257693 -0.125057,-0.401698 -0.09474,-0.159163 -0.272851,-0.234955 -0.178112,-0.07958 -0.462332,-0.07958 -0.2918,0 -0.610126,0.144005 -0.318327,0.144005 -0.610127,0.367591 v 3.160531 h -0.712445 v -5.896625 h 0.712445 v 2.133547 q 0.333485,-0.276641 0.689708,-0.432015 0.356223,-0.155373 0.731394,-0.155373 0.685918,0 1.045931,0.413067 0.360012,0.413066 0.360012,1.189935 z"
         id="path49779" />
      <path
         d="m 89.558449,53.290786 h -1.985373 v -0.374413 h 0.763605 v -2.458317 h -0.763605 v -0.335001 q 0.155184,0 0.332537,-0.02463 0.177354,-0.0271 0.268494,-0.07636 0.113309,-0.06158 0.177353,-0.155184 0.06651,-0.09607 0.07636,-0.256177 h 0.381803 v 3.305672 h 0.748825 z"
         style="font-size:65%;baseline-shift:sub"
         id="path49781" />
    </g>
    <g
       aria-label="h2"
       id="text24476"
       style="font-size:7.76111px;line-height:1.25;stroke-width:0.264583">
      <path
         d="m 125.77596,51.738564 h -0.71245 v -2.410189 q 0,-0.291799 -0.0341,-0.545703 -0.0341,-0.257693 -0.12506,-0.401698 -0.0947,-0.159163 -0.27285,-0.234955 -0.17811,-0.07958 -0.46233,-0.07958 -0.2918,0 -0.61013,0.144005 -0.31833,0.144005 -0.61012,0.367591 v 3.160531 h -0.71245 v -5.896625 h 0.71245 v 2.133547 q 0.33348,-0.276641 0.6897,-0.432015 0.35623,-0.155373 0.7314,-0.155373 0.68592,0 1.04593,0.413067 0.36001,0.413066 0.36001,1.189935 z"
         id="path49784" />
      <path
         d="m 129.32625,53.290786 h -2.48295 v -0.514818 q 0.25864,-0.221692 0.51728,-0.443384 0.26111,-0.221692 0.48526,-0.44092 0.47294,-0.458163 0.64783,-0.726657 0.1749,-0.270957 0.1749,-0.583788 0,-0.285737 -0.18967,-0.445847 -0.18721,-0.162574 -0.52468,-0.162574 -0.22415,0 -0.48525,0.07882 -0.26111,0.07882 -0.5099,0.241398 h -0.0246 v -0.517281 q 0.17489,-0.08621 0.46556,-0.157647 0.29312,-0.07143 0.56654,-0.07143 0.56408,0 0.88431,0.27342 0.32022,0.270956 0.32022,0.736509 0,0.209376 -0.0542,0.391656 -0.0517,0.179816 -0.15519,0.34239 -0.0961,0.152721 -0.22662,0.300516 -0.12809,0.147795 -0.31283,0.327611 -0.26357,0.258641 -0.54438,0.502502 -0.28081,0.241398 -0.52467,0.44831 h 1.97306 z"
         style="font-size:65%;baseline-shift:sub"
         id="path49786" />
    </g>
    <g
       aria-label="z?"
       id="text36590"
       style="font-size:7.76111px;line-height:1.25;stroke-width:0.264583">
      <path
         d="m 150.50351,25.860468 h -3.41823 v -0.526755 l 2.46703,-3.111265 h -2.41397 V 21.62748 h 3.30074 v 0.507807 l -2.4784,3.122634 h 2.54283 z"
         id="path49789" />
      <path
         d="m 154.61902,21.544108 q 0,0.371382 -0.13264,0.663181 -0.13264,0.28801 -0.34864,0.511597 -0.21222,0.216007 -0.48886,0.405488 -0.27664,0.18948 -0.58739,0.367591 v 0.852661 h -0.67834 v -1.155829 q 0.24632,-0.140216 0.53054,-0.306958 0.28801,-0.166743 0.46991,-0.337275 0.2198,-0.197059 0.34107,-0.405488 0.12127,-0.212217 0.12127,-0.538123 0,-0.428226 -0.2918,-0.636654 -0.28801,-0.212218 -0.74656,-0.212218 -0.40927,0 -0.77686,0.128847 -0.36381,0.128846 -0.57602,0.261482 h -0.0379 v -0.773079 q 0.26527,-0.102319 0.67076,-0.181901 0.40928,-0.08337 0.77308,-0.08337 0.81476,0 1.28468,0.397908 0.4737,0.394119 0.4737,1.042141 z m -1.4969,4.31636 h -0.77308 v -0.799607 h 0.77308 z"
         id="path49791" />
    </g>
    <path
       style="fill:#000000;fill-opacity:1;stroke:#fa0000;stroke-width:0.310584;stroke-linecap:butt;stroke-linejoin:miter;stroke-miterlimit:4;stroke-dasharray:none;stroke-opacity:1;marker-start:url(#Arrow1Lstart)"
       d="M 80.862142,45.506056 59.10368,27.465598"
       id="path40183"
       sodipodi:nodetypes="cc" />
    <path
       style="fill:#000000;fill-opacity:1;stroke:#090000;stroke-width:0.291261;stroke-linecap:butt;stroke-linejoin:miter;stroke-miterlimit:4;stroke-dasharray:none;stroke-opacity:1;marker-start:url(#Arrow1Lstart-0)"
       d="M 149.44619,67.439912 125.3692,55.212246"
       id="path40183-4"
       sodipodi:nodetypes="cc" />
    <path
       style="fill:#000000;fill-opacity:1;stroke:#fa0000;stroke-width:0.291261;stroke-linecap:butt;stroke-linejoin:miter;stroke-miterlimit:4;stroke-dasharray:none;stroke-opacity:1;marker-start:url(#Arrow1Lstart-0-6)"
       d="M 118.56961,45.711276 59.10368,27.465598"
       id="path40183-4-1"
       sodipodi:nodetypes="cc" />
    <path
       style="fill:#000000;fill-opacity:1;stroke:#0900ff;stroke-width:0.291261;stroke-linecap:butt;stroke-linejoin:miter;stroke-miterlimit:4;stroke-dasharray:none;stroke-opacity:1;marker-start:url(#Arrow1Lstart-0-5)"
       d="M 122.70345,45.441969 104.6903,27.150469"
       id="path40183-4-8"
       sodipodi:nodetypes="cc" />
    <path
       style="fill:#000000;fill-opacity:1;stroke:#ff0000;stroke-width:0.291261;stroke-linecap:butt;stroke-linejoin:miter;stroke-miterlimit:4;stroke-dasharray:none;stroke-opacity:1;marker-start:url(#Arrow1Lstart-0-92)"
       d="M 80.197115,67.439912 86.439297,55.033898"
       id="path40183-4-26"
       sodipodi:nodetypes="cc" />
    <path
       style="fill:#000000;fill-opacity:1;stroke:#0900ff;stroke-width:0.291261;stroke-linecap:butt;stroke-linejoin:miter;stroke-miterlimit:4;stroke-dasharray:none;stroke-opacity:1;marker-start:url(#Arrow1Lstart-0-0)"
       d="M 109.0895,67.796608 86.439297,55.033898"
       id="path40183-4-9"
       sodipodi:nodetypes="cc" />
    <path
       style="fill:#000000;fill-opacity:1;stroke:#ff0000;stroke-width:0.291261;stroke-linecap:butt;stroke-linejoin:miter;stroke-miterlimit:4;stroke-dasharray:none;stroke-opacity:1;marker-start:url(#Arrow1Lstart-0-3)"
       d="M 109.0895,67.796608 125.3692,55.212246"
       id="path40183-4-5"
       sodipodi:nodetypes="cc" />
    <path
       style="fill:#000000;fill-opacity:1;stroke:#0900f3;stroke-width:0.291261;stroke-linecap:butt;stroke-linejoin:miter;stroke-miterlimit:4;stroke-dasharray:none;stroke-opacity:1;marker-start:url(#Arrow1Lstart-0-2)"
       d="M 119.63969,67.826435 125.3692,55.212246"
       id="path40183-4-3"
       sodipodi:nodetypes="cc" />
    <path
       style="fill:#000000;fill-opacity:1;stroke:#090000;stroke-width:0.291261;stroke-linecap:butt;stroke-linejoin:miter;stroke-miterlimit:4;stroke-dasharray:none;stroke-opacity:1;marker-start:url(#Arrow1Lstart-0-8)"
       d="M 90.747306,46.067972 149.99071,27.328817"
       id="path40183-4-56"
       sodipodi:nodetypes="cc" />
    <path
       style="fill:#000000;fill-opacity:1;stroke:#0900ff;stroke-width:0.310584;stroke-linecap:butt;stroke-linejoin:miter;stroke-miterlimit:4;stroke-dasharray:none;stroke-opacity:1;marker-start:url(#Arrow1Lstart-5)"
       d="M 85.785407,45.190927 104.6903,27.150469"
       id="path40183-7"
       sodipodi:nodetypes="cc" />
    <path
       style="fill:#000000;fill-opacity:1;stroke:#090000;stroke-width:0.310584;stroke-linecap:butt;stroke-linejoin:miter;stroke-miterlimit:4;stroke-dasharray:none;stroke-opacity:1;marker-start:url(#Arrow1Lstart-2)"
       d="m 129.48068,45.190927 20.51003,-17.86211"
       id="path40183-3"
       sodipodi:nodetypes="cc" />
    <g
       aria-label="0"
       id="text46638"
       style="font-size:10.5833px;line-height:1.25;stroke-width:0.265">
      <path
         d="m 62.923645,74.009272 q 0,2.072218 -0.651121,3.043732 -0.645953,0.966346 -2.010207,0.966346 -1.384924,0 -2.02571,-0.981849 -0.635618,-0.981849 -0.635618,-3.017894 0,-2.051548 0.645954,-3.028229 0.645953,-0.981849 2.015374,-0.981849 1.384924,0 2.020542,0.997352 0.640786,0.992184 0.640786,3.002391 z m -1.359086,2.346102 q 0.180867,-0.418577 0.242879,-0.981849 0.06718,-0.568439 0.06718,-1.364253 0,-0.785479 -0.06718,-1.364254 -0.06201,-0.578774 -0.248047,-0.981849 -0.180867,-0.397907 -0.496092,-0.599444 -0.310057,-0.201538 -0.800982,-0.201538 -0.485757,0 -0.80615,0.201538 -0.315225,0.201537 -0.501259,0.609779 -0.1757,0.382405 -0.242879,0.997352 -0.06201,0.614948 -0.06201,1.348751 0,0.80615 0.05684,1.348751 0.05684,0.5426 0.242879,0.971513 0.170532,0.403075 0.480589,0.614948 0.315225,0.211873 0.831988,0.211873 0.485757,0 0.80615,-0.201538 0.320393,-0.201537 0.496092,-0.60978 z"
         id="path49794" />
    </g>
    <g
       aria-label="0"
       id="text46638-4"
       style="font-size:10.5833px;line-height:1.25;stroke-width:0.265">
      <path
         d="m 73.108806,74.009272 q 0,2.072218 -0.65112,3.043732 -0.645954,0.966346 -2.010207,0.966346 -1.384924,0 -2.02571,-0.981849 -0.635618,-0.981849 -0.635618,-3.017894 0,-2.051548 0.645953,-3.028229 0.645954,-0.981849 2.015375,-0.981849 1.384924,0 2.020542,0.997352 0.640785,0.992184 0.640785,3.002391 z m -1.359085,2.346102 q 0.180867,-0.418577 0.242878,-0.981849 0.06718,-0.568439 0.06718,-1.364253 0,-0.785479 -0.06718,-1.364254 -0.06201,-0.578774 -0.248046,-0.981849 -0.180867,-0.397907 -0.496092,-0.599444 -0.310058,-0.201538 -0.800982,-0.201538 -0.485757,0 -0.80615,0.201538 -0.315225,0.201537 -0.50126,0.609779 -0.175699,0.382405 -0.242878,0.997352 -0.06201,0.614948 -0.06201,1.348751 0,0.80615 0.05684,1.348751 0.05684,0.5426 0.242878,0.971513 0.170532,0.403075 0.48059,0.614948 0.315225,0.211873 0.831988,0.211873 0.485757,0 0.806149,-0.201538 0.320393,-0.201537 0.496093,-0.60978 z"
         id="path49797" />
    </g>
    <g
       aria-label="0"
       id="text46638-0"
       style="font-size:10.5833px;line-height:1.25;stroke-width:0.265">
      <path
         d="m 92.905437,74.009272 q 0,2.072218 -0.651121,3.043732 -0.645953,0.966346 -2.010206,0.966346 -1.384924,0 -2.02571,-0.981849 -0.635618,-0.981849 -0.635618,-3.017894 0,-2.051548 0.645953,-3.028229 0.645953,-0.981849 2.015375,-0.981849 1.384924,0 2.020542,0.997352 0.640785,0.992184 0.640785,3.002391 z m -1.359086,2.346102 q 0.180867,-0.418577 0.242879,-0.981849 0.06718,-0.568439 0.06718,-1.364253 0,-0.785479 -0.06718,-1.364254 -0.06201,-0.578774 -0.248046,-0.981849 -0.180867,-0.397907 -0.496092,-0.599444 -0.310058,-0.201538 -0.800982,-0.201538 -0.485757,0 -0.80615,0.201538 -0.315225,0.201537 -0.50126,0.609779 -0.175699,0.382405 -0.242878,0.997352 -0.06201,0.614948 -0.06201,1.348751 0,0.80615 0.05684,1.348751 0.05684,0.5426 0.242878,0.971513 0.170532,0.403075 0.48059,0.614948 0.315225,0.211873 0.831988,0.211873 0.485756,0 0.806149,-0.201538 0.320393,-0.201537 0.496092,-0.60978 z"
         id="path49800" />
    </g>
    <g
       aria-label="0"
       id="text46638-7"
       style="font-size:10.5833px;line-height:1.25;stroke-width:0.265">
      <path
         d="m 103.60632,74.009272 q 0,2.072218 -0.65112,3.043732 -0.64596,0.966346 -2.01021,0.966346 -1.384922,0 -2.025708,-0.981849 -0.635618,-0.981849 -0.635618,-3.017894 0,-2.051548 0.645953,-3.028229 0.645953,-0.981849 2.015373,-0.981849 1.38493,0 2.02054,0.997352 0.64079,0.992184 0.64079,3.002391 z m -1.35909,2.346102 q 0.18087,-0.418577 0.24288,-0.981849 0.0672,-0.568439 0.0672,-1.364253 0,-0.785479 -0.0672,-1.364254 -0.062,-0.578774 -0.24804,-0.981849 -0.18087,-0.397907 -0.4961,-0.599444 -0.31005,-0.201538 -0.80098,-0.201538 -0.48576,0 -0.80615,0.201538 -0.315223,0.201537 -0.501258,0.609779 -0.175699,0.382405 -0.242879,0.997352 -0.06201,0.614948 -0.06201,1.348751 0,0.80615 0.05684,1.348751 0.05684,0.5426 0.242878,0.971513 0.170532,0.403075 0.480586,0.614948 0.31523,0.211873 0.83199,0.211873 0.48576,0 0.80615,-0.201538 0.32039,-0.201537 0.49609,-0.60978 z"
         id="path49803" />
    </g>
    <g
       aria-label="0"
       id="text46638-1"
       style="font-size:10.5833px;line-height:1.25;stroke-width:0.265">
      <path
         d="m 133.03376,74.009272 q 0,2.072218 -0.65112,3.043732 -0.64595,0.966346 -2.0102,0.966346 -1.38493,0 -2.02571,-0.981849 -0.63562,-0.981849 -0.63562,-3.017894 0,-2.051548 0.64595,-3.028229 0.64595,-0.981849 2.01538,-0.981849 1.38492,0 2.02054,0.997352 0.64078,0.992184 0.64078,3.002391 z m -1.35908,2.346102 q 0.18086,-0.418577 0.24288,-0.981849 0.0672,-0.568439 0.0672,-1.364253 0,-0.785479 -0.0672,-1.364254 -0.062,-0.578774 -0.24805,-0.981849 -0.18087,-0.397907 -0.49609,-0.599444 -0.31006,-0.201538 -0.80098,-0.201538 -0.48576,0 -0.80615,0.201538 -0.31523,0.201537 -0.50126,0.609779 -0.1757,0.382405 -0.24288,0.997352 -0.062,0.614948 -0.062,1.348751 0,0.80615 0.0568,1.348751 0.0568,0.5426 0.24288,0.971513 0.17053,0.403075 0.48059,0.614948 0.31522,0.211873 0.83199,0.211873 0.48575,0 0.80615,-0.201538 0.32039,-0.201537 0.49609,-0.60978 z"
         id="path49806" />
    </g>
    <g
       aria-label="8"
       id="text59580"
       style="font-size:10.5833px;line-height:1.25;fill:#ff0000;stroke-width:0.264583">
      <path
         d="m 82.965811,75.730092 q 0,0.997352 -0.780312,1.658808 -0.775144,0.661456 -1.953362,0.661456 -1.250566,0 -1.994704,-0.645953 -0.738971,-0.645954 -0.738971,-1.653641 0,-0.640786 0.372069,-1.157548 0.372069,-0.521931 1.049028,-0.826821 v -0.031 q -0.620115,-0.330728 -0.919837,-0.723468 -0.294555,-0.39274 -0.294555,-0.981849 0,-0.868162 0.713133,-1.446936 0.713132,-0.578774 1.813837,-0.578774 1.15238,0 1.839675,0.552936 0.687294,0.552936 0.687294,1.405595 0,0.52193 -0.32556,1.028357 -0.325561,0.50126 -0.956011,0.78548 v 0.031 q 0.723467,0.310058 1.105872,0.764809 0.382404,0.454751 0.382404,1.157549 z m -1.224727,-3.756865 q 0,-0.552936 -0.428913,-0.878497 -0.423746,-0.330728 -1.085202,-0.330728 -0.651121,0 -1.069699,0.310058 -0.41341,0.310057 -0.41341,0.837155 0,0.37207 0.206705,0.645954 0.211873,0.268716 0.635618,0.480589 0.191202,0.09302 0.547769,0.242878 0.361733,0.149862 0.702797,0.248047 0.511595,-0.341064 0.707965,-0.707965 0.19637,-0.366902 0.19637,-0.847491 z m 0.160196,3.855049 q 0,-0.475421 -0.211873,-0.759641 -0.206705,-0.289387 -0.816485,-0.578774 -0.242878,-0.113688 -0.532265,-0.211873 -0.289387,-0.09818 -0.769977,-0.273884 -0.465086,0.253214 -0.749306,0.687295 -0.279051,0.43408 -0.279051,0.981849 0,0.697629 0.480589,1.15238 0.480589,0.454752 1.21956,0.454752 0.754473,0 1.204057,-0.387572 0.454751,-0.387572 0.454751,-1.064532 z"
         id="path49809" />
    </g>
    <g
       aria-label="20"
       id="text59580-1"
       style="font-size:7.05556px;line-height:1.25;stroke-width:0.265">
      <path
         d="m 109.43217,76.637978 h -4.02732 v -0.847494 q 0.46165,-0.334175 0.92329,-0.709691 0.46509,-0.375515 0.74414,-0.647678 0.41686,-0.403076 0.59256,-0.7028 0.1757,-0.299723 0.1757,-0.592557 0,-0.3514 -0.22738,-0.54088 -0.22393,-0.192925 -0.64768,-0.192925 -0.31695,0 -0.66835,0.130913 -0.34795,0.130914 -0.64768,0.334175 h -0.11024 v -1.140328 q 0.2446,-0.106798 0.72003,-0.213596 0.47887,-0.106798 0.95773,-0.106798 0.96463,0 1.47106,0.406522 0.50643,0.403076 0.50643,1.143772 0,0.485759 -0.2446,0.923286 -0.24116,0.437528 -0.7407,0.902616 -0.3135,0.289388 -0.63045,0.53399 -0.31695,0.241157 -0.45131,0.33762 h 2.30477 z"
         style="font-weight:bold;-inkscape-font-specification:'sans-serif Bold'"
         id="path49812" />
      <path
         d="m 114.41378,74.07138 q 0,0.647678 -0.11713,1.160998 -0.11713,0.509874 -0.36518,0.837158 -0.25494,0.334175 -0.65457,0.50643 -0.39963,0.16881 -0.9853,0.16881 -0.57533,0 -0.98185,-0.172255 -0.40652,-0.172255 -0.65801,-0.509875 -0.25494,-0.337619 -0.36863,-0.837158 -0.11369,-0.502985 -0.11369,-1.150663 0,-0.668349 0.11714,-1.160998 0.11713,-0.492649 0.37207,-0.833714 0.25493,-0.337619 0.66146,-0.506429 0.40652,-0.16881 0.97151,-0.16881 0.58911,0 0.98875,0.1757 0.39963,0.172255 0.65456,0.516765 0.2515,0.337619 0.36518,0.833713 0.11369,0.492649 0.11369,1.140328 z m -1.33325,0 q 0,-0.930177 -0.18259,-1.322918 -0.18259,-0.396186 -0.60634,-0.396186 -0.42374,0 -0.60633,0.396186 -0.18259,0.392741 -0.18259,1.329808 0,0.912951 0.18603,1.316027 0.18604,0.403077 0.60289,0.403077 0.41686,0 0.60289,-0.403077 0.18604,-0.403076 0.18604,-1.322917 z"
         style="font-weight:bold;-inkscape-font-specification:'sans-serif Bold'"
         id="path49814" />
    </g>
    <g
       aria-label="15"
       id="text59580-1-6"
       style="font-size:7.05556px;line-height:1.25;stroke-width:0.265">
      <path
         d="m 119.22725,76.548409 h -3.42443 v -0.895726 h 1.08177 v -2.711292 h -1.08177 v -0.837159 q 0.24805,0 0.47543,-0.02756 0.22737,-0.03101 0.37896,-0.103353 0.17914,-0.08613 0.26872,-0.223932 0.0896,-0.137804 0.10335,-0.344509 h 1.14033 v 4.247805 h 1.05764 z"
         style="font-weight:bold;-inkscape-font-specification:'sans-serif Bold';fill:#0000ff"
         id="path49817" />
      <path
         d="m 124.45691,74.812079 q 0,0.399632 -0.15158,0.744141 -0.14814,0.341065 -0.43409,0.585667 -0.31695,0.261827 -0.73036,0.389296 -0.40996,0.124024 -0.93706,0.124024 -0.61668,-0.0034 -1.04387,-0.09991 -0.42375,-0.09302 -0.69246,-0.210151 v -1.133437 h 0.14469 q 0.31351,0.186035 0.67524,0.310058 0.36174,0.124024 0.72003,0.124024 0.21704,0 0.46853,-0.04823 0.25494,-0.05168 0.40308,-0.182591 0.11713,-0.106798 0.1757,-0.217041 0.062,-0.110243 0.062,-0.341064 0,-0.179146 -0.0827,-0.306614 -0.0792,-0.130914 -0.2067,-0.210151 -0.18604,-0.113688 -0.44786,-0.148139 -0.26183,-0.0379 -0.47543,-0.0379 -0.31006,0 -0.596,0.05512 -0.2825,0.05168 -0.49609,0.103353 h -0.15159 v -2.893882 h 3.64836 v 0.981853 h -2.40468 v 0.837159 q 0.1068,-0.0069 0.26872,-0.01034 0.16537,-0.0069 0.28939,-0.0069 0.42375,0 0.75448,0.08268 0.33417,0.07924 0.57533,0.223932 0.3135,0.18948 0.4892,0.502984 0.1757,0.310059 0.1757,0.782037 z"
         style="font-weight:bold;-inkscape-font-specification:'sans-serif Bold';fill:#0000ff"
         id="path49819" />
    </g>
    <g
       aria-label="0"
       id="text59580-2"
       style="font-size:10.5833px;line-height:1.25;stroke-width:0.264583">
      <path
         d="m 142.69303,74.024775 q 0,2.072218 -0.65112,3.043732 -0.64595,0.966346 -2.0102,0.966346 -1.38493,0 -2.02571,-0.981849 -0.63562,-0.981849 -0.63562,-3.017894 0,-2.051548 0.64595,-3.028229 0.64596,-0.981849 2.01538,-0.981849 1.38492,0 2.02054,0.997352 0.64078,0.992184 0.64078,3.002391 z m -1.35908,2.346102 q 0.18087,-0.418577 0.24288,-0.981849 0.0672,-0.568439 0.0672,-1.364253 0,-0.78548 -0.0672,-1.364254 -0.062,-0.578774 -0.24805,-0.981849 -0.18087,-0.397907 -0.49609,-0.599445 -0.31006,-0.201537 -0.80098,-0.201537 -0.48576,0 -0.80615,0.201537 -0.31523,0.201538 -0.50126,0.60978 -0.1757,0.382405 -0.24288,0.997352 -0.062,0.614948 -0.062,1.348751 0,0.80615 0.0568,1.348751 0.0568,0.5426 0.24288,0.971513 0.17053,0.403075 0.48059,0.614948 0.31522,0.211873 0.83199,0.211873 0.48575,0 0.80615,-0.201538 0.32039,-0.201537 0.49609,-0.60978 z"
         id="path49822" />
    </g>
    <g
       aria-label="0"
       id="text59580-5"
       style="font-size:10.5833px;line-height:1.25;stroke-width:0.264583">
      <path
         d="m 152.50218,74.024775 q 0,2.072218 -0.65112,3.043732 -0.64596,0.966346 -2.01021,0.966346 -1.38492,0 -2.02571,-0.981849 -0.63562,-0.981849 -0.63562,-3.017894 0,-2.051548 0.64596,-3.028229 0.64595,-0.981849 2.01537,-0.981849 1.38492,0 2.02054,0.997352 0.64079,0.992184 0.64079,3.002391 z m -1.35909,2.346102 q 0.18087,-0.418577 0.24288,-0.981849 0.0672,-0.568439 0.0672,-1.364253 0,-0.78548 -0.0672,-1.364254 -0.062,-0.578774 -0.24805,-0.981849 -0.18086,-0.397907 -0.49609,-0.599445 -0.31006,-0.201537 -0.80098,-0.201537 -0.48576,0 -0.80615,0.201537 -0.31522,0.201538 -0.50126,0.60978 -0.1757,0.382405 -0.24288,0.997352 -0.062,0.614948 -0.062,1.348751 0,0.80615 0.0568,1.348751 0.0568,0.5426 0.24288,0.971513 0.17053,0.403075 0.48059,0.614948 0.31523,0.211873 0.83199,0.211873 0.48576,0 0.80615,-0.201538 0.32039,-0.201537 0.49609,-0.60978 z"
         id="path49825" />
    </g>
    <g
       aria-label="+8"
       id="text56738"
       style="font-size:4.93889px;line-height:1.25;stroke-width:0.264583">
      <path
         d="m 79.154933,59.080571 h -1.314304 v 1.314304 h -0.40032 V 59.080571 H 76.126005 V 58.69472 h 1.314304 v -1.314304 h 0.40032 v 1.314304 h 1.314304 z"
         style="fill:#ff0000"
         id="path49828" />
      <path
         d="m 82.507012,59.459187 q 0,0.465433 -0.364147,0.774113 -0.361735,0.308681 -0.911572,0.308681 -0.583599,0 -0.930865,-0.301446 -0.344854,-0.301446 -0.344854,-0.771702 0,-0.299034 0.173633,-0.540191 0.173633,-0.243568 0.489548,-0.38585 v -0.01447 q -0.289388,-0.15434 -0.429259,-0.337619 -0.137459,-0.183279 -0.137459,-0.458198 0,-0.405143 0.332796,-0.675239 0.332796,-0.270095 0.84646,-0.270095 0.53778,0 0.858518,0.258037 0.320738,0.258038 0.320738,0.655947 0,0.243568 -0.151928,0.479901 -0.151929,0.233923 -0.44614,0.366559 v 0.01447 q 0.337619,0.144694 0.516075,0.356912 0.178456,0.212218 0.178456,0.540191 z m -0.571541,-1.753209 q 0,-0.258038 -0.20016,-0.409967 -0.197749,-0.15434 -0.50643,-0.15434 -0.303857,0 -0.499194,0.144694 -0.192925,0.144694 -0.192925,0.390674 0,0.173633 0.09646,0.301446 0.09888,0.125401 0.296623,0.224276 0.08923,0.04341 0.255626,0.113343 0.16881,0.06994 0.327973,0.115755 0.238746,-0.159163 0.330385,-0.330384 0.09164,-0.171222 0.09164,-0.395497 z m 0.07476,1.799029 q 0,-0.221864 -0.09887,-0.3545 -0.09646,-0.135048 -0.381028,-0.270096 -0.113343,-0.05305 -0.248391,-0.09887 -0.135048,-0.04582 -0.359324,-0.127813 -0.217041,0.118166 -0.349677,0.320738 -0.130225,0.202572 -0.130225,0.458198 0,0.325562 0.224276,0.537779 0.224276,0.212218 0.56913,0.212218 0.352089,0 0.561895,-0.180867 0.212218,-0.180868 0.212218,-0.496783 z"
         style="fill:#ff0000"
         id="path49830" />
    </g>
    <g
       aria-label="+12"
       id="text56738-2"
       style="font-size:4.93889px;line-height:1.25;stroke-width:0.264583">
      <path
         d="m 113.15742,57.671594 h -1.3143 v 1.314304 h -0.40032 v -1.314304 h -1.31431 v -0.385851 h 1.31431 v -1.314304 h 0.40032 v 1.314304 h 1.3143 z"
         style="fill:#ff0000"
         id="path49833" />
      <path
         d="m 116.27799,59.05101 h -1.94372 v -0.366558 h 0.74758 v -2.406744 h -0.74758 v -0.327974 q 0.15192,0 0.32556,-0.02412 0.17363,-0.02653 0.26286,-0.07476 0.11093,-0.06029 0.17363,-0.151929 0.0651,-0.09405 0.0748,-0.250803 h 0.37379 v 3.236324 h 0.73312 z"
         style="fill:#ff0000"
         id="path49835" />
      <path
         d="m 119.62283,59.05101 h -2.43086 v -0.504017 q 0.25322,-0.217042 0.50643,-0.434083 0.25563,-0.217041 0.47508,-0.43167 0.46302,-0.448552 0.63424,-0.711413 0.17122,-0.265272 0.17122,-0.571541 0,-0.279742 -0.18569,-0.436494 -0.18328,-0.159163 -0.51366,-0.159163 -0.21945,0 -0.47508,0.07717 -0.25563,0.07717 -0.49919,0.236334 h -0.0241 v -0.50643 q 0.17122,-0.0844 0.45579,-0.15434 0.28697,-0.06994 0.55466,-0.06994 0.55225,0 0.86575,0.267684 0.3135,0.265272 0.3135,0.721058 0,0.204984 -0.053,0.38344 -0.0506,0.176044 -0.15193,0.335207 -0.094,0.149518 -0.22186,0.294212 -0.1254,0.144694 -0.30627,0.320738 -0.25804,0.253215 -0.53296,0.49196 -0.27492,0.236333 -0.51366,0.438905 h 1.93166 z"
         style="fill:#ff0000"
         id="path49837" />
    </g>
    <g
       aria-label="+8"
       id="text64500"
       style="font-size:4.93889px;line-height:1.25;stroke-width:0.264583">
      <path
         d="m 93.422771,63.717622 h -1.314304 v 1.314304 h -0.400321 v -1.314304 h -1.314304 v -0.385851 h 1.314304 v -1.314304 h 0.400321 v 1.314304 h 1.314304 z"
         style="fill:#0000ff"
         id="path49840" />
      <path
         d="m 96.77485,64.096238 q 0,0.465432 -0.364147,0.774113 -0.361735,0.308681 -0.911572,0.308681 -0.5836,0 -0.930865,-0.301446 -0.344855,-0.301446 -0.344855,-0.771702 0,-0.299034 0.173633,-0.540191 0.173633,-0.243568 0.489548,-0.385851 v -0.01447 q -0.289388,-0.154341 -0.429259,-0.33762 -0.137459,-0.183279 -0.137459,-0.458197 0,-0.405144 0.332796,-0.675239 0.332797,-0.270096 0.846461,-0.270096 0.537779,0 0.858518,0.258038 0.320738,0.258038 0.320738,0.655946 0,0.243568 -0.151929,0.479902 -0.151929,0.233922 -0.44614,0.366558 v 0.01447 q 0.33762,0.144694 0.516076,0.356912 0.178456,0.212218 0.178456,0.540191 z m -0.571542,-1.75321 q 0,-0.258037 -0.20016,-0.409966 -0.197748,-0.15434 -0.506429,-0.15434 -0.303858,0 -0.499194,0.144694 -0.192926,0.144694 -0.192926,0.390674 0,0.173632 0.09646,0.301445 0.09887,0.125402 0.296623,0.224276 0.08923,0.04341 0.255626,0.113344 0.168809,0.06994 0.327973,0.115755 0.238745,-0.159163 0.330385,-0.330385 0.09164,-0.171221 0.09164,-0.395497 z m 0.07476,1.79903 q 0,-0.221865 -0.09887,-0.354501 -0.09646,-0.135048 -0.381028,-0.270095 -0.113344,-0.05306 -0.248392,-0.09887 -0.135047,-0.04582 -0.359323,-0.127813 -0.217041,0.118167 -0.349677,0.320739 -0.130225,0.202571 -0.130225,0.458198 0,0.325561 0.224276,0.537779 0.224276,0.212218 0.56913,0.212218 0.352089,0 0.561895,-0.180868 0.212218,-0.180867 0.212218,-0.496782 z"
         style="fill:#0000ff"
         id="path49842" />
    </g>
    <g
       aria-label="+15"
       id="text64500-8"
       style="font-size:4.93889px;line-height:1.25;stroke-width:0.264583">
      <path
         d="m 127.15119,62.481114 h -1.3143 v 1.314305 h -0.40032 v -1.314305 h -1.3143 v -0.38585 h 1.3143 v -1.314305 h 0.40032 v 1.314305 h 1.3143 z"
         style="fill:#0000ff"
         id="path49845" />
      <path
         d="m 130.27176,63.860531 h -1.94372 v -0.366558 h 0.74759 v -2.406745 h -0.74759 v -0.327973 q 0.15193,0 0.32556,-0.02412 0.17363,-0.02653 0.26286,-0.07476 0.11093,-0.06029 0.17364,-0.151929 0.0651,-0.09405 0.0747,-0.250803 h 0.3738 v 3.236324 h 0.73311 z"
         style="fill:#0000ff"
         id="path49847" />
      <path
         d="m 133.58767,62.719859 q 0,0.250803 -0.0916,0.479902 -0.0916,0.229099 -0.2508,0.385851 -0.17364,0.16881 -0.41479,0.260449 -0.23875,0.08923 -0.55466,0.08923 -0.29422,0 -0.56672,-0.0627 -0.27251,-0.06029 -0.46061,-0.147106 v -0.508841 h 0.0338 q 0.19775,0.125402 0.46302,0.21463 0.26527,0.08682 0.5209,0.08682 0.17122,0 0.33038,-0.04823 0.16158,-0.04823 0.28698,-0.16881 0.10611,-0.103697 0.15916,-0.248391 0.0555,-0.144694 0.0555,-0.335208 0,-0.185691 -0.0651,-0.313504 -0.0627,-0.127813 -0.17605,-0.204983 -0.1254,-0.09164 -0.30627,-0.127813 -0.17845,-0.03858 -0.40032,-0.03858 -0.21221,0 -0.40996,0.02894 -0.19534,0.02894 -0.33762,0.05788 v -1.849672 h 2.16076 v 0.422024 h -1.69533 v 0.954981 q 0.1037,-0.0096 0.21222,-0.01447 0.10852,-0.0048 0.1881,-0.0048 0.2918,0 0.51125,0.05064 0.21946,0.04823 0.40274,0.173633 0.19292,0.132636 0.29903,0.342443 0.10611,0.209806 0.10611,0.525721 z"
         style="fill:#0000ff"
         id="path49849" />
    </g>
    <g
       aria-label="+12"
       id="text78786"
       style="font-size:4.93889px;line-height:1.25;stroke-width:0.264583">
      <path
         d="m 140.50666,59.615613 h -1.31431 v 1.314304 h -0.40032 v -1.314304 h -1.3143 v -0.385851 h 1.3143 v -1.314304 h 0.40032 v 1.314304 h 1.31431 z"
         id="path49852" />
      <path
         d="m 143.62722,60.995029 h -1.94372 v -0.366558 h 0.74759 v -2.406744 h -0.74759 v -0.327973 q 0.15193,0 0.32556,-0.02412 0.17364,-0.02653 0.26286,-0.07476 0.11094,-0.06029 0.17364,-0.151929 0.0651,-0.09405 0.0747,-0.250803 h 0.3738 v 3.236323 h 0.73311 z"
         id="path49854" />
      <path
         d="m 146.97207,60.995029 h -2.43086 v -0.504017 q 0.25321,-0.217041 0.50643,-0.434082 0.25562,-0.217041 0.47508,-0.431671 0.46302,-0.448551 0.63424,-0.711412 0.17122,-0.265273 0.17122,-0.571542 0,-0.279741 -0.18569,-0.436493 -0.18328,-0.159164 -0.51366,-0.159164 -0.21946,0 -0.47508,0.07717 -0.25563,0.07717 -0.4992,0.236334 h -0.0241 v -0.506429 q 0.17122,-0.0844 0.45578,-0.154341 0.28698,-0.06994 0.55466,-0.06994 0.55225,0 0.86576,0.267684 0.3135,0.265272 0.3135,0.721059 0,0.204983 -0.0531,0.383439 -0.0506,0.176044 -0.15193,0.335208 -0.0941,0.149517 -0.22187,0.294211 -0.1254,0.144694 -0.30627,0.320738 -0.25803,0.253215 -0.53295,0.49196 -0.27492,0.236334 -0.51367,0.438905 h 1.93167 z"
         id="path49856" />
    </g>
    <path
       style="fill:none;stroke:#000000;stroke-width:0.265;stroke-linecap:butt;stroke-linejoin:miter;stroke-miterlimit:4;stroke-dasharray:none;stroke-opacity:1;marker-end:url(#Arrow1Lend)"
       d="m 86.439297,55.033896 c 5.548899,0.263027 11.097523,0.52604 14.872523,2.653351 3.77499,2.127311 5.7764,6.118454 7.77768,10.109361"
       id="path85491" />
    <g
       aria-label="+14"
       id="text87663"
       style="font-size:4.93889px;line-height:1.25;stroke-width:0.264583">
      <path
         d="m 100.91339,54.44352 h -1.314308 v 1.314305 h -0.40032 V 54.44352 h -1.314304 v -0.38585 h 1.314304 v -1.314305 h 0.40032 v 1.314305 h 1.314308 z"
         id="path49859" />
      <path
         d="m 104.03396,55.822937 h -1.94373 v -0.366558 h 0.74759 v -2.406744 h -0.74759 v -0.327974 q 0.15193,0 0.32556,-0.02411 0.17364,-0.02653 0.26286,-0.07476 0.11094,-0.06029 0.17364,-0.151929 0.0651,-0.09405 0.0748,-0.250803 h 0.37379 v 3.236324 h 0.73312 z"
         id="path49861" />
      <path
         d="m 107.46079,54.81249 h -0.53295 v 1.010447 h -0.46303 V 54.81249 h -1.71944 v -0.55466 l 1.73874,-2.025717 h 0.44373 v 2.194527 h 0.53295 z m -0.99598,-0.38585 v -1.620574 l -1.39147,1.620574 z"
         id="path49863" />
    </g>
  </g>
</svg>
