<?xml version="1.0" encoding="UTF-8" standalone="no"?>
<!-- Created with Inkscape (http://www.inkscape.org/) -->

<svg
   width="210mm"
   height="297mm"
   viewBox="0 0 210 297"
   version="1.1"
   id="svg5"
   inkscape:version="1.1.2 (b8e25be833, 2022-02-05)"
   sodipodi:docname="Webcache.svg"
   xmlns:inkscape="http://www.inkscape.org/namespaces/inkscape"
   xmlns:sodipodi="http://sodipodi.sourceforge.net/DTD/sodipodi-0.dtd"
   xmlns="http://www.w3.org/2000/svg"
   xmlns:svg="http://www.w3.org/2000/svg">
  <sodipodi:namedview
     id="namedview7"
     pagecolor="#ffffff"
     bordercolor="#666666"
     borderopacity="1.0"
     inkscape:pageshadow="2"
     inkscape:pageopacity="0.0"
     inkscape:pagecheckerboard="0"
     inkscape:document-units="mm"
     showgrid="false"
     inkscape:zoom="1.1253621"
     inkscape:cx="415.86615"
     inkscape:cy="368.77019"
     inkscape:window-width="1920"
     inkscape:window-height="1017"
     inkscape:window-x="-1928"
     inkscape:window-y="-8"
     inkscape:window-maximized="1"
     inkscape:current-layer="layer1" />
  <defs
     id="defs2">
    <inkscape:path-effect
       effect="bspline"
       id="path-effect16895"
       is_visible="true"
       lpeversion="1"
       weight="33.333333"
       steps="2"
       helper_size="0"
       apply_no_weight="true"
       apply_with_weight="true"
       only_selected="false" />
    <inkscape:path-effect
       effect="bspline"
       id="path-effect16891"
       is_visible="true"
       lpeversion="1"
       weight="33.333333"
       steps="2"
       helper_size="0"
       apply_no_weight="true"
       apply_with_weight="true"
       only_selected="false" />
    <inkscape:path-effect
       effect="spiro"
       id="path-effect28222"
       is_visible="true"
       lpeversion="1" />
    <inkscape:perspective
       sodipodi:type="inkscape:persp3d"
       inkscape:vp_x="0 : 148.5 : 1"
       inkscape:vp_y="0 : 1000 : 0"
       inkscape:vp_z="210 : 148.5 : 1"
       inkscape:persp3d-origin="105 : 99 : 1"
       id="perspective7776" />
    <marker
       style="overflow:visible;"
       id="Arrow2Lend"
       refX="0.0"
       refY="0.0"
       orient="auto"
       inkscape:stockid="Arrow2Lend"
       inkscape:isstock="true">
      <path
         transform="scale(1.1) rotate(180) translate(1,0)"
         d="M 8.7185878,4.0337352 L -2.2072895,0.016013256 L 8.7185884,-4.0017078 C 6.9730900,-1.6296469 6.9831476,1.6157441 8.7185878,4.0337352 z "
         style="stroke:context-stroke;fill-rule:evenodd;fill:context-stroke;stroke-width:0.62500000;stroke-linejoin:round;"
         id="path7129" />
    </marker>
    <marker
       style="overflow:visible"
       id="Arrow1Lstart"
       refX="0.0"
       refY="0.0"
       orient="auto"
       inkscape:stockid="Arrow1Lstart"
       inkscape:isstock="true">
      <path
         transform="scale(0.8) translate(12.5,0)"
         style="fill-rule:evenodd;fill:context-stroke;stroke:context-stroke;stroke-width:1.0pt"
         d="M 0.0,0.0 L 5.0,-5.0 L -12.5,0.0 L 5.0,5.0 L 0.0,0.0 z "
         id="path7108" />
    </marker>
    <inkscape:path-effect
       effect="spiro"
       id="path-effect7026"
       is_visible="true"
       lpeversion="1" />
    <inkscape:path-effect
       effect="spiro"
       id="path-effect1366"
       is_visible="true"
       lpeversion="1" />
    <inkscape:path-effect
       effect="bspline"
       id="path-effect1182"
       is_visible="true"
       lpeversion="1"
       weight="33.333333"
       steps="2"
       helper_size="0"
       apply_no_weight="true"
       apply_with_weight="true"
       only_selected="false" />
    <inkscape:path-effect
       effect="spiro"
       id="path-effect1145"
       is_visible="true"
       lpeversion="1" />
    <inkscape:path-effect
       effect="spiro"
       id="path-effect1108"
       is_visible="true"
       lpeversion="1" />
    <inkscape:path-effect
       effect="spiro"
       id="path-effect1071"
       is_visible="true"
       lpeversion="1" />
    <inkscape:path-effect
       effect="bspline"
       id="path-effect966"
       is_visible="true"
       lpeversion="1"
       weight="33.333333"
       steps="2"
       helper_size="0"
       apply_no_weight="true"
       apply_with_weight="true"
       only_selected="false" />
    <inkscape:path-effect
       effect="spiro"
       id="path-effect929"
       is_visible="true"
       lpeversion="1" />
    <inkscape:path-effect
       effect="bspline"
       id="path-effect892"
       is_visible="true"
       lpeversion="1"
       weight="33.333333"
       steps="2"
       helper_size="0"
       apply_no_weight="true"
       apply_with_weight="true"
       only_selected="false" />
    <marker
       style="overflow:visible"
       id="Arrow1Lstart-2"
       refX="0"
       refY="0"
       orient="auto"
       inkscape:stockid="Arrow1Lstart"
       inkscape:isstock="true">
      <path
         transform="matrix(0.8,0,0,0.8,10,0)"
         style="fill:context-stroke;fill-rule:evenodd;stroke:context-stroke;stroke-width:1pt"
         d="M 0,0 5,-5 -12.5,0 5,5 Z"
         id="path40779-2" />
    </marker>
    <marker
       style="overflow:visible"
       id="Arrow1Lstart-2-4"
       refX="0"
       refY="0"
       orient="auto"
       inkscape:stockid="Arrow1Lstart"
       inkscape:isstock="true">
      <path
         transform="matrix(0.8,0,0,0.8,10,0)"
         style="fill:context-stroke;fill-rule:evenodd;stroke:context-stroke;stroke-width:1pt"
         d="M 0,0 5,-5 -12.5,0 5,5 Z"
         id="path40779-2-0" />
    </marker>
    <inkscape:path-effect
       effect="spiro"
       id="path-effect28222-8"
       is_visible="true"
       lpeversion="1" />
    <inkscape:path-effect
       effect="spiro"
       id="path-effect28222-8-0"
       is_visible="true"
       lpeversion="1" />
    <inkscape:path-effect
       effect="spiro"
       id="path-effect28222-8-6"
       is_visible="true"
       lpeversion="1" />
    <marker
       style="overflow:visible"
       id="Arrow1Lstart-2-1"
       refX="0"
       refY="0"
       orient="auto"
       inkscape:stockid="Arrow1Lstart"
       inkscape:isstock="true">
      <path
         transform="matrix(0.8,0,0,0.8,10,0)"
         style="fill:context-stroke;fill-rule:evenodd;stroke:context-stroke;stroke-width:1pt"
         d="M 0,0 5,-5 -12.5,0 5,5 Z"
         id="path40779-2-3" />
    </marker>
    <marker
       style="overflow:visible"
       id="Arrow1Lstart-2-1-7"
       refX="0"
       refY="0"
       orient="auto"
       inkscape:stockid="Arrow1Lstart"
       inkscape:isstock="true">
      <path
         transform="matrix(0.8,0,0,0.8,10,0)"
         style="fill:context-stroke;fill-rule:evenodd;stroke:context-stroke;stroke-width:1pt"
         d="M 0,0 5,-5 -12.5,0 5,5 Z"
         id="path40779-2-3-4" />
    </marker>
  </defs>
  <g
     inkscape:label="Ebene 1"
     inkscape:groupmode="layer"
     id="layer1">
    <path
       id="rect17136"
       style="opacity:1;vector-effect:none;fill-opacity:0.14;fill-rule:evenodd;stroke:#000000;stroke-width:0.264583;stop-color:#000000;stop-opacity:1"
       d="M 46.316574,50.313435 H 169.04375 V 114.96855 H 46.316574 Z" />
    <g
       id="g3572"
       transform="translate(115.43877,117.08453)">
      <path
         style="fill:none;stroke:#000000;stroke-width:0.171965px;stroke-linecap:butt;stroke-linejoin:miter;stroke-opacity:1"
         d="m 16.311996,25.966967 c 1.30855,2.070868 2.066654,4.439762 3.238364,6.591016 0.585855,1.075627 1.28082,2.102481 2.160577,2.95467 0.879757,0.85219 1.953903,1.525801 3.142571,1.821213 0.975276,0.242379 1.999934,0.225567 2.994967,0.08478 0.995032,-0.140791 1.968191,-0.402788 2.942681,-0.648308 0.97449,-0.245519 1.957951,-0.475895 2.960057,-0.551356 1.002106,-0.07546 2.030175,0.0093 2.965508,0.376777 1.006365,0.395419 1.857045,1.09484 2.7432,1.7144 0.886156,0.61956 1.871294,1.182818 2.951144,1.238042 0.75829,0.03878 1.513754,-0.179917 2.188859,-0.527394 0.675104,-0.347478 1.277542,-0.820156 1.852691,-1.315848 1.150299,-0.991384 2.263832,-2.119289 3.709082,-2.585421 1.015287,-0.327457 2.108763,-0.296666 3.156729,-0.496175 0.523982,-0.09975 1.042624,-0.260049 1.497426,-0.538732 0.454802,-0.278683 0.843797,-0.6835 1.040187,-1.179423 0.243681,-0.615344 0.171416,-1.323729 -0.08353,-1.934491 -0.254949,-0.610761 -0.678671,-1.136198 -1.136751,-1.613891 -0.45808,-0.477694 -0.955966,-0.916945 -1.397299,-1.410152 -0.441333,-0.493208 -0.829977,-1.050629 -1.020471,-1.684459 -0.258296,-0.85943 -0.133758,-1.780031 -0.04512,-2.673048 0.04432,-0.446509 0.0791,-0.895812 0.05083,-1.343624 -0.02827,-0.447812 -0.121535,-0.89632 -0.322058,-1.297723 -0.205048,-0.410461 -0.518942,-0.762679 -0.889046,-1.033873 -0.370104,-0.271194 -0.795394,-0.46282 -1.237698,-0.584844 -0.884609,-0.244046 -1.822395,-0.210916 -2.733304,-0.09985 -0.910909,0.111069 -1.813206,0.298074 -2.728979,0.35681 -0.915774,0.05874 -1.862579,-0.01799 -2.692425,-0.409713 -0.80064,-0.377936 -1.445825,-1.02765 -1.965066,-1.744761 -0.519242,-0.717111 -0.926384,-1.507593 -1.369499,-2.274085 -0.443114,-0.766491 -0.930968,-1.520123 -1.579598,-2.122733 -0.64863,-0.602611 -1.477695,-1.047552 -2.361942,-1.091901 -0.876404,-0.04396 -1.723923,0.301648 -2.506359,0.698902 -0.782436,0.397253 -1.546424,0.857243 -2.397103,1.072562 -1.305639,0.330476 -2.681156,0.05434 -4.026335,0.120686 -0.67259,0.03317 -1.352129,0.156805 -1.948387,0.469781 -0.596257,0.312976 -1.103833,0.832464 -1.301381,1.476243 -0.183804,0.59899 -0.09036,1.24218 -0.03661,1.866427 0.02687,0.312124 0.04332,0.626857 0.009,0.938251 -0.03431,0.311394 -0.121377,0.621054 -0.288752,0.885873 -0.154716,0.24479 -0.374884,0.44531 -0.624491,0.592127 -0.249607,0.146818 -0.528143,0.241069 -0.81288,0.293829 -0.569475,0.10552 -1.155652,0.04695 -1.729721,-0.02974 -0.574069,-0.07669 -1.150935,-0.17145 -1.729093,-0.137244 -0.578157,0.03421 -1.168803,0.21108 -1.589039,0.609625 -0.346998,0.329087 -0.553953,0.790419 -0.618439,1.264283 -0.06449,0.473865 0.0069,0.959586 0.157109,1.413613 0.300439,0.908053 0.899466,1.680308 1.410388,2.488877 z"
         id="path1364" />
      <g
         aria-label="Internet"
         id="text2778"
         style="font-size:7.05556px;line-height:1.25;stroke-width:0.264583">
        <path
           d="m 22.717115,28.918468 h -2.025717 v -0.523654 h 0.671794 v -4.082441 h -0.671794 v -0.523655 h 2.025717 v 0.523655 h -0.671794 v 4.082441 h 0.671794 z"
           id="path920" />
        <path
           d="M 27.044158,28.918468 H 26.39648 v -2.191082 q 0,-0.265272 -0.03101,-0.496094 -0.03101,-0.234266 -0.113689,-0.36518 -0.08613,-0.144694 -0.248047,-0.213596 -0.161919,-0.07235 -0.420302,-0.07235 -0.265272,0 -0.55466,0.130914 -0.289388,0.130913 -0.554661,0.334174 v 2.873211 h -0.647678 v -3.848174 h 0.647678 v 0.427192 q 0.303169,-0.251492 0.627008,-0.392741 0.323839,-0.141249 0.664904,-0.141249 0.623562,0 0.950847,0.375516 0.327284,0.375516 0.327284,1.081761 z"
           id="path922" />
        <path
           d="m 30.28944,28.884017 q -0.18259,0.04823 -0.399631,0.07924 -0.213596,0.03101 -0.382406,0.03101 -0.589112,0 -0.895726,-0.316949 -0.306613,-0.316949 -0.306613,-1.016304 V 25.61462 h -0.437528 v -0.544326 h 0.437528 v -1.105876 h 0.647678 v 1.105876 h 1.336698 v 0.544326 h -1.336698 v 1.753555 q 0,0.303168 0.01378,0.475423 0.01378,0.16881 0.09646,0.316949 0.07579,0.137804 0.206706,0.203261 0.134359,0.06201 0.406522,0.06201 0.158474,0 0.330729,-0.04479 0.172255,-0.04823 0.248047,-0.07924 h 0.03445 z"
           id="path924" />
        <path
           d="m 34.292643,27.061561 h -2.835315 q 0,0.354845 0.106798,0.620117 0.106798,0.261828 0.292833,0.430638 0.179145,0.165364 0.423747,0.248047 0.248047,0.08268 0.544325,0.08268 0.392741,0 0.788928,-0.155029 0.399631,-0.158475 0.568441,-0.310059 h 0.03445 v 0.706245 q -0.327284,0.137804 -0.668349,0.230821 -0.341065,0.09302 -0.71658,0.09302 -0.957738,0 -1.495173,-0.516765 -0.537435,-0.520209 -0.537435,-1.474501 0,-0.943957 0.513319,-1.498618 0.516765,-0.554661 1.357369,-0.554661 0.778592,0 1.198894,0.454753 0.423747,0.454753 0.423747,1.291912 z M 33.66219,26.565467 q -0.0034,-0.509875 -0.258382,-0.788928 -0.251492,-0.279053 -0.768257,-0.279053 -0.52021,0 -0.830269,0.306614 -0.306613,0.306614 -0.347954,0.761367 z"
           id="path926" />
        <path
           d="m 37.67573,25.776539 h -0.03445 q -0.144694,-0.03445 -0.282498,-0.04823 -0.134359,-0.01722 -0.320394,-0.01722 -0.299724,0 -0.578777,0.134358 -0.279053,0.130914 -0.537435,0.341065 v 2.731962 h -0.647678 v -3.848174 h 0.647678 v 0.568441 q 0.385851,-0.310058 0.678684,-0.437527 0.296279,-0.130914 0.602892,-0.130914 0.16881,0 0.244602,0.01034 0.07579,0.0069 0.227377,0.03101 z"
           id="path928" />
        <path
           d="m 41.503233,28.918468 h -0.647678 v -2.191082 q 0,-0.265272 -0.03101,-0.496094 -0.03101,-0.234266 -0.113689,-0.36518 -0.08613,-0.144694 -0.248047,-0.213596 -0.161919,-0.07235 -0.420302,-0.07235 -0.265272,0 -0.55466,0.130914 -0.289388,0.130913 -0.554661,0.334174 v 2.873211 h -0.647678 v -3.848174 h 0.647678 v 0.427192 q 0.303169,-0.251492 0.627008,-0.392741 0.323839,-0.141249 0.664904,-0.141249 0.623562,0 0.950847,0.375516 0.327284,0.375516 0.327284,1.081761 z"
           id="path930" />
        <path
           d="M 45.971526,27.061561 H 43.13621 q 0,0.354845 0.106798,0.620117 0.106798,0.261828 0.292833,0.430638 0.179146,0.165364 0.423748,0.248047 0.248047,0.08268 0.544325,0.08268 0.392741,0 0.788927,-0.155029 0.399632,-0.158475 0.568441,-0.310059 h 0.03445 v 0.706245 q -0.327284,0.137804 -0.668349,0.230821 -0.341064,0.09302 -0.71658,0.09302 -0.957737,0 -1.495172,-0.516765 -0.537436,-0.520209 -0.537436,-1.474501 0,-0.943957 0.51332,-1.498618 0.516765,-0.554661 1.357369,-0.554661 0.778592,0 1.198894,0.454753 0.423747,0.454753 0.423747,1.291912 z m -0.630453,-0.496094 q -0.0034,-0.509875 -0.258383,-0.788928 -0.251492,-0.279053 -0.768256,-0.279053 -0.52021,0 -0.830269,0.306614 -0.306614,0.306614 -0.347955,0.761367 z"
           id="path932" />
        <path
           d="m 48.951534,28.884017 q -0.18259,0.04823 -0.399631,0.07924 -0.213596,0.03101 -0.382406,0.03101 -0.589112,0 -0.895726,-0.316949 -0.306613,-0.316949 -0.306613,-1.016304 V 25.61462 H 46.52963 v -0.544326 h 0.437528 v -1.105876 h 0.647678 v 1.105876 h 1.336698 v 0.544326 h -1.336698 v 1.753555 q 0,0.303168 0.01378,0.475423 0.01378,0.16881 0.09646,0.316949 0.07579,0.137804 0.206706,0.203261 0.134359,0.06201 0.406522,0.06201 0.158474,0 0.330729,-0.04479 0.172255,-0.04823 0.248047,-0.07924 h 0.03445 z"
           id="path934" />
      </g>
    </g>
    <g
       aria-label="www.seite.de"
       id="text4734"
       style="font-size:5.64444px;line-height:1.25;stroke-width:0.264583">
      <path
         d="m 92.54822,26.545263 -0.802018,3.078535 h -0.479557 l -0.790993,-2.37298 -0.785482,2.37298 h -0.4768 l -0.810286,-3.078535 h 0.54019 l 0.564996,2.384005 0.768944,-2.384005 h 0.427192 l 0.788237,2.384005 0.534679,-2.384005 z"
         id="path937" />
      <path
         d="m 97.1674,26.545263 -0.802017,3.078535 h -0.479557 l -0.790994,-2.37298 -0.785481,2.37298 H 93.83255 l -0.810286,-3.078535 h 0.540191 l 0.564995,2.384005 0.768945,-2.384005 h 0.427192 l 0.788237,2.384005 0.534678,-2.384005 z"
         id="path939" />
      <path
         d="m 101.78658,26.545263 -0.80202,3.078535 h -0.47955 l -0.790997,-2.37298 -0.785481,2.37298 h -0.476801 l -0.810286,-3.078535 h 0.540191 l 0.564995,2.384005 0.768945,-2.384005 h 0.427191 l 0.788233,2.384005 0.53468,-2.384005 z"
         id="path941" />
      <path
         d="m 103.18667,29.623798 h -0.65871 v -0.785481 h 0.65871 z"
         id="path943" />
      <path
         d="m 106.59317,28.736342 q 0,0.42168 -0.35002,0.691775 -0.34726,0.270095 -0.95084,0.270095 -0.34176,0 -0.62839,-0.07993 -0.28387,-0.08268 -0.4768,-0.179145 V 28.85761 h 0.0276 q 0.24529,0.184657 0.5457,0.2949 0.30042,0.107487 0.57602,0.107487 0.34176,0 0.53468,-0.110243 0.19293,-0.110243 0.19293,-0.347266 0,-0.181901 -0.10473,-0.275607 -0.10473,-0.09371 -0.40239,-0.159853 -0.11024,-0.0248 -0.28939,-0.05788 -0.17639,-0.03307 -0.32246,-0.07166 -0.40514,-0.107487 -0.57602,-0.314192 -0.16812,-0.209462 -0.16812,-0.51263 0,-0.190169 0.0772,-0.35829 0.0799,-0.16812 0.23978,-0.300412 0.15434,-0.129536 0.39136,-0.20395 0.23978,-0.07717 0.53468,-0.07717 0.27561,0 0.55673,0.0689 0.28387,0.06615 0.47129,0.162609 v 0.553971 h -0.0276 q -0.19844,-0.146072 -0.48232,-0.245291 -0.28387,-0.101975 -0.55672,-0.101975 -0.28388,0 -0.47956,0.110243 -0.19568,0.107487 -0.19568,0.322461 0,0.190169 0.11851,0.286632 0.11575,0.09646 0.37483,0.157096 0.14331,0.03307 0.3197,0.06615 0.17914,0.03307 0.29766,0.06063 0.36104,0.08268 0.55672,0.283876 0.19568,0.203949 0.19568,0.54019 z"
         id="path945" />
      <path
         d="m 109.91149,28.138274 h -2.26825 q 0,0.283876 0.0854,0.496094 0.0854,0.209461 0.23426,0.344509 0.14332,0.132292 0.339,0.198437 0.19844,0.06615 0.43546,0.06615 0.31419,0 0.63114,-0.124023 0.31971,-0.12678 0.45475,-0.248047 h 0.0276 v 0.564995 q -0.26182,0.110243 -0.53467,0.184657 -0.27286,0.07441 -0.57327,0.07441 -0.76619,0 -1.19613,-0.413411 -0.42995,-0.416167 -0.42995,-1.1796 0,-0.755164 0.41065,-1.198892 0.41341,-0.443728 1.0859,-0.443728 0.62287,0 0.95911,0.363802 0.339,0.363802 0.339,1.033528 z M 109.40713,27.7414 q -0.003,-0.407899 -0.20671,-0.631141 -0.20119,-0.223242 -0.6146,-0.223242 -0.41617,0 -0.66422,0.24529 -0.24529,0.245291 -0.27836,0.609093 z"
         id="path947" />
      <path
         d="m 111.2537,26.029877 h -0.58429 v -0.537434 h 0.58429 z m -0.0331,3.593921 h -0.51814 v -3.078535 h 0.51814 z"
         id="path949" />
      <path
         d="m 113.84441,29.596238 q -0.14608,0.03859 -0.31971,0.06339 -0.17087,0.02481 -0.30592,0.02481 -0.47129,0 -0.71658,-0.253559 -0.24529,-0.253559 -0.24529,-0.813042 v -1.637108 h -0.35002 v -0.43546 h 0.35002 v -0.884699 h 0.51814 v 0.884699 h 1.06936 v 0.43546 h -1.06936 v 1.402842 q 0,0.242534 0.011,0.380338 0.011,0.135048 0.0772,0.253559 0.0606,0.110243 0.16537,0.162608 0.10749,0.04961 0.32522,0.04961 0.12677,0 0.26458,-0.03583 0.1378,-0.03858 0.19844,-0.06339 h 0.0276 z"
         id="path951" />
      <path
         d="m 117.04696,28.138274 h -2.26824 q 0,0.283876 0.0854,0.496094 0.0854,0.209461 0.23427,0.344509 0.14332,0.132292 0.339,0.198437 0.19843,0.06615 0.43546,0.06615 0.31419,0 0.63114,-0.124023 0.3197,-0.12678 0.45475,-0.248047 h 0.0276 v 0.564995 q -0.26183,0.110243 -0.53468,0.184657 -0.27285,0.07441 -0.57326,0.07441 -0.76619,0 -1.19614,-0.413411 -0.42994,-0.416167 -0.42994,-1.1796 0,-0.755164 0.41065,-1.198892 0.41341,-0.443728 1.08589,-0.443728 0.62288,0 0.95912,0.363802 0.33899,0.363802 0.33899,1.033528 z M 116.5426,27.7414 q -0.003,-0.407899 -0.2067,-0.631141 -0.2012,-0.223242 -0.61461,-0.223242 -0.41616,0 -0.66421,0.24529 -0.24529,0.245291 -0.27836,0.609093 z"
         id="path953" />
      <path
         d="m 118.67856,29.623798 h -0.6587 v -0.785481 h 0.6587 z"
         id="path955" />
      <path
         d="m 122.38272,29.623798 h -0.51814 v -0.32246 q -0.22324,0.192925 -0.46577,0.300412 -0.24254,0.107487 -0.52641,0.107487 -0.55122,0 -0.87644,-0.424436 -0.32246,-0.424435 -0.32246,-1.176843 0,-0.391363 0.11025,-0.697287 0.11299,-0.305925 0.30316,-0.520898 0.18742,-0.209462 0.43546,-0.319705 0.25081,-0.110243 0.51815,-0.110243 0.24253,0 0.42994,0.05237 0.18742,0.04961 0.39412,0.157097 v -1.33394 h 0.51814 z m -0.51814,-0.75792 v -1.766644 q -0.20946,-0.09371 -0.37482,-0.129535 -0.16537,-0.03583 -0.36105,-0.03583 -0.43546,0 -0.67799,0.303168 -0.24254,0.303168 -0.24254,0.859895 0,0.548459 0.18741,0.835091 0.18742,0.283875 0.60083,0.283875 0.22048,0 0.44648,-0.09646 0.226,-0.09922 0.42168,-0.253559 z"
         id="path957" />
      <path
         d="m 125.9794,28.138274 h -2.26825 q 0,0.283876 0.0854,0.496094 0.0854,0.209461 0.23427,0.344509 0.14331,0.132292 0.33899,0.198437 0.19844,0.06615 0.43546,0.06615 0.3142,0 0.63114,-0.124023 0.31971,-0.12678 0.45476,-0.248047 h 0.0276 v 0.564995 q -0.26183,0.110243 -0.53468,0.184657 -0.27285,0.07441 -0.57327,0.07441 -0.76618,0 -1.19613,-0.413411 -0.42995,-0.416167 -0.42995,-1.1796 0,-0.755164 0.41066,-1.198892 0.41341,-0.443728 1.08589,-0.443728 0.62287,0 0.95911,0.363802 0.339,0.363802 0.339,1.033528 z M 125.47504,27.7414 q -0.003,-0.407899 -0.20671,-0.631141 -0.20119,-0.223242 -0.6146,-0.223242 -0.41617,0 -0.66422,0.24529 -0.24529,0.245291 -0.27836,0.609093 z"
         id="path959" />
    </g>
    <path
       style="fill:#000000;fill-opacity:1;stroke:#090000;stroke-width:0.310584;stroke-linecap:butt;stroke-linejoin:miter;stroke-miterlimit:4;stroke-dasharray:none;stroke-opacity:1;marker-start:url(#Arrow1Lstart-2)"
       d="M 85.846018,82.14578 92.014369,70.866736"
       id="path40183-3"
       sodipodi:nodetypes="cc" />
    <path
       style="fill:#000000;fill-opacity:1;stroke:#090000;stroke-width:0.310584;stroke-linecap:butt;stroke-linejoin:miter;stroke-miterlimit:4;stroke-dasharray:none;stroke-opacity:1;marker-start:url(#Arrow1Lstart-2-1)"
       d="M 143.7007,127.199 120.71546,71.484256"
       id="path40183-3-0"
       sodipodi:nodetypes="cc" />
    <path
       style="fill:#000000;fill-opacity:1;stroke:#090000;stroke-width:0.311;stroke-linecap:butt;stroke-linejoin:miter;stroke-miterlimit:4;stroke-dasharray:2.488, 2.488;stroke-dashoffset:0;stroke-opacity:1;marker-start:url(#Arrow1Lstart-2-1-7)"
       d="M 132.70916,132.50635 78.454363,97.951466"
       id="path40183-3-0-2"
       sodipodi:nodetypes="cc" />
    <path
       style="fill:#000000;fill-opacity:1;stroke:#090000;stroke-width:0.310584;stroke-linecap:butt;stroke-linejoin:miter;stroke-miterlimit:4;stroke-dasharray:none;stroke-opacity:1;marker-start:url(#Arrow1Lstart-2-4)"
       d="m 107.58744,42.170439 0.0555,-10.808825"
       id="path40183-3-1"
       sodipodi:nodetypes="cc" />
    <g
       id="g39934"
       transform="translate(-23.216894,5.4102437)">
      <path
         id="rect27926"
         style="opacity:1;vector-effect:none;fill:#ffffff;fill-rule:evenodd;stroke:#090000;stroke-width:0.198894;stop-color:#000000;stop-opacity:1"
         d="M 73.554359,50.912167 H 187.31458 V 64.799902 H 73.554359 Z" />
      <g
         id="g39924"
         transform="translate(0,-15.345837)">
        <path
           id="rect28634"
           style="opacity:1;vector-effect:none;fill:#ffffff;fill-rule:evenodd;stroke:#000000;stroke-width:0.0875951;stop-color:#000000;stop-opacity:1"
           d="M 73.516228,66.143196 H 87.480633 V 80.107601 H 73.516228 Z" />
        <path
           id="rect28634-2"
           style="vector-effect:none;fill:#ffffff;fill-rule:evenodd;stroke:#000000;stroke-width:0.0875951;stop-color:#000000"
           d="M 87.480637,66.143196 H 101.44504 V 80.107601 H 87.480637 Z" />
        <path
           id="rect28634-2-9"
           style="vector-effect:none;fill:#ffffff;fill-rule:evenodd;stroke:#000000;stroke-width:0.0875951;stop-color:#000000"
           d="m 159.38577,66.181328 h 13.96441 v 13.964405 h -13.96441 z" />
        <path
           id="rect28634-2-3"
           style="vector-effect:none;fill:#ffffff;fill-rule:evenodd;stroke:#000000;stroke-width:0.0875951;stop-color:#000000"
           d="m 173.35017,66.181328 h 13.96441 v 13.964405 h -13.96441 z" />
        <g
           aria-label="Bloom-Filter"
           id="text31844"
           style="font-size:8.46667px;line-height:1.25;stroke-width:0.264583">
          <path
             d="m 109.38784,74.046951 q 0,0.458887 -0.17363,0.810287 -0.17364,0.3514 -0.46716,0.578776 -0.34726,0.272852 -0.76481,0.388607 -0.41341,0.115755 -1.0542,0.115755 h -2.18281 v -6.155699 h 1.82314 q 0.67386,0 1.00873,0.04961 0.33486,0.04961 0.64078,0.206705 0.339,0.177767 0.49196,0.458887 0.15297,0.276986 0.15297,0.665593 0,0.438216 -0.22325,0.748275 -0.22324,0.305925 -0.59531,0.49196 v 0.03307 q 0.62425,0.128157 0.98392,0.549837 0.35967,0.417546 0.35967,1.058334 z m -1.37666,-2.773992 q 0,-0.223242 -0.0744,-0.376205 -0.0744,-0.152962 -0.23977,-0.248046 -0.19431,-0.111622 -0.47129,-0.136426 -0.27699,-0.02894 -0.68627,-0.02894 h -0.97565 v 1.77767 h 1.05834 q 0.38447,0 0.61184,-0.03721 0.22738,-0.04134 0.42168,-0.165365 0.19431,-0.124023 0.27286,-0.318327 0.0827,-0.198437 0.0827,-0.467155 z m 0.52503,2.807065 q 0,-0.37207 -0.11162,-0.591179 -0.11162,-0.219108 -0.40514,-0.37207 -0.19844,-0.103353 -0.48369,-0.132292 -0.28112,-0.03307 -0.68627,-0.03307 h -1.28571 v 2.290301 h 1.08314 q 0.53744,0 0.88057,-0.05374 0.34313,-0.05788 0.56224,-0.206706 0.23151,-0.16123 0.33899,-0.367936 0.10749,-0.206706 0.10749,-0.533301 z"
             id="path967" />
          <path
             d="m 111.273,75.940376 h -0.77722 v -6.432685 h 0.77722 z"
             id="path969" />
          <path
             d="m 116.74657,73.633539 q 0,1.128614 -0.57878,1.781805 -0.57878,0.65319 -1.55029,0.65319 -0.97979,0 -1.55857,-0.65319 -0.57464,-0.653191 -0.57464,-1.781805 0,-1.128613 0.57464,-1.781804 0.57878,-0.657324 1.55857,-0.657324 0.97151,0 1.55029,0.657324 0.57878,0.653191 0.57878,1.781804 z m -0.80202,0 q 0,-0.897103 -0.3514,-1.331185 -0.3514,-0.438216 -0.97565,-0.438216 -0.63252,0 -0.98392,0.438216 -0.34727,0.434082 -0.34727,1.331185 0,0.868165 0.3514,1.318784 0.3514,0.446484 0.97979,0.446484 0.62011,0 0.97151,-0.44235 0.35554,-0.446485 0.35554,-1.322918 z"
             id="path971" />
          <path
             d="m 121.88527,73.633539 q 0,1.128614 -0.57877,1.781805 -0.57878,0.65319 -1.5503,0.65319 -0.97978,0 -1.55856,-0.65319 -0.57464,-0.653191 -0.57464,-1.781805 0,-1.128613 0.57464,-1.781804 0.57878,-0.657324 1.55856,-0.657324 0.97152,0 1.5503,0.657324 0.57877,0.653191 0.57877,1.781804 z m -0.80202,0 q 0,-0.897103 -0.3514,-1.331185 -0.3514,-0.438216 -0.97565,-0.438216 -0.63252,0 -0.98392,0.438216 -0.34726,0.434082 -0.34726,1.331185 0,0.868165 0.3514,1.318784 0.3514,0.446484 0.97978,0.446484 0.62012,0 0.97152,-0.44235 0.35553,-0.446485 0.35553,-1.322918 z"
             id="path973" />
          <path
             d="m 129.82691,75.940376 h -0.77721 v -2.629298 q 0,-0.297656 -0.0289,-0.574642 -0.0248,-0.276986 -0.11162,-0.44235 -0.0951,-0.177767 -0.27285,-0.268718 -0.17777,-0.09095 -0.51263,-0.09095 -0.3266,0 -0.6532,0.165364 -0.32659,0.161231 -0.65319,0.413412 0.0124,0.09508 0.0207,0.223242 0.008,0.124024 0.008,0.248047 v 2.955893 H 126.069 v -2.629298 q 0,-0.305924 -0.0289,-0.578776 -0.0248,-0.276986 -0.11162,-0.44235 -0.0951,-0.177767 -0.27285,-0.264584 -0.17777,-0.09095 -0.51263,-0.09095 -0.31833,0 -0.64079,0.157096 -0.31833,0.157096 -0.63665,0.401009 v 3.447853 h -0.77722 v -4.617808 h 0.77722 v 0.512631 q 0.3638,-0.301791 0.72347,-0.471289 0.3638,-0.169499 0.77308,-0.169499 0.47128,0 0.79788,0.198437 0.33073,0.198438 0.49196,0.549838 0.47129,-0.396875 0.8599,-0.570508 0.3886,-0.177767 0.83095,-0.177767 0.76068,0 1.12035,0.463021 0.3638,0.458887 0.3638,1.28571 z"
             id="path975" />
          <path
             d="m 133.77086,73.621137 h -2.57969 v -0.748275 h 2.57969 z"
             id="path977" />
          <path
             d="m 139.16175,70.512282 h -3.11299 v 1.736328 h 2.67477 v 0.727605 h -2.67477 v 2.964161 h -0.81856 v -6.155699 h 3.93155 z"
             id="path979" />
          <path
             d="m 140.86914,70.549489 h -0.87644 v -0.806153 h 0.87644 z m -0.0496,5.390887 h -0.77722 v -4.617808 h 0.77722 z"
             id="path981" />
          <path
             d="m 143.1429,75.940376 h -0.77721 v -6.432685 h 0.77721 z"
             id="path983" />
          <path
             d="m 147.07858,75.899035 q -0.21911,0.05788 -0.47956,0.09508 -0.25632,0.03721 -0.45889,0.03721 -0.70693,0 -1.07487,-0.380339 -0.36793,-0.380339 -0.36793,-1.219564 v -2.455665 h -0.52504 v -0.653191 h 0.52504 v -1.327051 h 0.77721 v 1.327051 h 1.60404 v 0.653191 h -1.60404 v 2.104265 q 0,0.363802 0.0165,0.570508 0.0165,0.202572 0.11575,0.380339 0.0909,0.165364 0.24805,0.243913 0.16123,0.07441 0.48782,0.07441 0.19017,0 0.39688,-0.05374 0.2067,-0.05788 0.29766,-0.09509 h 0.0413 z"
             id="path985" />
          <path
             d="m 151.88242,73.712088 h -3.40237 q 0,0.425814 0.12815,0.744141 0.12816,0.314192 0.3514,0.516764 0.21498,0.198438 0.5085,0.297656 0.29766,0.09922 0.65319,0.09922 0.47129,0 0.94671,-0.186035 0.47956,-0.190169 0.68213,-0.37207 h 0.0413 v 0.847493 q -0.39274,0.165365 -0.80202,0.276986 -0.40927,0.111621 -0.85989,0.111621 -1.14929,0 -1.79421,-0.620117 -0.64492,-0.624252 -0.64492,-1.769402 0,-1.132748 0.61598,-1.79834 0.62012,-0.665593 1.62884,-0.665593 0.93431,0 1.43868,0.545703 0.50849,0.545704 0.50849,1.550294 z m -0.75654,-0.595313 q -0.004,-0.611849 -0.31006,-0.946713 -0.30179,-0.334863 -0.92191,-0.334863 -0.62425,0 -0.99632,0.367936 -0.36794,0.367937 -0.41754,0.91364 z"
             id="path987" />
          <path
             d="m 155.94212,72.170062 h -0.0413 q -0.17363,-0.04134 -0.33899,-0.05788 -0.16124,-0.02067 -0.38448,-0.02067 -0.35967,0 -0.69453,0.161231 -0.33486,0.157096 -0.64492,0.409277 v 3.278354 h -0.77721 v -4.617808 h 0.77721 v 0.68213 q 0.46302,-0.372071 0.81442,-0.525033 0.35553,-0.157097 0.72347,-0.157097 0.20257,0 0.29352,0.0124 0.0909,0.0083 0.27285,0.03721 z"
             id="path989" />
        </g>
      </g>
    </g>
    <g
       aria-label="?"
       id="text41388"
       style="font-size:10.5833px;line-height:1.25;stroke-width:0.264583">
      <path
         d="m 116.16515,35.258234 q 0,0.506428 -0.18086,0.904335 -0.18087,0.39274 -0.47543,0.69763 -0.28938,0.294554 -0.66662,0.552936 -0.37724,0.258381 -0.80098,0.501259 v 1.162717 h -0.92501 v -1.576127 q 0.3359,-0.191202 0.72347,-0.418577 0.39274,-0.227376 0.64079,-0.459919 0.29972,-0.268717 0.46508,-0.552936 0.16537,-0.289387 0.16537,-0.733803 0,-0.583942 -0.39791,-0.868162 -0.39274,-0.289387 -1.01802,-0.289387 -0.55811,0 -1.05937,0.1757 -0.49609,0.175699 -0.78548,0.356566 h -0.0517 V 33.65627 q 0.36173,-0.139526 0.91467,-0.248046 0.5581,-0.113688 1.05419,-0.113688 1.11104,0 1.75183,0.542601 0.64595,0.537433 0.64595,1.421097 z m -2.04121,5.885927 h -1.0542 v -1.090369 h 1.0542 z"
         id="path992" />
    </g>
    <g
       aria-label="Cache"
       id="text11426"
       style="font-size:8.46667px;line-height:1.25;stroke-width:0.264583">
      <path
         d="m 70.941508,92.656886 q -0.227377,0.09922 -0.413412,0.186035 -0.181901,0.08682 -0.479557,0.181901 -0.252182,0.07855 -0.549838,0.132292 -0.293522,0.05788 -0.649056,0.05788 -0.669727,0 -1.219564,-0.186035 -0.545704,-0.19017 -0.950847,-0.591179 -0.396875,-0.392741 -0.620118,-0.996322 -0.223242,-0.607715 -0.223242,-1.409734 0,-0.760677 0.214974,-1.360124 0.214974,-0.599447 0.620118,-1.012858 0.392741,-0.40101 0.946712,-0.61185 0.558106,-0.21084 1.236101,-0.21084 0.496094,0 0.988054,0.11989 0.496094,0.119889 1.099675,0.42168 v 0.971517 h -0.06201 Q 70.371,87.923323 69.870772,87.72902 q -0.500229,-0.194304 -1.070737,-0.194304 -0.467155,0 -0.843359,0.152962 -0.372071,0.148829 -0.665593,0.467156 -0.285254,0.310058 -0.446485,0.785482 -0.157096,0.471289 -0.157096,1.091406 0,0.649057 0.173633,1.116212 0.177767,0.467155 0.454753,0.760677 0.289388,0.305925 0.673861,0.454753 0.388607,0.144694 0.818555,0.144694 0.591178,0 1.107943,-0.202572 0.516764,-0.202571 0.967383,-0.607715 h 0.05788 z"
         id="path995" />
      <path
         d="m 75.625461,93.103371 h -0.77308 v -0.49196 q -0.103352,0.07028 -0.281119,0.198437 -0.173633,0.124024 -0.338998,0.198438 -0.194303,0.09508 -0.446485,0.157096 -0.252181,0.06615 -0.591178,0.06615 -0.624252,0 -1.058334,-0.413411 -0.434082,-0.413412 -0.434082,-1.0542 0,-0.525033 0.223242,-0.847494 0.227377,-0.326595 0.644922,-0.51263 0.42168,-0.186035 1.012859,-0.252181 0.591178,-0.06615 1.269173,-0.09922 v -0.119889 q 0,-0.264584 -0.09508,-0.438217 -0.09095,-0.173633 -0.264584,-0.272851 -0.165364,-0.09508 -0.396875,-0.128158 -0.23151,-0.03307 -0.483691,-0.03307 -0.305925,0 -0.68213,0.08268 -0.376204,0.07855 -0.777213,0.231511 h -0.04134 v -0.789616 q 0.227377,-0.06201 0.657325,-0.136426 0.429948,-0.07441 0.847494,-0.07441 0.487825,0 0.847494,0.08268 0.363802,0.07855 0.628385,0.272852 0.26045,0.190169 0.396875,0.49196 0.136426,0.30179 0.136426,0.748275 z m -0.77308,-1.136882 v -1.28571 q -0.355534,0.02067 -0.839225,0.06201 -0.479558,0.04134 -0.760678,0.11989 -0.334863,0.09508 -0.541569,0.297656 -0.206706,0.198438 -0.206706,0.549837 0,0.396876 0.239779,0.599447 0.239779,0.198438 0.731739,0.198438 0.409277,0 0.748275,-0.157096 0.338997,-0.161231 0.628385,-0.384473 z"
         id="path997" />
      <path
         d="m 80.536791,92.813983 q -0.388607,0.186035 -0.740007,0.289388 -0.347265,0.103353 -0.740006,0.103353 -0.500228,0 -0.917774,-0.144694 -0.417546,-0.148829 -0.715202,-0.446485 -0.301791,-0.297656 -0.467155,-0.752409 -0.165365,-0.454753 -0.165365,-1.062468 0,-1.132748 0.620117,-1.77767 0.624252,-0.644922 1.645379,-0.644922 0.396875,0 0.777213,0.111621 0.384473,0.111621 0.7028,0.272852 v 0.86403 h -0.04134 q -0.355534,-0.276986 -0.735873,-0.425814 -0.376204,-0.148828 -0.735872,-0.148828 -0.661459,0 -1.045932,0.446484 -0.380338,0.442351 -0.380338,1.302247 0,0.835091 0.37207,1.28571 0.376205,0.446485 1.0542,0.446485 0.235644,0 0.479557,-0.06201 0.243913,-0.06201 0.438216,-0.161231 0.169499,-0.08682 0.318327,-0.181901 0.148829,-0.09922 0.235645,-0.169499 h 0.04134 z"
         id="path999" />
      <path
         d="m 85.394377,93.103371 h -0.777214 v -2.629298 q 0,-0.318327 -0.03721,-0.595313 -0.03721,-0.28112 -0.136426,-0.438216 -0.103353,-0.173633 -0.297656,-0.256316 -0.194303,-0.08682 -0.504362,-0.08682 -0.318327,0 -0.665593,0.157096 -0.347266,0.157097 -0.665593,0.40101 v 3.447853 h -0.777213 v -6.432685 h 0.777213 v 2.327507 q 0.363803,-0.30179 0.75241,-0.471289 0.388606,-0.169499 0.797884,-0.169499 0.748275,0 1.141016,0.450619 0.392741,0.450619 0.392741,1.298112 z"
         id="path1001" />
      <path
         d="m 90.756326,90.875082 h -3.402378 q 0,0.425814 0.128158,0.744141 0.128158,0.314193 0.3514,0.516764 0.214974,0.198438 0.508496,0.297657 0.297656,0.09922 0.65319,0.09922 0.47129,0 0.946713,-0.186036 0.479558,-0.190169 0.682129,-0.37207 h 0.04134 v 0.847494 q -0.392741,0.165364 -0.802018,0.276986 -0.409278,0.111621 -0.859896,0.111621 -1.149285,0 -1.794207,-0.620118 -0.644922,-0.624251 -0.644922,-1.769401 0,-1.132748 0.615983,-1.798341 0.620118,-0.665593 1.628842,-0.665593 0.93431,0 1.438673,0.545704 0.508496,0.545703 0.508496,1.550293 z m -0.756543,-0.595313 q -0.0041,-0.611849 -0.310059,-0.946712 -0.30179,-0.334864 -0.921908,-0.334864 -0.624251,0 -0.996322,0.367937 -0.367936,0.367936 -0.417546,0.913639 z"
         id="path1003" />
    </g>
    <path
       style="fill:none;stroke:#000000;stroke-width:0.264583px;stroke-linecap:butt;stroke-linejoin:miter;stroke-opacity:1;marker-end:url(#Arrow2Lend)"
       d="M 50.313436,89.576724 C 39.57701,77.1162 28.840342,64.655397 33.346755,54.623813 37.853168,44.59223 57.601971,36.990509 77.351029,29.388689"
       id="path16889" />
    <path
       style="fill:none;stroke:#000000;stroke-width:0.264583px;stroke-linecap:butt;stroke-linejoin:miter;stroke-opacity:1;marker-end:url(#Arrow2Lend)"
       d="M 167.39797,134.48263 C 175.62675,105.95619 183.85559,77.429572 178.91829,59.796264 173.98099,42.162956 155.87792,35.423285 137.77417,28.68336"
       id="path16893"
       sodipodi:nodetypes="ccc" />
    <path
       style="fill:none;stroke:#006400;stroke-width:1.265;stroke-linecap:butt;stroke-linejoin:miter;stroke-miterlimit:4;stroke-dasharray:none;stroke-opacity:1"
       d="m 92.087314,75.997658 4.23197,3.76176 7.635106,-8.08424"
       id="path37685" />
    <path
       style="fill:none;stroke:#ff0000;stroke-width:1.1;stroke-linecap:butt;stroke-linejoin:miter;stroke-miterlimit:4;stroke-dasharray:none;stroke-opacity:1"
       d="M 146.35893,81.554365 135.779,90.025535"
       id="path37753"
       sodipodi:nodetypes="cc" />
    <path
       style="fill:none;stroke:#ff0000;stroke-width:1.1;stroke-linecap:butt;stroke-linejoin:miter;stroke-miterlimit:4;stroke-dasharray:none;stroke-opacity:1"
       d="m 135.30878,81.616935 10.81504,8.93417"
       id="path37753-0"
       sodipodi:nodetypes="cc" />
    <path
       style="fill:none;stroke:#ff0000;stroke-width:1.1;stroke-linecap:butt;stroke-linejoin:miter;stroke-miterlimit:4;stroke-dasharray:none;stroke-opacity:1"
       d="m 116.50003,100.12801 -10.57993,8.47117"
       id="path37753-4"
       sodipodi:nodetypes="cc" />
    <path
       style="fill:none;stroke:#ff0000;stroke-width:1.1;stroke-linecap:butt;stroke-linejoin:miter;stroke-miterlimit:4;stroke-dasharray:none;stroke-opacity:1"
       d="m 105.44988,100.19058 10.81504,8.93417"
       id="path37753-0-2"
       sodipodi:nodetypes="cc" />
    <path
       id="rect10652"
       style="opacity:1;vector-effect:none;fill:#64ffff;fill-opacity:0.14;fill-rule:evenodd;stroke:#000000;stroke-width:0.264583;stop-color:#000000;stop-opacity:1"
       d="M 54.545406,84.404312 H 101.3322 V 96.394897 H 54.545406 Z" />
    <g
       aria-label="Web Cache"
       id="text20564"
       style="font-size:5.64444px;line-height:1.25;stroke-width:0.264583">
      <path
         d="m 53.995159,109.21897 -1.066601,4.1038 h -0.614604 l -0.862652,-3.40651 -0.843358,3.40651 H 50.00712 l -1.085894,-4.1038 h 0.559483 l 0.862652,3.41202 0.84887,-3.41202 h 0.553971 l 0.857139,3.4451 0.85714,-3.4451 z"
         id="path1007" />
      <path
         d="m 57.059913,111.83725 h -2.268249 q 0,0.28387 0.08544,0.49609 0.08544,0.20946 0.234266,0.34451 0.143316,0.13229 0.338997,0.19844 0.198437,0.0661 0.43546,0.0661 0.314192,0 0.631141,-0.12402 0.319704,-0.12678 0.454752,-0.24805 h 0.02756 v 0.565 q -0.261827,0.11024 -0.534679,0.18465 -0.272851,0.0744 -0.573263,0.0744 -0.766189,0 -1.196136,-0.41341 -0.429948,-0.41617 -0.429948,-1.1796 0,-0.75517 0.410655,-1.1989 0.413411,-0.44372 1.085893,-0.44372 0.622873,0 0.959114,0.3638 0.338997,0.3638 0.338997,1.03353 z m -0.504361,-0.39688 q -0.0028,-0.4079 -0.206706,-0.63114 -0.201193,-0.22324 -0.614604,-0.22324 -0.416168,0 -0.664214,0.24529 -0.245291,0.24529 -0.278364,0.60909 z"
         id="path1009" />
      <path
         d="m 60.554616,111.76008 q 0,0.38585 -0.110243,0.69453 -0.107487,0.30868 -0.292144,0.51814 -0.195682,0.21773 -0.429948,0.32797 -0.234266,0.10749 -0.515386,0.10749 -0.261827,0 -0.457508,-0.0634 -0.195681,-0.0606 -0.385851,-0.16537 l -0.03307,0.14332 h -0.48507 v -4.28845 h 0.518142 v 1.53237 q 0.21773,-0.17914 0.463021,-0.29214 0.245291,-0.11575 0.551215,-0.11575 0.545703,0 0.859895,0.41892 0.316949,0.41892 0.316949,1.18236 z m -0.534679,0.0138 q 0,-0.55122 -0.181901,-0.8351 -0.181901,-0.28663 -0.587044,-0.28663 -0.225998,0 -0.457508,0.0992 -0.23151,0.0965 -0.429948,0.2508 v 1.76389 q 0.220486,0.0992 0.377583,0.13781 0.159852,0.0386 0.361045,0.0386 0.429948,0 0.672483,-0.28112 0.24529,-0.28387 0.24529,-0.88745 z"
         id="path1011" />
      <path
         d="m 66.557345,113.02511 q -0.151584,0.0662 -0.275607,0.12403 -0.121267,0.0579 -0.319705,0.12126 -0.16812,0.0524 -0.366557,0.0882 -0.195682,0.0386 -0.432704,0.0386 -0.446484,0 -0.813042,-0.12402 -0.363802,-0.12678 -0.633897,-0.39412 -0.264583,-0.26183 -0.413411,-0.66421 -0.148828,-0.40515 -0.148828,-0.93982 0,-0.50712 0.143316,-0.90675 0.143315,-0.39963 0.413411,-0.67524 0.261827,-0.26734 0.631141,-0.4079 0.37207,-0.14056 0.824066,-0.14056 0.330729,0 0.658702,0.0799 0.330729,0.0799 0.733115,0.28112 v 0.64767 h -0.04134 q -0.338997,-0.28387 -0.672482,-0.41341 -0.333485,-0.12953 -0.713823,-0.12953 -0.311436,0 -0.562239,0.10197 -0.248047,0.0992 -0.443728,0.31144 -0.190169,0.2067 -0.297656,0.52365 -0.104731,0.31419 -0.104731,0.72761 0,0.4327 0.115755,0.74414 0.118511,0.31143 0.303168,0.50711 0.192925,0.20395 0.44924,0.30317 0.259071,0.0965 0.545703,0.0965 0.394119,0 0.738628,-0.13504 0.344509,-0.13505 0.644921,-0.40515 h 0.03858 z"
         id="path1013" />
      <path
         d="m 69.679978,113.32277 h -0.515386 v -0.32797 q -0.0689,0.0469 -0.187413,0.13229 -0.115755,0.0827 -0.225998,0.13229 -0.129535,0.0634 -0.297656,0.10473 -0.16812,0.0441 -0.394118,0.0441 -0.416168,0 -0.705555,-0.27561 -0.289388,-0.27561 -0.289388,-0.7028 0,-0.35002 0.148828,-0.56499 0.151584,-0.21773 0.429947,-0.34176 0.28112,-0.12402 0.675239,-0.16812 0.394118,-0.0441 0.846114,-0.0661 v -0.0799 q 0,-0.17639 -0.06339,-0.29214 -0.06063,-0.11576 -0.176389,-0.1819 -0.110243,-0.0634 -0.264583,-0.0854 -0.15434,-0.022 -0.322461,-0.022 -0.203949,0 -0.454752,0.0551 -0.250803,0.0524 -0.518142,0.15434 h -0.02756 v -0.52641 q 0.151584,-0.0413 0.438216,-0.0909 0.286632,-0.0496 0.564995,-0.0496 0.325217,0 0.564995,0.0551 0.242535,0.0524 0.418924,0.1819 0.173632,0.12678 0.264583,0.32798 0.09095,0.20119 0.09095,0.49884 z m -0.515386,-0.75792 v -0.85714 q -0.237022,0.0138 -0.559483,0.0413 -0.319704,0.0276 -0.507117,0.0799 -0.223242,0.0634 -0.361046,0.19843 -0.137804,0.1323 -0.137804,0.36656 0,0.26459 0.159852,0.39963 0.159853,0.13229 0.487826,0.13229 0.272851,0 0.498849,-0.10473 0.225998,-0.10748 0.418923,-0.25631 z"
         id="path1015" />
      <path
         d="m 72.954194,113.12984 q -0.259071,0.12403 -0.493337,0.19293 -0.231511,0.0689 -0.493338,0.0689 -0.333485,0 -0.611848,-0.0965 -0.278364,-0.0992 -0.476801,-0.29766 -0.201193,-0.19843 -0.311436,-0.5016 -0.110243,-0.30317 -0.110243,-0.70831 0,-0.75517 0.413411,-1.18512 0.416167,-0.42994 1.096917,-0.42994 0.264583,0 0.518142,0.0744 0.256315,0.0744 0.468533,0.1819 v 0.57602 h -0.02756 q -0.237022,-0.18466 -0.490581,-0.28387 -0.250803,-0.0992 -0.490581,-0.0992 -0.440972,0 -0.697287,0.29765 -0.253559,0.2949 -0.253559,0.86817 0,0.55672 0.248047,0.85713 0.250803,0.29766 0.702799,0.29766 0.157096,0 0.319704,-0.0413 0.162609,-0.0413 0.292144,-0.10749 0.112999,-0.0579 0.212218,-0.12126 0.09922,-0.0662 0.157096,-0.113 h 0.02756 z"
         id="path1017" />
      <path
         d="m 76.192581,113.32277 h -0.518142 v -1.75286 q 0,-0.21222 -0.02481,-0.39688 -0.0248,-0.18741 -0.09095,-0.29214 -0.0689,-0.11576 -0.198437,-0.17088 -0.129536,-0.0579 -0.336241,-0.0579 -0.212218,0 -0.443728,0.10473 -0.231511,0.10473 -0.443728,0.26734 v 2.29857 h -0.518142 v -4.28845 h 0.518142 v 1.55167 q 0.242534,-0.2012 0.501605,-0.3142 0.259071,-0.11299 0.531922,-0.11299 0.49885,0 0.760677,0.30041 0.261827,0.30041 0.261827,0.86541 z"
         id="path1019" />
      <path
         d="m 79.76721,111.83725 h -2.268249 q 0,0.28387 0.08544,0.49609 0.08544,0.20946 0.234266,0.34451 0.143316,0.13229 0.338997,0.19844 0.198438,0.0661 0.43546,0.0661 0.314193,0 0.631141,-0.12402 0.319705,-0.12678 0.454752,-0.24805 h 0.02756 v 0.565 q -0.261827,0.11024 -0.534678,0.18465 -0.272852,0.0744 -0.573264,0.0744 -0.766188,0 -1.196136,-0.41341 -0.429948,-0.41617 -0.429948,-1.1796 0,-0.75517 0.410656,-1.1989 0.413411,-0.44372 1.085893,-0.44372 0.622873,0 0.959114,0.3638 0.338997,0.3638 0.338997,1.03353 z m -0.504362,-0.39688 q -0.0028,-0.4079 -0.206705,-0.63114 -0.201194,-0.22324 -0.614605,-0.22324 -0.416167,0 -0.664214,0.24529 -0.24529,0.24529 -0.278363,0.60909 z"
         id="path1021" />
    </g>
  </g>
</svg>
