<?xml version="1.0" encoding="UTF-8" standalone="no"?>
<!-- Created with Inkscape (http://www.inkscape.org/) -->

<svg
   width="210mm"
   height="297mm"
   viewBox="0 0 210 297"
   version="1.1"
   id="svg5"
   inkscape:version="1.1.2 (b8e25be833, 2022-02-05)"
   sodipodi:docname="BFCounting.svg"
   xmlns:inkscape="http://www.inkscape.org/namespaces/inkscape"
   xmlns:sodipodi="http://sodipodi.sourceforge.net/DTD/sodipodi-0.dtd"
   xmlns="http://www.w3.org/2000/svg"
   xmlns:svg="http://www.w3.org/2000/svg">
  <sodipodi:namedview
     id="namedview7"
     pagecolor="#ffffff"
     bordercolor="#666666"
     borderopacity="1.0"
     inkscape:pageshadow="2"
     inkscape:pageopacity="0.0"
     inkscape:pagecheckerboard="0"
     inkscape:document-units="mm"
     showgrid="false"
     inkscape:snap-grids="true"
     inkscape:zoom="1.4835225"
     inkscape:cx="406.46502"
     inkscape:cy="189.41405"
     inkscape:window-width="1920"
     inkscape:window-height="1017"
     inkscape:window-x="-1928"
     inkscape:window-y="-8"
     inkscape:window-maximized="1"
     inkscape:current-layer="layer1">
    <inkscape:grid
       type="xygrid"
       id="grid4182" />
  </sodipodi:namedview>
  <defs
     id="defs2">
    <marker
       style="overflow:visible"
       id="Arrow1Lstart"
       refX="0.0"
       refY="0.0"
       orient="auto"
       inkscape:stockid="Arrow1Lstart"
       inkscape:isstock="true">
      <path
         transform="scale(0.8) translate(12.5,0)"
         style="fill-rule:evenodd;fill:context-stroke;stroke:context-stroke;stroke-width:1.0pt"
         d="M 0.0,0.0 L 5.0,-5.0 L -12.5,0.0 L 5.0,5.0 L 0.0,0.0 z "
         id="path40779" />
    </marker>
    <marker
       style="overflow:visible"
       id="Arrow1Lstart-0"
       refX="0"
       refY="0"
       orient="auto"
       inkscape:stockid="Arrow1Lstart"
       inkscape:isstock="true">
      <path
         transform="matrix(0.8,0,0,0.8,10,0)"
         style="fill:context-stroke;fill-rule:evenodd;stroke:context-stroke;stroke-width:1pt"
         d="M 0,0 5,-5 -12.5,0 5,5 Z"
         id="path40779-4" />
    </marker>
    <marker
       style="overflow:visible"
       id="Arrow1Lstart-5"
       refX="0"
       refY="0"
       orient="auto"
       inkscape:stockid="Arrow1Lstart"
       inkscape:isstock="true">
      <path
         transform="matrix(0.8,0,0,0.8,10,0)"
         style="fill:context-stroke;fill-rule:evenodd;stroke:context-stroke;stroke-width:1pt"
         d="M 0,0 5,-5 -12.5,0 5,5 Z"
         id="path40779-7" />
    </marker>
    <marker
       style="overflow:visible"
       id="Arrow1Lstart-2"
       refX="0"
       refY="0"
       orient="auto"
       inkscape:stockid="Arrow1Lstart"
       inkscape:isstock="true">
      <path
         transform="matrix(0.8,0,0,0.8,10,0)"
         style="fill:context-stroke;fill-rule:evenodd;stroke:context-stroke;stroke-width:1pt"
         d="M 0,0 5,-5 -12.5,0 5,5 Z"
         id="path40779-2" />
    </marker>
    <marker
       style="overflow:visible"
       id="Arrow1Lstart-0-6"
       refX="0"
       refY="0"
       orient="auto"
       inkscape:stockid="Arrow1Lstart"
       inkscape:isstock="true">
      <path
         transform="matrix(0.8,0,0,0.8,10,0)"
         style="fill:context-stroke;fill-rule:evenodd;stroke:context-stroke;stroke-width:1pt"
         d="M 0,0 5,-5 -12.5,0 5,5 Z"
         id="path40779-4-4" />
    </marker>
    <marker
       style="overflow:visible"
       id="Arrow1Lstart-0-5"
       refX="0"
       refY="0"
       orient="auto"
       inkscape:stockid="Arrow1Lstart"
       inkscape:isstock="true">
      <path
         transform="matrix(0.8,0,0,0.8,10,0)"
         style="fill:context-stroke;fill-rule:evenodd;stroke:context-stroke;stroke-width:1pt"
         d="M 0,0 5,-5 -12.5,0 5,5 Z"
         id="path40779-4-41" />
    </marker>
    <marker
       style="overflow:visible"
       id="Arrow1Lstart-0-9"
       refX="0"
       refY="0"
       orient="auto"
       inkscape:stockid="Arrow1Lstart"
       inkscape:isstock="true">
      <path
         transform="matrix(0.8,0,0,0.8,10,0)"
         style="fill:context-stroke;fill-rule:evenodd;stroke:context-stroke;stroke-width:1pt"
         d="M 0,0 5,-5 -12.5,0 5,5 Z"
         id="path40779-4-9" />
    </marker>
    <marker
       style="overflow:visible"
       id="Arrow1Lstart-0-92"
       refX="0"
       refY="0"
       orient="auto"
       inkscape:stockid="Arrow1Lstart"
       inkscape:isstock="true">
      <path
         transform="matrix(0.8,0,0,0.8,10,0)"
         style="fill:context-stroke;fill-rule:evenodd;stroke:context-stroke;stroke-width:1pt"
         d="M 0,0 5,-5 -12.5,0 5,5 Z"
         id="path40779-4-8" />
    </marker>
    <marker
       style="overflow:visible"
       id="Arrow1Lstart-0-0"
       refX="0"
       refY="0"
       orient="auto"
       inkscape:stockid="Arrow1Lstart"
       inkscape:isstock="true">
      <path
         transform="matrix(0.8,0,0,0.8,10,0)"
         style="fill:context-stroke;fill-rule:evenodd;stroke:context-stroke;stroke-width:1pt"
         d="M 0,0 5,-5 -12.5,0 5,5 Z"
         id="path40779-4-6" />
    </marker>
    <marker
       style="overflow:visible"
       id="Arrow1Lstart-0-3"
       refX="0"
       refY="0"
       orient="auto"
       inkscape:stockid="Arrow1Lstart"
       inkscape:isstock="true">
      <path
         transform="matrix(0.8,0,0,0.8,10,0)"
         style="fill:context-stroke;fill-rule:evenodd;stroke:context-stroke;stroke-width:1pt"
         d="M 0,0 5,-5 -12.5,0 5,5 Z"
         id="path40779-4-3" />
    </marker>
    <marker
       style="overflow:visible"
       id="Arrow1Lstart-0-2"
       refX="0"
       refY="0"
       orient="auto"
       inkscape:stockid="Arrow1Lstart"
       inkscape:isstock="true">
      <path
         transform="matrix(0.8,0,0,0.8,10,0)"
         style="fill:context-stroke;fill-rule:evenodd;stroke:context-stroke;stroke-width:1pt"
         d="M 0,0 5,-5 -12.5,0 5,5 Z"
         id="path40779-4-69" />
    </marker>
    <marker
       style="overflow:visible"
       id="Arrow1Lstart-0-8"
       refX="0"
       refY="0"
       orient="auto"
       inkscape:stockid="Arrow1Lstart"
       inkscape:isstock="true">
      <path
         transform="matrix(0.8,0,0,0.8,10,0)"
         style="fill:context-stroke;fill-rule:evenodd;stroke:context-stroke;stroke-width:1pt"
         d="M 0,0 5,-5 -12.5,0 5,5 Z"
         id="path40779-4-5" />
    </marker>
  </defs>
  <g
     inkscape:label="Ebene 1"
     inkscape:groupmode="layer"
     id="layer1">
    <g
       id="g40115"
       transform="translate(30.699226)">
      <path
         id="rect1824"
         style="opacity:1;fill:#ffffff;fill-rule:evenodd;stroke:#000000;stroke-width:0.265;stop-color:#000000;stop-opacity:1"
         d="m 24.300774,69.045044 h 99.999996 v 10 H 24.300774 Z" />
      <path
         id="rect4550"
         style="opacity:1;vector-effect:none;fill:#ffffff;fill-rule:evenodd;stroke:#000000;stroke-width:0.264583;stop-color:#000000;stop-opacity:1"
         d="m 24.300774,69.045044 h 10 v 10 h -10 z" />
      <path
         id="rect4550-5"
         style="vector-effect:none;fill:#ffffff;fill-rule:evenodd;stroke:#000000;stroke-width:0.264583;stop-color:#000000"
         d="m 34.300774,69.045044 h 10 v 10 h -10 z" />
      <path
         id="rect4550-4"
         style="vector-effect:none;fill:#ffffff;fill-rule:evenodd;stroke:#000000;stroke-width:0.264583;stop-color:#000000"
         d="m 44.300774,69.045044 h 10 v 10 h -10 z" />
      <path
         id="rect4550-1"
         style="vector-effect:none;fill:#ffffff;fill-rule:evenodd;stroke:#000000;stroke-width:0.264583;stop-color:#000000"
         d="m 54.300774,69.045044 h 10 v 10 h -10 z" />
      <path
         id="rect4550-0"
         style="vector-effect:none;fill:#ffffff;fill-rule:evenodd;stroke:#000000;stroke-width:0.264583;stop-color:#000000"
         d="m 64.300774,69.045044 h 10 v 10 h -10 z" />
      <path
         id="rect4550-42"
         style="vector-effect:none;fill:#ffffff;fill-rule:evenodd;stroke:#000000;stroke-width:0.264583;stop-color:#000000"
         d="m 74.300774,69.045044 h 10 v 10 h -10 z" />
      <path
         id="rect4550-6"
         style="vector-effect:none;fill:#ffffff;fill-rule:evenodd;stroke:#000000;stroke-width:0.264583;stop-color:#000000"
         d="m 84.300774,69.045044 h 10 v 10 h -10 z" />
      <path
         id="rect4550-2"
         style="vector-effect:none;fill:#ffffff;fill-rule:evenodd;stroke:#000000;stroke-width:0.264583;stop-color:#000000"
         d="m 94.300774,69.045044 h 9.999996 v 10 h -9.999996 z" />
      <path
         id="rect4550-7"
         style="vector-effect:none;fill:#ffffff;fill-rule:evenodd;stroke:#000000;stroke-width:0.264583;stop-color:#000000"
         d="m 104.30077,69.045044 h 10 v 10 h -10 z" />
      <path
         id="rect4550-8"
         style="vector-effect:none;fill:#ffffff;fill-rule:evenodd;stroke:#000000;stroke-width:0.264583;stop-color:#000000"
         d="m 114.30077,69.045044 h 10 v 10 h -10 z" />
    </g>
    <g
       aria-label="x"
       id="text6654"
       style="font-size:7.76111px;line-height:1.25;stroke-width:0.264583">
      <path
         d="m 86.168427,24.299152 h -0.898136 l -1.201305,-1.62574 -1.208883,1.62574 h -0.829924 l 1.652268,-2.110809 -1.637109,-2.122179 h 0.898136 l 1.193725,1.599213 1.197515,-1.599213 h 0.833713 l -1.663636,2.084283 z"
         id="path980" />
    </g>
    <g
       aria-label="y"
       id="text15800"
       style="font-size:7.76111px;line-height:1.25;stroke-width:0.264583">
      <path
         d="m 127.86355,20.066164 -2.47082,5.794305 h -0.76171 l 0.78824,-1.765955 -1.68638,-4.02835 h 0.77308 l 1.29984,3.137793 1.3112,-3.137793 z"
         id="path983" />
    </g>
    <g
       aria-label="h1"
       id="text21526"
       style="font-size:7.76111px;line-height:1.25;stroke-width:0.264583">
      <path
         d="m 86.217534,51.738564 h -0.712445 v -2.410189 q 0,-0.291799 -0.03411,-0.545703 -0.03411,-0.257693 -0.125057,-0.401698 -0.09474,-0.159163 -0.272851,-0.234955 -0.178112,-0.07958 -0.462332,-0.07958 -0.2918,0 -0.610126,0.144005 -0.318327,0.144005 -0.610127,0.367591 v 3.160531 h -0.712445 v -5.896625 h 0.712445 v 2.133547 q 0.333485,-0.276641 0.689708,-0.432015 0.356223,-0.155373 0.731394,-0.155373 0.685918,0 1.045931,0.413067 0.360012,0.413066 0.360012,1.189935 z"
         id="path986" />
      <path
         d="m 89.558449,53.290786 h -1.985373 v -0.374413 h 0.763605 v -2.458317 h -0.763605 v -0.335001 q 0.155184,0 0.332537,-0.02463 0.177354,-0.0271 0.268494,-0.07636 0.113309,-0.06158 0.177353,-0.155184 0.06651,-0.09607 0.07636,-0.256177 h 0.381803 v 3.305672 h 0.748825 z"
         style="font-size:65%;baseline-shift:sub"
         id="path988" />
    </g>
    <g
       aria-label="h2"
       id="text24476"
       style="font-size:7.76111px;line-height:1.25;stroke-width:0.264583">
      <path
         d="m 123.65928,51.738564 h -0.71244 v -2.410189 q 0,-0.291799 -0.0341,-0.545703 -0.0341,-0.257693 -0.12506,-0.401698 -0.0947,-0.159163 -0.27285,-0.234955 -0.17811,-0.07958 -0.46233,-0.07958 -0.2918,0 -0.61012,0.144005 -0.31833,0.144005 -0.61013,0.367591 v 3.160531 h -0.71245 v -5.896625 h 0.71245 v 2.133547 q 0.33348,-0.276641 0.68971,-0.432015 0.35622,-0.155373 0.73139,-0.155373 0.68592,0 1.04593,0.413067 0.36001,0.413066 0.36001,1.189935 z"
         id="path991" />
      <path
         d="m 127.20957,53.290786 h -2.48294 v -0.514818 q 0.25864,-0.221692 0.51728,-0.443384 0.2611,-0.221692 0.48526,-0.44092 0.47294,-0.458163 0.64783,-0.726657 0.17489,-0.270957 0.17489,-0.583788 0,-0.285737 -0.18967,-0.445847 -0.18721,-0.162574 -0.52467,-0.162574 -0.22416,0 -0.48526,0.07882 -0.2611,0.07882 -0.50989,0.241398 h -0.0246 v -0.517281 q 0.17489,-0.08621 0.46555,-0.157647 0.29312,-0.07143 0.56654,-0.07143 0.56409,0 0.88431,0.27342 0.32022,0.270956 0.32022,0.736509 0,0.209376 -0.0542,0.391656 -0.0517,0.179816 -0.15519,0.34239 -0.0961,0.152721 -0.22661,0.300516 -0.12809,0.147795 -0.31284,0.327611 -0.26356,0.258641 -0.54437,0.502502 -0.28081,0.241398 -0.52467,0.44831 h 1.97305 z"
         style="font-size:65%;baseline-shift:sub"
         id="path993" />
    </g>
    <path
       style="fill:#000000;fill-opacity:1;stroke:#fa0000;stroke-width:0.310584;stroke-linecap:butt;stroke-linejoin:miter;stroke-miterlimit:4;stroke-dasharray:none;stroke-opacity:1;marker-start:url(#Arrow1Lstart)"
       d="M 85.785407,45.190927 83.537362,28.17899"
       id="path40183"
       sodipodi:nodetypes="cc" />
    <path
       style="fill:#000000;fill-opacity:1;stroke:#fa0000;stroke-width:0.291261;stroke-linecap:butt;stroke-linejoin:miter;stroke-miterlimit:4;stroke-dasharray:none;stroke-opacity:1;marker-start:url(#Arrow1Lstart-0-6)"
       d="M 122.70345,45.441969 83.537362,28.17899"
       id="path40183-4-1"
       sodipodi:nodetypes="cc" />
    <path
       style="fill:#000000;fill-opacity:1;stroke:#0900ff;stroke-width:0.291261;stroke-linecap:butt;stroke-linejoin:miter;stroke-miterlimit:4;stroke-dasharray:none;stroke-opacity:1;marker-start:url(#Arrow1Lstart-0-5)"
       d="m 122.70345,45.441969 1.96183,-17.578108"
       id="path40183-4-8"
       sodipodi:nodetypes="cc" />
    <path
       style="fill:#000000;fill-opacity:1;stroke:#ff0000;stroke-width:0.291261;stroke-linecap:butt;stroke-linejoin:miter;stroke-miterlimit:4;stroke-dasharray:none;stroke-opacity:1;marker-start:url(#Arrow1Lstart-0-92)"
       d="M 80.197115,67.439912 86.439297,55.033898"
       id="path40183-4-26"
       sodipodi:nodetypes="cc" />
    <path
       style="fill:#000000;fill-opacity:1;stroke:#0900ff;stroke-width:0.291261;stroke-linecap:butt;stroke-linejoin:miter;stroke-miterlimit:4;stroke-dasharray:none;stroke-opacity:1;marker-start:url(#Arrow1Lstart-0-0)"
       d="M 109.0895,67.796608 86.439297,55.033898"
       id="path40183-4-9"
       sodipodi:nodetypes="cc" />
    <path
       style="fill:#000000;fill-opacity:1;stroke:#ff0000;stroke-width:0.291261;stroke-linecap:butt;stroke-linejoin:miter;stroke-miterlimit:4;stroke-dasharray:none;stroke-opacity:1;marker-start:url(#Arrow1Lstart-0-3)"
       d="M 138.38861,67.796608 125.3692,55.212246"
       id="path40183-4-5"
       sodipodi:nodetypes="cc" />
    <path
       style="fill:#000000;fill-opacity:1;stroke:#0900f3;stroke-width:0.291261;stroke-linecap:butt;stroke-linejoin:miter;stroke-miterlimit:4;stroke-dasharray:none;stroke-opacity:1;marker-start:url(#Arrow1Lstart-0-2)"
       d="M 80.197115,67.439912 125.3692,55.212246"
       id="path40183-4-3"
       sodipodi:nodetypes="cc" />
    <path
       style="fill:#000000;fill-opacity:1;stroke:#0900ff;stroke-width:0.310584;stroke-linecap:butt;stroke-linejoin:miter;stroke-miterlimit:4;stroke-dasharray:none;stroke-opacity:1;marker-start:url(#Arrow1Lstart-5)"
       d="M 85.785407,45.190927 124.66528,27.863861"
       id="path40183-7"
       sodipodi:nodetypes="cc" />
    <g
       aria-label="0"
       id="text46638"
       style="font-size:10.5833px;line-height:1.25;stroke-width:0.265">
      <path
         d="m 62.923645,74.009272 q 0,2.072218 -0.651121,3.043732 -0.645953,0.966346 -2.010207,0.966346 -1.384924,0 -2.02571,-0.981849 -0.635618,-0.981849 -0.635618,-3.017894 0,-2.051548 0.645954,-3.028229 0.645953,-0.981849 2.015374,-0.981849 1.384924,0 2.020542,0.997352 0.640786,0.992184 0.640786,3.002391 z m -1.359086,2.346102 q 0.180867,-0.418577 0.242879,-0.981849 0.06718,-0.568439 0.06718,-1.364253 0,-0.785479 -0.06718,-1.364254 -0.06201,-0.578774 -0.248047,-0.981849 -0.180867,-0.397907 -0.496092,-0.599444 -0.310057,-0.201538 -0.800982,-0.201538 -0.485757,0 -0.80615,0.201538 -0.315225,0.201537 -0.501259,0.609779 -0.1757,0.382405 -0.242879,0.997352 -0.06201,0.614948 -0.06201,1.348751 0,0.80615 0.05684,1.348751 0.05684,0.5426 0.242879,0.971513 0.170532,0.403075 0.480589,0.614948 0.315225,0.211873 0.831988,0.211873 0.485757,0 0.80615,-0.201538 0.320393,-0.201537 0.496092,-0.60978 z"
         id="path996" />
    </g>
    <g
       aria-label="0"
       id="text46638-4"
       style="font-size:10.5833px;line-height:1.25;stroke-width:0.265">
      <path
         d="m 73.108806,74.009272 q 0,2.072218 -0.65112,3.043732 -0.645954,0.966346 -2.010207,0.966346 -1.384924,0 -2.02571,-0.981849 -0.635618,-0.981849 -0.635618,-3.017894 0,-2.051548 0.645953,-3.028229 0.645954,-0.981849 2.015375,-0.981849 1.384924,0 2.020542,0.997352 0.640785,0.992184 0.640785,3.002391 z m -1.359085,2.346102 q 0.180867,-0.418577 0.242878,-0.981849 0.06718,-0.568439 0.06718,-1.364253 0,-0.785479 -0.06718,-1.364254 -0.06201,-0.578774 -0.248046,-0.981849 -0.180867,-0.397907 -0.496092,-0.599444 -0.310058,-0.201538 -0.800982,-0.201538 -0.485757,0 -0.80615,0.201538 -0.315225,0.201537 -0.50126,0.609779 -0.175699,0.382405 -0.242878,0.997352 -0.06201,0.614948 -0.06201,1.348751 0,0.80615 0.05684,1.348751 0.05684,0.5426 0.242878,0.971513 0.170532,0.403075 0.48059,0.614948 0.315225,0.211873 0.831988,0.211873 0.485757,0 0.806149,-0.201538 0.320393,-0.201537 0.496093,-0.60978 z"
         id="path999" />
    </g>
    <g
       aria-label="0"
       id="text46638-0"
       style="font-size:10.5833px;line-height:1.25;stroke-width:0.265">
      <path
         d="m 92.905437,74.009272 q 0,2.072218 -0.651121,3.043732 -0.645953,0.966346 -2.010206,0.966346 -1.384924,0 -2.02571,-0.981849 -0.635618,-0.981849 -0.635618,-3.017894 0,-2.051548 0.645953,-3.028229 0.645953,-0.981849 2.015375,-0.981849 1.384924,0 2.020542,0.997352 0.640785,0.992184 0.640785,3.002391 z m -1.359086,2.346102 q 0.180867,-0.418577 0.242879,-0.981849 0.06718,-0.568439 0.06718,-1.364253 0,-0.785479 -0.06718,-1.364254 -0.06201,-0.578774 -0.248046,-0.981849 -0.180867,-0.397907 -0.496092,-0.599444 -0.310058,-0.201538 -0.800982,-0.201538 -0.485757,0 -0.80615,0.201538 -0.315225,0.201537 -0.50126,0.609779 -0.175699,0.382405 -0.242878,0.997352 -0.06201,0.614948 -0.06201,1.348751 0,0.80615 0.05684,1.348751 0.05684,0.5426 0.242878,0.971513 0.170532,0.403075 0.48059,0.614948 0.315225,0.211873 0.831988,0.211873 0.485756,0 0.806149,-0.201538 0.320393,-0.201537 0.496092,-0.60978 z"
         id="path1002" />
    </g>
    <g
       aria-label="0"
       id="text46638-7"
       style="font-size:10.5833px;line-height:1.25;stroke-width:0.265">
      <path
         d="m 103.60632,74.009272 q 0,2.072218 -0.65112,3.043732 -0.64596,0.966346 -2.01021,0.966346 -1.384922,0 -2.025708,-0.981849 -0.635618,-0.981849 -0.635618,-3.017894 0,-2.051548 0.645953,-3.028229 0.645953,-0.981849 2.015373,-0.981849 1.38493,0 2.02054,0.997352 0.64079,0.992184 0.64079,3.002391 z m -1.35909,2.346102 q 0.18087,-0.418577 0.24288,-0.981849 0.0672,-0.568439 0.0672,-1.364253 0,-0.785479 -0.0672,-1.364254 -0.062,-0.578774 -0.24804,-0.981849 -0.18087,-0.397907 -0.4961,-0.599444 -0.31005,-0.201538 -0.80098,-0.201538 -0.48576,0 -0.80615,0.201538 -0.315223,0.201537 -0.501258,0.609779 -0.175699,0.382405 -0.242879,0.997352 -0.06201,0.614948 -0.06201,1.348751 0,0.80615 0.05684,1.348751 0.05684,0.5426 0.242878,0.971513 0.170532,0.403075 0.480586,0.614948 0.31523,0.211873 0.83199,0.211873 0.48576,0 0.80615,-0.201538 0.32039,-0.201537 0.49609,-0.60978 z"
         id="path1005" />
    </g>
    <g
       aria-label="0"
       id="text46638-1"
       style="font-size:10.5833px;line-height:1.25;stroke-width:0.265">
      <path
         d="m 133.03376,74.009272 q 0,2.072218 -0.65112,3.043732 -0.64595,0.966346 -2.0102,0.966346 -1.38493,0 -2.02571,-0.981849 -0.63562,-0.981849 -0.63562,-3.017894 0,-2.051548 0.64595,-3.028229 0.64595,-0.981849 2.01538,-0.981849 1.38492,0 2.02054,0.997352 0.64078,0.992184 0.64078,3.002391 z m -1.35908,2.346102 q 0.18086,-0.418577 0.24288,-0.981849 0.0672,-0.568439 0.0672,-1.364253 0,-0.785479 -0.0672,-1.364254 -0.062,-0.578774 -0.24805,-0.981849 -0.18087,-0.397907 -0.49609,-0.599444 -0.31006,-0.201538 -0.80098,-0.201538 -0.48576,0 -0.80615,0.201538 -0.31523,0.201537 -0.50126,0.609779 -0.1757,0.382405 -0.24288,0.997352 -0.062,0.614948 -0.062,1.348751 0,0.80615 0.0568,1.348751 0.0568,0.5426 0.24288,0.971513 0.17053,0.403075 0.48059,0.614948 0.31522,0.211873 0.83199,0.211873 0.48575,0 0.80615,-0.201538 0.32039,-0.201537 0.49609,-0.60978 z"
         id="path1008" />
    </g>
    <g
       aria-label="2
"
       id="text59580"
       style="font-size:10.5833px;line-height:1.25;stroke-width:0.264583">
      <path
         d="m 82.908967,77.874657 h -5.208968 v -1.080034 q 0.542601,-0.465087 1.085202,-0.930173 0.547768,-0.465087 1.018022,-0.925005 0.992185,-0.961179 1.359086,-1.52445 0.366902,-0.568439 0.366902,-1.224728 0,-0.599444 -0.397907,-0.93534 -0.39274,-0.341064 -1.100705,-0.341064 -0.470254,0 -1.018022,0.165364 -0.547769,0.165365 -1.069699,0.506428 h -0.05168 v -1.085202 q 0.366901,-0.180867 0.976681,-0.330728 0.614948,-0.149861 1.188554,-0.149861 1.183387,0 1.855178,0.573607 0.671792,0.568438 0.671792,1.54512 0,0.439248 -0.113688,0.821653 -0.10852,0.377236 -0.325561,0.7183 -0.201537,0.320393 -0.475421,0.63045 -0.268717,0.310058 -0.656289,0.687295 -0.552936,0.5426 -1.142045,1.054195 -0.58911,0.506428 -1.100705,0.940508 h 4.139269 z"
         id="path1011" />
    </g>
    <g
       aria-label="1"
       id="text59580-1"
       style="font-size:10.5833px;line-height:1.25;stroke-width:0.264583">
      <path
         d="m 113.01504,77.874657 h -4.16511 v -0.78548 h 1.60196 v -5.157291 h -1.60196 v -0.702797 q 0.32556,0 0.69763,-0.05168 0.37207,-0.05684 0.56327,-0.160196 0.23771,-0.129191 0.37207,-0.325561 0.13953,-0.201537 0.1602,-0.537433 h 0.80098 v 6.934955 h 1.57096 z"
         id="path1014" />
    </g>
    <g
       aria-label="0"
       id="text59580-4"
       style="font-size:10.5833px;line-height:1.25;stroke-width:0.264583">
      <path
         d="m 122.71805,74.024775 q 0,2.072218 -0.65112,3.043732 -0.64595,0.966346 -2.01021,0.966346 -1.38492,0 -2.02571,-0.981849 -0.63561,-0.981849 -0.63561,-3.017894 0,-2.051548 0.64595,-3.028229 0.64595,-0.981849 2.01537,-0.981849 1.38493,0 2.02055,0.997352 0.64078,0.992184 0.64078,3.002391 z m -1.35908,2.346102 q 0.18086,-0.418577 0.24287,-0.981849 0.0672,-0.568439 0.0672,-1.364253 0,-0.78548 -0.0672,-1.364254 -0.062,-0.578774 -0.24804,-0.981849 -0.18087,-0.397907 -0.49609,-0.599445 -0.31006,-0.201537 -0.80099,-0.201537 -0.48575,0 -0.80615,0.201537 -0.31522,0.201538 -0.50126,0.60978 -0.17569,0.382405 -0.24287,0.997352 -0.062,0.614948 -0.062,1.348751 0,0.80615 0.0569,1.348751 0.0568,0.5426 0.24288,0.971513 0.17053,0.403075 0.48059,0.614948 0.31522,0.211873 0.83198,0.211873 0.48576,0 0.80615,-0.201538 0.3204,-0.201537 0.4961,-0.60978 z"
         id="path1017" />
    </g>
    <g
       aria-label="1"
       id="text59580-2"
       style="font-size:10.5833px;line-height:1.25;stroke-width:0.264583">
      <path
         d="m 142.26412,77.874657 h -4.16511 v -0.78548 h 1.60197 v -5.157291 h -1.60197 v -0.702797 q 0.32557,0 0.69763,-0.05168 0.37207,-0.05684 0.56328,-0.160196 0.23771,-0.129191 0.37206,-0.325561 0.13953,-0.201537 0.1602,-0.537433 h 0.80098 v 6.934955 h 1.57096 z"
         id="path1020" />
    </g>
    <g
       aria-label="0"
       id="text59580-5"
       style="font-size:10.5833px;line-height:1.25;stroke-width:0.264583">
      <path
         d="m 152.50218,74.024775 q 0,2.072218 -0.65112,3.043732 -0.64596,0.966346 -2.01021,0.966346 -1.38492,0 -2.02571,-0.981849 -0.63562,-0.981849 -0.63562,-3.017894 0,-2.051548 0.64596,-3.028229 0.64595,-0.981849 2.01537,-0.981849 1.38492,0 2.02054,0.997352 0.64079,0.992184 0.64079,3.002391 z m -1.35909,2.346102 q 0.18087,-0.418577 0.24288,-0.981849 0.0672,-0.568439 0.0672,-1.364253 0,-0.78548 -0.0672,-1.364254 -0.062,-0.578774 -0.24805,-0.981849 -0.18086,-0.397907 -0.49609,-0.599445 -0.31006,-0.201537 -0.80098,-0.201537 -0.48576,0 -0.80615,0.201537 -0.31522,0.201538 -0.50126,0.60978 -0.1757,0.382405 -0.24288,0.997352 -0.062,0.614948 -0.062,1.348751 0,0.80615 0.0568,1.348751 0.0568,0.5426 0.24288,0.971513 0.17053,0.403075 0.48059,0.614948 0.31523,0.211873 0.83199,0.211873 0.48576,0 0.80615,-0.201538 0.32039,-0.201537 0.49609,-0.60978 z"
         id="path1023" />
    </g>
  </g>
</svg>
